<?xml version="1.0" encoding="UTF-8"?>
<svg version="1.1" xmlns="http://www.w3.org/2000/svg" width="512" height="512">
<path d="M0 0 C1.26811523 -0.01253311 2.53623047 -0.02506622 3.84277344 -0.03797913 C5.22331774 -0.02571079 6.60385221 -0.01229076 7.984375 0.00219727 C9.4039732 0.00136834 10.82357131 -0.00109195 12.24316406 -0.00511169 C15.21578931 -0.00796813 18.18766043 0.00671451 21.16015625 0.03417969 C24.96700096 0.06826385 28.77249748 0.06224373 32.57940674 0.04351711 C35.51004232 0.03293902 38.44036517 0.04189195 41.37097168 0.05690193 C42.77436392 0.06207837 44.17778889 0.06160843 45.58117676 0.05535698 C47.54374422 0.04989617 49.50632795 0.07314935 51.46875 0.09765625 C52.58475586 0.10385483 53.70076172 0.11005341 54.85058594 0.11643982 C58.42982296 0.75521863 59.61343687 1.70873843 61.734375 4.63110352 C62.24230957 6.86950684 62.24230957 6.86950684 62.25195312 9.33618164 C62.26456177 10.26394409 62.27717041 11.19170654 62.29016113 12.14758301 C62.27801575 13.63989441 62.27801575 13.63989441 62.265625 15.16235352 C62.2694519 16.19042114 62.27327881 17.21848877 62.27722168 18.27770996 C62.27994174 20.449717 62.27257406 22.62175674 62.25585938 24.79370117 C62.23445195 28.1191508 62.25565878 31.44243987 62.28125 34.76782227 C62.27860674 36.87850412 62.27348181 38.98918463 62.265625 41.09985352 C62.27372192 42.09472778 62.28181885 43.08960205 62.29016113 44.11462402 C62.19655354 51.00240824 62.19655354 51.00240824 59.82617188 54.22680664 C56.57847212 56.40710181 54.80237985 56.75438996 50.91748047 56.74462891 C49.91659393 56.74455338 48.9157074 56.74447784 47.88449097 56.74440002 C46.80112457 56.73923874 45.71775818 56.73407745 44.6015625 56.72875977 C43.49459015 56.72734482 42.3876178 56.72592987 41.24710083 56.72447205 C37.70116507 56.71886124 34.15529177 56.70630688 30.609375 56.69360352 C28.20963633 56.68858991 25.80989667 56.68402676 23.41015625 56.67993164 C17.51820775 56.6688883 11.62629584 56.65213962 5.734375 56.63110352 C2.10747113 70.08623542 1.78168595 84.17347294 8.39211655 96.7967186 C13.61647731 105.24280772 19.92104595 112.59728616 26.75 119.77172852 C27.27888714 120.3322984 27.80777429 120.89286828 28.35268831 121.47042513 C46.12398437 140.09105455 63.03685015 147.70376138 88.75835836 148.50873411 C103.13519219 148.78486545 117.46535717 148.28318662 131.81606281 147.45166957 C142.06935563 146.86695522 152.32778391 146.61567521 162.59375 146.36547852 C166.20601256 146.27580291 169.81820292 146.18381704 173.43032837 146.08877563 C174.74054567 146.0543522 174.74054567 146.0543522 176.077232 146.01923335 C182.06125347 145.85295021 188.03763721 145.60039309 194.01669312 145.30795288 C196.36642022 145.20015369 198.71619697 145.09349246 201.06598091 144.98694038 C203.23670713 144.88146698 205.4053765 144.75382386 207.57484436 144.62538147 C208.86276382 144.56703629 210.15068329 144.5086911 211.47763062 144.44857788 C213.15559251 144.35669724 213.15559251 144.35669724 214.86745262 144.26296043 C218.45557754 144.72371353 219.51599951 145.84834937 221.734375 148.63110352 C222.84922791 150.50473022 222.84922791 150.50473022 223.72631836 152.46459961 C224.06487854 153.20937561 224.40343872 153.95415161 224.7522583 154.72149658 C225.10600525 155.52440125 225.4597522 156.32730591 225.82421875 157.15454102 C226.39629059 158.4236734 226.39629059 158.4236734 226.97991943 159.71844482 C228.22012241 162.47683272 229.4466455 165.24103562 230.671875 168.00610352 C231.52081344 169.90847502 232.37018137 171.81065492 233.2199707 173.71264648 C234.92537204 177.53507044 236.62415926 181.36034327 238.31835938 185.18774414 C240.16251944 189.35090351 242.0264886 193.50455476 243.90391541 197.65280151 C245.13830902 200.38599776 246.36008519 203.12468265 247.57791138 205.86529541 C248.40172888 207.71096835 249.2386715 209.55076517 250.07592773 211.39038086 C252.71528224 217.39574898 254.60944374 222.04505987 253.734375 228.63110352 C251.921875 231.13110352 251.921875 231.13110352 248.734375 232.63110352 C245.104375 232.63110352 241.474375 232.63110352 237.734375 232.63110352 C237.734375 301.27110352 237.734375 369.91110352 237.734375 440.63110352 C240.704375 440.63110352 243.674375 440.63110352 246.734375 440.63110352 C249.95369507 441.59004992 251.36566479 442.26239331 253.734375 444.63110352 C254.0703125 446.68969727 254.0703125 446.68969727 254.109375 449.06860352 C254.13773438 449.85106445 254.16609375 450.63352539 254.1953125 451.43969727 C253.734375 453.63110352 253.734375 453.63110352 252.22757721 455.24447119 C248.68345788 457.21558706 245.33226253 457.04343921 241.38220215 457.00862694 C240.52784482 457.01298726 239.67348749 457.01734758 238.79324055 457.02184004 C235.91082977 457.03284783 233.0288922 457.02234858 230.14648438 457.01205444 C228.06698104 457.01550882 225.98747953 457.0202719 223.90798187 457.02623618 C218.17829905 457.03880603 212.44876537 457.03254864 206.71908188 457.02327752 C200.54586506 457.01651181 194.37267455 457.02695592 188.19946289 457.03521729 C176.80000437 457.04781015 165.40060692 457.04668526 154.00114989 457.03848288 C143.4710577 457.03094303 132.94098301 457.02896292 122.41088867 457.03255081 C121.36409369 457.03289454 121.36409369 457.03289454 120.29615134 457.03324522 C117.46346011 457.0341792 114.63076889 457.0351344 111.79807767 457.03612451 C85.21280471 457.04530625 58.62756218 457.03697362 32.04229391 457.02083382 C8.41099213 457.00659648 -15.22026115 457.00787034 -38.8515625 457.0222168 C-65.38749689 457.03827271 -91.92340438 457.04465515 -118.45934296 457.03538001 C-121.28694152 457.03441782 -124.11454009 457.0334793 -126.94213867 457.03255081 C-127.98651689 457.03219496 -127.98651689 457.03219496 -129.05199367 457.03183193 C-139.57674338 457.0284162 -150.10147368 457.03241648 -160.6262207 457.03998947 C-172.59058266 457.04855528 -184.55488733 457.04615867 -196.51924706 457.03014724 C-202.62800728 457.02224258 -208.73666889 457.0192102 -214.84542847 457.0290947 C-220.43135742 457.03799676 -226.01709579 457.03318319 -231.60300732 457.01716204 C-233.62986149 457.01379512 -235.65673158 457.0155508 -237.68357563 457.0227894 C-240.42710054 457.03184021 -243.16996255 457.02262869 -245.91345215 457.00862694 C-247.10886014 457.01916219 -247.10886014 457.01916219 -248.32841778 457.02991027 C-251.58430811 456.9964309 -253.88408794 456.84382488 -256.75662994 455.24227393 C-258.72653602 453.13898381 -258.77436381 451.98065607 -258.703125 449.13110352 C-258.70183594 448.35766602 -258.70054687 447.58422852 -258.69921875 446.78735352 C-258.16170594 444.11431686 -257.43943079 443.24790238 -255.265625 441.63110352 C-251.265625 440.63110352 -251.265625 440.63110352 -242.265625 440.63110352 C-242.265625 371.99110352 -242.265625 303.35110352 -242.265625 232.63110352 C-245.895625 232.63110352 -249.525625 232.63110352 -253.265625 232.63110352 C-256.453125 231.13110352 -256.453125 231.13110352 -258.265625 228.63110352 C-258.73152915 222.78317653 -257.87881558 218.62683091 -255.36328125 213.31079102 C-255.05403717 212.6254126 -254.74479309 211.94003418 -254.42617798 211.23388672 C-253.40749143 208.98461374 -252.36817875 206.74556619 -251.328125 204.50610352 C-250.60966388 202.93269521 -249.8926477 201.35862638 -249.17700195 199.78393555 C-248.05269956 197.31185769 -246.92674884 194.84062 -245.79478455 192.37203979 C-242.98072848 186.2328632 -240.23766998 180.06498842 -237.5234375 173.88110352 C-236.37341373 171.27040726 -235.22275166 168.65999308 -234.07199097 166.04962158 C-233.32747954 164.3571237 -232.5853831 162.66356139 -231.84573364 160.96893311 C-230.81029505 158.60000476 -229.76390367 156.23621216 -228.71484375 153.87329102 C-228.40922516 153.16664307 -228.10360657 152.45999512 -227.78872681 151.73193359 C-226.25902621 148.31447768 -225.4570745 146.75873652 -222.265625 144.63110352 C-219.52175045 144.50905609 -219.52175045 144.50905609 -216.12913513 144.68908691 C-214.84259033 144.75018143 -213.55604553 144.81127594 -212.23051453 144.8742218 C-211.18753236 144.93065574 -211.18753236 144.93065574 -210.12347984 144.98822975 C-206.30383483 145.19367308 -202.48248593 145.36194893 -198.66123962 145.5345459 C-197.84404194 145.57227049 -197.02684425 145.60999508 -196.184883 145.64886284 C-184.67376392 146.16793438 -173.15385565 146.40827652 -161.6344595 146.66629791 C-152.29866275 146.88330934 -142.98313365 147.19155807 -133.65942383 147.72045898 C-83.35819256 150.98612089 -83.35819256 150.98612089 -39.58034259 129.43150872 C-22.78775843 114.3363327 -8.05269539 95.83305925 -6.39964867 72.55939865 C-6.14656076 64.86950565 -6.75278395 57.33215005 -7.60198975 49.69586182 C-8.09536397 44.77766472 -8.30367117 39.8468584 -8.53125 34.91040039 C-8.79177369 29.37310255 -9.0715648 23.85214037 -9.58877563 18.33207703 C-9.66046463 17.5107428 -9.73215363 16.68940857 -9.80601501 15.84318542 C-9.94278509 14.32115705 -10.09664794 12.80052165 -10.27134705 11.28237915 C-10.57504917 7.76850861 -10.3618109 5.80931381 -8.67269897 2.67977905 C-5.59769165 0.06262131 -4.00829748 0.00345431 0 0 Z " fill="#FCC068" transform="translate(258.265625,27.368896484375)"/>
<path d="M0 0 C1.26811523 -0.01253311 2.53623047 -0.02506622 3.84277344 -0.03797913 C5.22331774 -0.02571079 6.60385221 -0.01229076 7.984375 0.00219727 C9.4039732 0.00136834 10.82357131 -0.00109195 12.24316406 -0.00511169 C15.21578931 -0.00796813 18.18766043 0.00671451 21.16015625 0.03417969 C24.96700096 0.06826385 28.77249748 0.06224373 32.57940674 0.04351711 C35.51004232 0.03293902 38.44036517 0.04189195 41.37097168 0.05690193 C42.77436392 0.06207837 44.17778889 0.06160843 45.58117676 0.05535698 C47.54374422 0.04989617 49.50632795 0.07314935 51.46875 0.09765625 C52.58475586 0.10385483 53.70076172 0.11005341 54.85058594 0.11643982 C58.42982296 0.75521863 59.61343687 1.70873843 61.734375 4.63110352 C62.24230957 6.86950684 62.24230957 6.86950684 62.25195312 9.33618164 C62.26456177 10.26394409 62.27717041 11.19170654 62.29016113 12.14758301 C62.27801575 13.63989441 62.27801575 13.63989441 62.265625 15.16235352 C62.2694519 16.19042114 62.27327881 17.21848877 62.27722168 18.27770996 C62.27994174 20.449717 62.27257406 22.62175674 62.25585938 24.79370117 C62.23445195 28.1191508 62.25565878 31.44243987 62.28125 34.76782227 C62.27860674 36.87850412 62.27348181 38.98918463 62.265625 41.09985352 C62.27372192 42.09472778 62.28181885 43.08960205 62.29016113 44.11462402 C62.19655354 51.00240824 62.19655354 51.00240824 59.82617188 54.22680664 C56.57847212 56.40710181 54.80237985 56.75438996 50.91748047 56.74462891 C49.91659393 56.74455338 48.9157074 56.74447784 47.88449097 56.74440002 C46.80112457 56.73923874 45.71775818 56.73407745 44.6015625 56.72875977 C43.49459015 56.72734482 42.3876178 56.72592987 41.24710083 56.72447205 C37.70116507 56.71886124 34.15529177 56.70630688 30.609375 56.69360352 C28.20963633 56.68858991 25.80989667 56.68402676 23.41015625 56.67993164 C17.51820775 56.6688883 11.62629584 56.65213962 5.734375 56.63110352 C2.10747113 70.08623542 1.78168595 84.17347294 8.39211655 96.7967186 C13.61647731 105.24280772 19.92104595 112.59728616 26.75 119.77172852 C27.27888714 120.3322984 27.80777429 120.89286828 28.35268831 121.47042513 C46.12398437 140.09105455 63.03685015 147.70376138 88.75835836 148.50873411 C103.13519219 148.78486545 117.46535717 148.28318662 131.81606281 147.45166957 C142.06935563 146.86695522 152.32778391 146.61567521 162.59375 146.36547852 C166.20601256 146.27580291 169.81820292 146.18381704 173.43032837 146.08877563 C174.74054567 146.0543522 174.74054567 146.0543522 176.077232 146.01923335 C182.06125347 145.85295021 188.03763721 145.60039309 194.01669312 145.30795288 C196.36642022 145.20015369 198.71619697 145.09349246 201.06598091 144.98694038 C203.23670713 144.88146698 205.4053765 144.75382386 207.57484436 144.62538147 C208.86276382 144.56703629 210.15068329 144.5086911 211.47763062 144.44857788 C213.15559251 144.35669724 213.15559251 144.35669724 214.86745262 144.26296043 C218.45557754 144.72371353 219.51599951 145.84834937 221.734375 148.63110352 C222.84922791 150.50473022 222.84922791 150.50473022 223.72631836 152.46459961 C224.06487854 153.20937561 224.40343872 153.95415161 224.7522583 154.72149658 C225.10600525 155.52440125 225.4597522 156.32730591 225.82421875 157.15454102 C226.39629059 158.4236734 226.39629059 158.4236734 226.97991943 159.71844482 C228.22012241 162.47683272 229.4466455 165.24103562 230.671875 168.00610352 C231.52081344 169.90847502 232.37018137 171.81065492 233.2199707 173.71264648 C234.92537204 177.53507044 236.62415926 181.36034327 238.31835938 185.18774414 C240.16251944 189.35090351 242.0264886 193.50455476 243.90391541 197.65280151 C245.13830902 200.38599776 246.36008519 203.12468265 247.57791138 205.86529541 C248.40172888 207.71096835 249.2386715 209.55076517 250.07592773 211.39038086 C252.71528224 217.39574898 254.60944374 222.04505987 253.734375 228.63110352 C251.921875 231.13110352 251.921875 231.13110352 248.734375 232.63110352 C245.104375 232.63110352 241.474375 232.63110352 237.734375 232.63110352 C237.734375 301.27110352 237.734375 369.91110352 237.734375 440.63110352 C240.704375 440.63110352 243.674375 440.63110352 246.734375 440.63110352 C249.95369507 441.59004992 251.36566479 442.26239331 253.734375 444.63110352 C254.0703125 446.68969727 254.0703125 446.68969727 254.109375 449.06860352 C254.13773438 449.85106445 254.16609375 450.63352539 254.1953125 451.43969727 C253.734375 453.63110352 253.734375 453.63110352 252.22757721 455.24447119 C248.68345788 457.21558706 245.33226253 457.04343921 241.38220215 457.00862694 C240.52784482 457.01298726 239.67348749 457.01734758 238.79324055 457.02184004 C235.91082977 457.03284783 233.0288922 457.02234858 230.14648438 457.01205444 C228.06698104 457.01550882 225.98747953 457.0202719 223.90798187 457.02623618 C218.17829905 457.03880603 212.44876537 457.03254864 206.71908188 457.02327752 C200.54586506 457.01651181 194.37267455 457.02695592 188.19946289 457.03521729 C176.80000437 457.04781015 165.40060692 457.04668526 154.00114989 457.03848288 C143.4710577 457.03094303 132.94098301 457.02896292 122.41088867 457.03255081 C121.36409369 457.03289454 121.36409369 457.03289454 120.29615134 457.03324522 C117.46346011 457.0341792 114.63076889 457.0351344 111.79807767 457.03612451 C85.21280471 457.04530625 58.62756218 457.03697362 32.04229391 457.02083382 C8.41099213 457.00659648 -15.22026115 457.00787034 -38.8515625 457.0222168 C-65.38749689 457.03827271 -91.92340438 457.04465515 -118.45934296 457.03538001 C-121.28694152 457.03441782 -124.11454009 457.0334793 -126.94213867 457.03255081 C-127.98651689 457.03219496 -127.98651689 457.03219496 -129.05199367 457.03183193 C-139.57674338 457.0284162 -150.10147368 457.03241648 -160.6262207 457.03998947 C-172.59058266 457.04855528 -184.55488733 457.04615867 -196.51924706 457.03014724 C-202.62800728 457.02224258 -208.73666889 457.0192102 -214.84542847 457.0290947 C-220.43135742 457.03799676 -226.01709579 457.03318319 -231.60300732 457.01716204 C-233.62986149 457.01379512 -235.65673158 457.0155508 -237.68357563 457.0227894 C-240.42710054 457.03184021 -243.16996255 457.02262869 -245.91345215 457.00862694 C-247.10886014 457.01916219 -247.10886014 457.01916219 -248.32841778 457.02991027 C-251.58430811 456.9964309 -253.88408794 456.84382488 -256.75662994 455.24227393 C-258.72653602 453.13898381 -258.77436381 451.98065607 -258.703125 449.13110352 C-258.70183594 448.35766602 -258.70054687 447.58422852 -258.69921875 446.78735352 C-258.16170594 444.11431686 -257.43943079 443.24790238 -255.265625 441.63110352 C-251.265625 440.63110352 -251.265625 440.63110352 -242.265625 440.63110352 C-242.265625 371.99110352 -242.265625 303.35110352 -242.265625 232.63110352 C-245.895625 232.63110352 -249.525625 232.63110352 -253.265625 232.63110352 C-256.453125 231.13110352 -256.453125 231.13110352 -258.265625 228.63110352 C-258.73152915 222.78317653 -257.87881558 218.62683091 -255.36328125 213.31079102 C-255.05403717 212.6254126 -254.74479309 211.94003418 -254.42617798 211.23388672 C-253.40749143 208.98461374 -252.36817875 206.74556619 -251.328125 204.50610352 C-250.60966388 202.93269521 -249.8926477 201.35862638 -249.17700195 199.78393555 C-248.05269956 197.31185769 -246.92674884 194.84062 -245.79478455 192.37203979 C-242.98072848 186.2328632 -240.23766998 180.06498842 -237.5234375 173.88110352 C-236.37341373 171.27040726 -235.22275166 168.65999308 -234.07199097 166.04962158 C-233.32747954 164.3571237 -232.5853831 162.66356139 -231.84573364 160.96893311 C-230.81029505 158.60000476 -229.76390367 156.23621216 -228.71484375 153.87329102 C-228.40922516 153.16664307 -228.10360657 152.45999512 -227.78872681 151.73193359 C-226.25902621 148.31447768 -225.4570745 146.75873652 -222.265625 144.63110352 C-219.52175045 144.50905609 -219.52175045 144.50905609 -216.12913513 144.68908691 C-214.84259033 144.75018143 -213.55604553 144.81127594 -212.23051453 144.8742218 C-211.18753236 144.93065574 -211.18753236 144.93065574 -210.12347984 144.98822975 C-206.30383483 145.19367308 -202.48248593 145.36194893 -198.66123962 145.5345459 C-197.84404194 145.57227049 -197.02684425 145.60999508 -196.184883 145.64886284 C-184.67376392 146.16793438 -173.15385565 146.40827652 -161.6344595 146.66629791 C-152.29866275 146.88330934 -142.98313365 147.19155807 -133.65942383 147.72045898 C-83.35819256 150.98612089 -83.35819256 150.98612089 -39.58034259 129.43150872 C-22.78775843 114.3363327 -8.05269539 95.83305925 -6.39964867 72.55939865 C-6.14656076 64.86950565 -6.75278395 57.33215005 -7.60198975 49.69586182 C-8.09536397 44.77766472 -8.30367117 39.8468584 -8.53125 34.91040039 C-8.79177369 29.37310255 -9.0715648 23.85214037 -9.58877563 18.33207703 C-9.66046463 17.5107428 -9.73215363 16.68940857 -9.80601501 15.84318542 C-9.94278509 14.32115705 -10.09664794 12.80052165 -10.27134705 11.28237915 C-10.57504917 7.76850861 -10.3618109 5.80931381 -8.67269897 2.67977905 C-5.59769165 0.06262131 -4.00829748 0.00345431 0 0 Z M-5.41145325 109.53362942 C-6.30668198 110.43200055 -7.20191071 111.33037169 -8.12426758 112.25596619 C-8.87200424 113.00219792 -8.87200424 113.00219792 -9.63484669 113.76350504 C-11.31474071 115.44244158 -12.98736226 117.12844456 -14.66015625 118.81445312 C-15.85872494 120.01522157 -17.05774066 121.21554393 -18.25717163 122.41545105 C-20.84432776 125.00554711 -23.42828766 127.59877662 -26.00985718 130.19444084 C-30.08854998 134.29533378 -34.17425855 138.38918739 -38.26098633 142.48207092 C-44.72220363 148.95468391 -51.17873302 155.4319502 -57.63325596 161.91123825 C-69.19565085 173.51791845 -80.76359943 185.11905709 -92.33676815 196.71499449 C-96.40152782 200.78818263 -100.46346137 204.86416277 -104.5231781 208.94237697 C-107.04561597 211.47543159 -109.5700617 214.00647802 -112.09502029 216.53701973 C-113.2690128 217.71449321 -114.44213218 218.89283794 -115.61433029 220.07209778 C-117.20960476 221.67677326 -118.8078944 223.27838334 -120.40698242 224.8792572 C-121.30221115 225.77800536 -122.19743988 226.67675352 -123.11979675 227.60273647 C-148.36684307 251.46777634 -192.52612597 231.28370853 -227.265625 231.63110352 C-227.265625 300.93110352 -227.265625 370.23110352 -227.265625 441.63110352 C-176.775625 441.63110352 -126.285625 441.63110352 -74.265625 441.63110352 C-73.935625 432.72110352 -73.605625 423.81110352 -73.265625 414.63110352 C-68.765625 410.13110352 -68.765625 410.13110352 -63.515625 409.88110352 C-62.53078125 409.82438477 -61.5459375 409.76766602 -60.53125 409.70922852 C-59.78359375 409.68344727 -59.0359375 409.65766602 -58.265625 409.63110352 C-58.26015656 408.38535553 -58.26015656 408.38535553 -58.25457764 407.11444092 C-58.2167057 399.28645903 -58.15986244 391.45889412 -58.08172226 383.63120651 C-58.04221833 379.60690432 -58.01004443 375.58282189 -57.99462891 371.55834961 C-57.9794811 367.67421111 -57.94507014 363.79067664 -57.89731598 359.90680695 C-57.88248258 358.42530824 -57.87458286 356.9437233 -57.87374115 355.46215057 C-57.8713754 353.38597781 -57.84433294 351.31147975 -57.81152344 349.2355957 C-57.80264099 348.05423035 -57.79375854 346.87286499 -57.78460693 345.65570068 C-57.265625 342.63110352 -57.265625 342.63110352 -55.84112549 340.25067139 C-51.86391791 337.74965939 -48.12068573 338.07353176 -43.51171875 338.11352539 C-42.02818405 338.10301147 -42.02818405 338.10301147 -40.51467896 338.09228516 C-37.24387577 338.07467311 -33.97393706 338.08633972 -30.703125 338.09985352 C-28.43155755 338.09715954 -26.15999123 338.0932779 -23.88842773 338.08825684 C-19.12700423 338.08235742 -14.36588082 338.09093932 -9.60449219 338.10961914 C-3.49753432 338.13240857 2.60872041 338.11928792 8.71565247 338.09532928 C13.40650746 338.08088351 18.09719543 338.08547177 22.78805542 338.09584045 C25.03994835 338.0985111 27.29185639 338.09522616 29.54373169 338.08592224 C32.68972005 338.07577709 35.83456563 338.09123015 38.98046875 338.11352539 C39.9135788 338.10542847 40.84668884 338.09733154 41.80807495 338.08898926 C45.64635738 338.1394497 48.01659005 338.17973437 51.30987549 340.25067139 C53.19273811 343.39705833 53.25273036 345.57236608 53.28027344 349.2355957 C53.29061111 349.88966904 53.30094879 350.54374237 53.31159973 351.21763611 C53.34100775 353.37133546 53.34252634 355.52409425 53.34375 357.67797852 C53.35873317 359.17443634 53.37546062 360.67087764 53.39385986 362.16729736 C53.43753102 366.09967817 53.45753168 370.03183592 53.47259521 373.9644165 C53.49216736 377.97974842 53.53413717 381.99483947 53.57421875 386.01000977 C53.64951816 393.88364465 53.69981096 401.75718494 53.734375 409.63110352 C54.48203125 409.65688477 55.2296875 409.68266602 56 409.70922852 C56.98484375 409.76594727 57.9696875 409.82266602 58.984375 409.88110352 C59.95890625 409.92750977 60.9334375 409.97391602 61.9375 410.02172852 C64.734375 410.63110352 64.734375 410.63110352 68.734375 414.63110352 C69.064375 423.54110352 69.394375 432.45110352 69.734375 441.63110352 C120.224375 441.63110352 170.714375 441.63110352 222.734375 441.63110352 C222.734375 372.33110352 222.734375 303.03110352 222.734375 231.63110352 C216.794375 231.13610352 216.794375 231.13610352 210.734375 230.63110352 C207.734375 227.63110352 207.734375 227.63110352 207.296875 224.69360352 C207.734375 221.63110352 207.734375 221.63110352 209.05859375 219.48657227 C213.34883189 216.51158962 217.88284349 216.95231779 222.984375 216.88110352 C224.53125 216.83663086 224.53125 216.83663086 226.109375 216.79125977 C228.65111995 216.72065574 231.19195283 216.66791342 233.734375 216.63110352 C233.06908081 212.02268337 231.29030799 208.03369645 229.3828125 203.83032227 C229.04569244 203.07628616 228.70857239 202.32225006 228.36123657 201.54536438 C227.28208639 199.1342561 226.1959714 196.72636392 225.109375 194.31860352 C224.0457519 191.94944762 222.98359914 189.57963745 221.92178345 187.20967102 C221.26299668 185.74061232 220.60297 184.27210851 219.94125366 182.80436707 C216.47650455 175.10603291 213.1189203 167.36720705 209.734375 159.63110352 C164.524375 159.63110352 119.314375 159.63110352 72.734375 159.63110352 C78.47026908 171.10289168 89.16102876 180.97850969 97.859375 190.31860352 C98.72864624 191.25410601 98.72864624 191.25410601 99.61547852 192.20850754 C113.72953288 207.272154 126.07470897 219.16643521 147.41506958 220.45021057 C156.94420286 220.60216328 166.57368952 219.90428854 175.98361206 218.37838745 C183.05540816 217.26959533 183.05540816 217.26959533 186.91796875 219.32617188 C188.734375 221.63110352 188.734375 221.63110352 188.671875 225.25610352 C187.734375 228.63110352 187.734375 228.63110352 185.734375 230.63110352 C183.15597534 230.91871643 183.15597534 230.91871643 179.85107422 230.96923828 C177.99807205 231.00290245 177.99807205 231.00290245 176.1076355 231.0372467 C174.75145606 231.05026694 173.39526363 231.06198847 172.0390625 231.07250977 C171.35583042 231.07941267 170.67259834 231.08631557 169.96866226 231.09342766 C166.34792086 231.12929959 162.72733584 231.1528141 159.10644531 231.16650391 C155.38022485 231.18299832 151.65592056 231.24132658 147.93034172 231.30964756 C145.05451251 231.3546277 142.17913304 231.36801287 139.30298233 231.37312126 C137.93067807 231.38097836 136.55838559 231.40051263 135.18642807 231.43234444 C133.25606748 231.47415206 131.32483468 231.46664305 129.39404297 231.45751953 C128.29865204 231.4670314 127.20326111 231.47654327 126.07467651 231.48634338 C121.06800707 230.20445212 118.352332 227.21180761 114.734375 223.63110352 C113.88976778 222.807532 113.04516056 221.98396048 112.17495918 221.13543224 C109.16598224 218.1728366 106.18565489 215.18343277 103.20947266 212.18798828 C102.06892794 211.04388097 100.92814363 209.90001245 99.78713989 208.75636292 C97.34567483 206.30838544 94.90572954 203.85890701 92.46693802 201.40826607 C88.61278694 197.5357348 84.7542145 193.6676293 80.89486694 189.80027771 C69.92662469 178.80794399 58.96440219 167.80961821 48.00634766 156.80712891 C41.94289891 150.71917102 35.87589197 144.63478181 29.80501211 138.55423397 C25.96454099 134.70720922 22.12862555 130.85571567 18.29598546 127.0008899 C15.91942019 124.61263662 13.53872505 122.22853466 11.15681076 119.84561729 C10.04966618 118.73631672 8.94425409 117.62528406 7.84066772 116.51244354 C6.33993991 114.99961449 4.83325716 113.49298421 3.32485962 111.98780823 C2.48166986 111.14147607 1.63848011 110.29514391 0.76973915 109.42316532 C-2.07242286 106.92074826 -2.58033387 107.02351335 -5.41145325 109.53362942 Z " fill="#020101" transform="translate(258.265625,27.368896484375)"/>
<path d="M0 0 C3.77215097 1.56756722 6.15665588 3.91262382 9.02322388 6.78944397 C9.51525673 7.28047354 10.00728958 7.7715031 10.51423252 8.27741235 C12.16027397 9.92250187 13.79906355 11.57462924 15.43798828 13.22680664 C16.61714697 14.4081667 17.79675416 15.58907925 18.97677612 16.76957703 C21.51588231 19.31161622 24.05179984 21.85677971 26.58530045 24.40440559 C30.58851654 28.42987336 34.59879558 32.44825426 38.6100769 36.46568298 C44.95082075 42.81780806 51.28687326 49.17458903 57.62090385 55.53340763 C68.97198196 66.92882669 80.32866724 78.31865117 91.69054973 89.70329756 C95.68004645 93.70121936 99.66671707 97.70193246 103.65116525 101.7048856 C106.12552919 104.18986577 108.60190065 106.67283808 111.07878494 109.15530586 C112.23020346 110.31020517 113.38074885 111.46597571 114.53037262 112.62266159 C116.09488652 114.196577 117.66241557 115.76742604 119.23074341 117.33753967 C120.10862581 118.21894151 120.98650822 119.10034334 121.89099312 120.00845432 C125.29586785 123.22369445 127.36225431 123.13604393 131.96264648 123.17700195 C133.83985634 123.19625481 133.83985634 123.19625481 135.75498962 123.21589661 C137.12702032 123.22406248 138.49905548 123.23150651 139.87109375 123.23828125 C140.56056658 123.24235678 141.25003941 123.2464323 141.96040535 123.25063133 C145.60779649 123.27148566 149.25515004 123.28579161 152.90258789 123.29516602 C156.67355392 123.30624573 160.44393231 123.34066432 164.21469021 123.38033772 C167.11173111 123.40645021 170.00863064 123.41485286 172.90577888 123.41844749 C174.29609216 123.42332533 175.68639863 123.43497343 177.07659721 123.45348549 C179.02024061 123.47776402 180.96416924 123.47450328 182.90795898 123.4699707 C184.01445297 123.47583694 185.12094696 123.48170319 186.26097107 123.48774719 C189.10614099 123.25303442 189.10614099 123.25303442 190.84950256 121.12687683 C192.31327814 118.42085571 192.60591598 117.02957988 192 114 C190.18364095 111.53544824 190.18364095 111.53544824 187 110 C183.33592366 109.98538121 179.80004045 110.71374091 176.1953125 111.32421875 C157.64730094 113.60664684 138.51986391 115.51809896 122.97167969 103.60449219 C114.68279665 96.92308262 107.24888036 89.33950382 100 81.5625 C99.38992348 80.90947781 98.77984695 80.25645561 98.15128326 79.58364487 C76 55.75594466 76 55.75594466 76 52 C121.21 52 166.42 52 213 52 C237 105.64705882 237 105.64705882 237 109 C236.35450195 109.0093457 235.70900391 109.01869141 235.04394531 109.02832031 C232.11186056 109.08209101 229.18135992 109.1657234 226.25 109.25 C225.23421875 109.26417969 224.2184375 109.27835937 223.171875 109.29296875 C217.39219744 109.39332532 217.39219744 109.39332532 212.32421875 111.85546875 C210.51904799 114.77888688 210.49776282 116.62783608 211 120 C212.0909164 121.75926885 212.0909164 121.75926885 214 123 C216.96243726 123.57947281 216.96243726 123.57947281 220.1875 123.6875 C222.105625 123.790625 224.02375 123.89375 226 124 C226 129.61 226 135.22 226 141 C213.26474556 141.06965111 200.52953678 141.122888 187.79413033 141.15543652 C181.87993749 141.17106177 175.96587541 141.19224273 170.05175781 141.22631836 C164.33942258 141.25902369 158.62721278 141.27687662 152.91479111 141.28463173 C150.74040631 141.29015519 148.56602802 141.30094102 146.39169693 141.31719017 C143.33536437 141.33911283 140.27954364 141.34196072 137.22314453 141.34057617 C136.33337418 141.351362 135.44360382 141.36214783 134.52687073 141.3732605 C120.96043782 141.30718667 112.5761762 135.88902138 103.25048828 126.50927734 C102.12263664 125.38668266 102.12263664 125.38668266 100.97200012 124.2414093 C98.49973144 121.77791049 96.03481125 119.30720758 93.5703125 116.8359375 C91.85282142 115.11979386 90.13503356 113.40394719 88.41696167 111.68838501 C84.82451749 108.09888518 81.23570582 104.5058027 77.64941406 100.91015625 C73.04242338 96.29173712 68.4264668 91.68239982 63.80778694 87.07567406 C60.26300142 83.53809636 56.7229695 79.99579284 53.18438339 76.45201492 C51.48331572 74.74960955 49.7807514 73.04869834 48.07669449 71.34928513 C45.70398435 68.98162617 43.33773304 66.60769983 40.97314453 64.23193359 C39.90727364 63.17213539 39.90727364 63.17213539 38.81987 62.09092712 C38.18065109 61.44606857 37.54143219 60.80121002 36.88284302 60.1368103 C36.32281145 59.57602468 35.76277988 59.01523907 35.18577766 58.43745995 C34 57 34 57 34 55 C33.01 54.67 32.02 54.34 31 54 C31 53.34 31 52.68 31 52 C30.34 52 29.68 52 29 52 C27.64038086 50.61914063 27.64038086 50.61914063 26.02734375 48.65625 C21.48750064 43.31719676 16.53859512 38.42952259 11.5625 33.5 C10.64017578 32.5821875 9.71785156 31.664375 8.76757812 30.71875 C6.51400101 28.47684945 4.25810925 26.237334 2 24 C-0.93529349 25.32483081 -3.01037418 26.76144662 -5.28051758 29.03759766 C-5.89828568 29.65228912 -6.51605377 30.26698059 -7.15254211 30.90029907 C-7.80989853 31.564841 -8.46725494 32.22938293 -9.14453125 32.9140625 C-9.83254318 33.60253265 -10.52055511 34.29100281 -11.22941589 35.00033569 C-12.68502068 36.45895983 -14.13819597 37.92001191 -15.58911133 39.38330078 C-17.78878304 41.60108772 -19.99620887 43.81090877 -22.20507812 46.01953125 C-23.62286572 47.44224022 -25.04019781 48.86540331 -26.45703125 50.2890625 C-27.10831497 50.94145905 -27.75959869 51.59385559 -28.43061829 52.26602173 C-31.48946278 55.35597944 -34.45396132 58.48485346 -37.28694153 61.78396606 C-40.74794468 65.75639261 -44.36592336 69.53309461 -48.07763672 73.27050781 C-48.74695221 73.94800079 -49.4162677 74.62549377 -50.10586548 75.32351685 C-52.2941545 77.53636695 -54.486346 79.74528322 -56.6796875 81.953125 C-57.434314 82.71307518 -58.18894051 83.47302536 -58.96643448 84.25600433 C-62.95471809 88.27088047 -66.94657725 92.28216614 -70.94091797 96.29101562 C-74.23377989 99.59725189 -77.51920643 102.91061694 -80.79833984 106.23046875 C-84.7764063 110.25790817 -88.76665937 114.27288174 -92.76593399 118.27925873 C-94.28116312 119.80118283 -95.7921489 121.32734447 -97.29867172 122.85788727 C-99.40865019 124.99960024 -101.53398687 127.12487814 -103.66357422 129.24707031 C-104.27477112 129.87467255 -104.88596802 130.50227478 -105.51568604 131.14889526 C-113.15041625 138.67620945 -121.45075274 141.10220423 -132.00585938 141.15771484 C-133.03366264 141.16533592 -133.03366264 141.16533592 -134.08222961 141.17311096 C-135.5630518 141.18377122 -137.04388966 141.19240825 -138.5247345 141.19923019 C-140.87053701 141.21107273 -143.21615982 141.23053701 -145.56188965 141.25234985 C-152.22886169 141.3138006 -158.89581138 141.36804338 -165.56298828 141.40136719 C-169.64729564 141.42232667 -173.7312681 141.45763249 -177.81538391 141.50212479 C-179.36863768 141.51626658 -180.92195061 141.52500312 -182.4752655 141.52817917 C-184.64858024 141.53309536 -186.82100683 141.55626744 -188.99414062 141.58349609 C-190.22926392 141.59158295 -191.46438721 141.5996698 -192.73693848 141.60800171 C-196.25861773 142.03106828 -198.09472723 143.04205825 -201 145 C-201.66 145 -202.32 145 -203 145 C-205.61010029 149.69818052 -206.12619692 154.10254869 -206.11352539 159.42358398 C-206.1134549 160.50133591 -206.1133844 161.57908783 -206.11331177 162.6894989 C-206.10814545 163.8631752 -206.10297913 165.0368515 -206.09765625 166.24609375 C-206.09546585 168.11386223 -206.09546585 168.11386223 -206.0932312 170.0193634 C-206.08942196 172.73116042 -206.08379941 175.44288386 -206.07516479 178.15466309 C-206.06151534 182.49405672 -206.05571704 186.83344028 -206.05102539 191.17285156 C-206.03807997 201.98880591 -206.01391782 212.8047327 -205.98962402 223.6206665 C-205.96614674 234.1637728 -205.94768974 244.70687204 -205.9375 255.25 C-205.9367107 255.98290882 -205.9359214 256.71581764 -205.93510818 257.47093582 C-205.90956777 282.99179177 -206.24412547 308.48923448 -207 334 C-212.61 334 -218.22 334 -224 334 C-224 264.7 -224 195.4 -224 124 C-191 123.67 -158 123.34 -124 123 C-119.37179215 118.95031813 -114.94820636 115.07315007 -110.63415527 110.75440979 C-110.1536278 110.27473674 -109.67310033 109.79506369 -109.17801142 109.3008551 C-107.59741925 107.72188637 -106.02038525 106.13941474 -104.44335938 104.55688477 C-103.2995518 103.41279461 -102.15552298 102.26892561 -101.0112915 101.1252594 C-97.92697662 98.04122973 -94.84574021 94.95414129 -91.76507378 91.86646771 C-88.53712047 88.63223484 -85.30630782 85.40086079 -82.07580566 82.16917419 C-75.96834881 76.05861755 -69.86344411 69.94551777 -63.75946665 63.83148569 C-56.80613979 56.8669556 -49.84995057 49.90528743 -42.89352703 42.94385064 C-28.59251179 28.63240163 -14.29507028 14.317387 0 0 Z " fill="#FCA75E" transform="translate(255,135)"/>
<path d="M0 0 C1.00100235 -0.0112793 2.0020047 -0.02255859 3.03334045 -0.03417969 C4.67144936 -0.0220343 4.67144936 -0.0220343 6.34265137 -0.00964355 C7.4974852 -0.01665283 8.65231903 -0.02366211 9.84214783 -0.03088379 C13.66482488 -0.04850909 17.48676347 -0.03682409 21.30944824 -0.02331543 C23.9621676 -0.02600902 26.61486441 -0.029884 29.26757812 -0.03491211 C34.82930524 -0.04218728 40.39081981 -0.03260447 45.95251465 -0.0135498 C52.3806011 0.00821899 58.80818006 0.0011675 65.23625422 -0.02085543 C70.75741495 -0.03901338 76.27842299 -0.04156592 81.79960394 -0.03110075 C85.09624305 -0.02486784 88.39259159 -0.02559701 91.68922424 -0.0372467 C95.36441564 -0.04738333 99.03862689 -0.03194973 102.71374512 -0.00964355 C103.80581772 -0.01774048 104.89789032 -0.0258374 106.02305603 -0.03417969 C107.52455956 -0.01726074 107.52455956 -0.01726074 109.05639648 0 C110.3593932 0.00226215 110.3593932 0.00226215 111.68871307 0.00457001 C114.82160831 0.678645 116.03727363 2.05256274 118.02819824 4.50793457 C118.52940369 6.96739197 118.52940369 6.96739197 118.52990723 9.7479248 C118.53928818 10.79258408 118.54866913 11.83724335 118.55833435 12.91355896 C118.54710037 14.03653885 118.53586639 15.15951874 118.52429199 16.31652832 C118.52574722 17.47540054 118.52720245 18.63427277 118.52870178 19.82826233 C118.5270421 22.27855951 118.51547327 24.72886703 118.49475098 27.17907715 C118.46583412 30.92781949 118.4741343 34.67514466 118.48718262 38.4239502 C118.48094408 40.80481644 118.47255225 43.18567822 118.46179199 45.56652832 C118.46472763 46.68748398 118.46766327 47.80843964 118.47068787 48.96336365 C118.45800369 50.01117508 118.44531952 51.05898651 118.43225098 52.1385498 C118.42684799 53.05692123 118.42144501 53.97529266 118.4158783 54.92149353 C117.94698523 58.04975423 116.86393532 59.95251278 115.02819824 62.50793457 C112.60161725 63.72122507 111.0471291 63.64167686 108.33486938 63.65510559 C106.85011108 63.66583855 106.85011108 63.66583855 105.33535767 63.67678833 C104.24544525 63.67947723 103.15553284 63.68216614 102.03259277 63.68493652 C100.31541046 63.69479332 100.31541046 63.69479332 98.5635376 63.70484924 C94.76269471 63.72461402 90.96189136 63.73625075 87.16101074 63.74621582 C85.86599514 63.75029135 84.57097954 63.75436687 83.23672104 63.7585659 C77.09218534 63.77728438 70.94766956 63.79184853 64.8031112 63.80017787 C57.70782708 63.80995461 50.61285457 63.83628564 43.51768029 63.87667876 C37.374208 63.91045505 31.23086697 63.92232094 25.08730698 63.92638206 C22.47255208 63.93126605 19.85780094 63.94293106 17.24310684 63.96142006 C13.5893468 63.98565437 9.93640784 63.98487502 6.28259277 63.97790527 C5.19672882 63.99071533 4.11086487 64.00352539 2.99209595 64.01672363 C-4.24721506 63.96622686 -4.24721506 63.96622686 -7.64285278 61.81852722 C-9.25060306 59.02319343 -9.47866085 57.28893946 -9.48937988 54.06848145 C-9.50198853 52.98055298 -9.51459717 51.89262451 -9.52758789 50.77172852 C-9.51949097 49.60186401 -9.51139404 48.43199951 -9.50305176 47.22668457 C-9.50687866 46.02104858 -9.51070557 44.8154126 -9.51464844 43.57324219 C-9.51737001 41.02460902 -9.50999181 38.47594803 -9.49328613 35.92736816 C-9.47188215 32.02260155 -9.49308179 28.11967509 -9.51867676 24.21496582 C-9.51603353 21.73970134 -9.51090865 19.264438 -9.50305176 16.78918457 C-9.51114868 15.61932007 -9.51924561 14.44945557 -9.52758789 13.24414062 C-9.51497925 12.15621216 -9.50237061 11.06828369 -9.48937988 9.9473877 C-9.48619751 8.99126587 -9.48301514 8.03514404 -9.47973633 7.05004883 C-8.43493955 1.82104306 -5.05223017 0.00877126 0 0 Z " fill="#030302" transform="translate(345.9718017578125,364.4920654296875)"/>
<path d="M0 0 C1.00100235 -0.0112793 2.0020047 -0.02255859 3.03334045 -0.03417969 C4.67144936 -0.0220343 4.67144936 -0.0220343 6.34265137 -0.00964355 C7.4974852 -0.01665283 8.65231903 -0.02366211 9.84214783 -0.03088379 C13.66482488 -0.04850909 17.48676347 -0.03682409 21.30944824 -0.02331543 C23.9621676 -0.02600902 26.61486441 -0.029884 29.26757812 -0.03491211 C34.82930524 -0.04218728 40.39081981 -0.03260447 45.95251465 -0.0135498 C52.3806011 0.00821899 58.80818006 0.0011675 65.23625422 -0.02085543 C70.75741495 -0.03901338 76.27842299 -0.04156592 81.79960394 -0.03110075 C85.09624305 -0.02486784 88.39259159 -0.02559701 91.68922424 -0.0372467 C95.36441564 -0.04738333 99.03862689 -0.03194973 102.71374512 -0.00964355 C103.80581772 -0.01774048 104.89789032 -0.0258374 106.02305603 -0.03417969 C107.52455956 -0.01726074 107.52455956 -0.01726074 109.05639648 0 C110.3593932 0.00226215 110.3593932 0.00226215 111.68871307 0.00457001 C114.82245118 0.67882635 116.03736535 2.05113149 118.02819824 4.50793457 C118.54286194 7.00535583 118.54286194 7.00535583 118.56164551 9.83972168 C118.57748184 10.9044017 118.59331818 11.96908173 118.6096344 13.06602478 C118.60467453 14.21087845 118.59971466 15.35573212 118.59460449 16.53527832 C118.60080307 17.71634659 118.60700165 18.89741486 118.61338806 20.11427307 C118.62049101 22.61161474 118.61730405 25.10900371 118.60461426 27.60632324 C118.59076169 31.42792968 118.62480158 35.24708235 118.66296387 39.06848145 C118.66391516 41.49491434 118.66205569 43.92135029 118.65710449 46.34777832 C118.6703627 47.49060776 118.68362091 48.63343719 118.69728088 49.81089783 C118.67848122 51.4126461 118.67848122 51.4126461 118.65930176 53.04675293 C118.65834 53.98288925 118.65737823 54.91902557 118.65638733 55.88352966 C117.70531864 59.85683862 116.39019407 61.17176652 113.02819824 63.50793457 C109.27988654 64.23816953 105.5925925 64.18066644 101.78381348 64.13903809 C100.64834076 64.14619339 99.51286804 64.15334869 98.34298706 64.16072083 C94.59051257 64.17762679 90.83922938 64.15819347 87.08679199 64.13684082 C84.48035076 64.13766927 81.87390958 64.14012777 79.26747131 64.14414978 C73.8058195 64.14866721 68.34451056 64.13282163 62.88293457 64.1048584 C56.57125688 64.07279155 50.26019695 64.07282927 43.9484753 64.09007317 C37.87166399 64.10594267 31.79511523 64.09910566 25.7183094 64.08213615 C23.13428314 64.0769466 20.55023908 64.07744547 17.96621513 64.08368111 C14.35814772 64.08911973 10.75113571 64.06879999 7.14318848 64.04138184 C5.53548836 64.05117065 5.53548836 64.05117065 3.89530945 64.06115723 C-3.33791899 63.96750077 -3.33791899 63.96750077 -6.60398865 61.59959412 C-8.76751683 58.29112723 -9.10690368 56.41635692 -9.14880371 52.47912598 C-9.16163895 51.43108795 -9.17447418 50.38304993 -9.18769836 49.30325317 C-9.1950853 48.16681366 -9.20247223 47.03037415 -9.21008301 45.85949707 C-9.21815475 44.69542328 -9.2262265 43.53134949 -9.23454285 42.33200073 C-9.24839093 39.86559544 -9.25910983 37.39917091 -9.26696777 34.93273926 C-9.28419949 31.1553536 -9.32808287 27.37883863 -9.37219238 23.60168457 C-9.38231729 21.20846186 -9.39083402 18.81523169 -9.39758301 16.42199707 C-9.41509109 15.28960602 -9.43259918 14.15721497 -9.45063782 12.99050903 C-9.44771225 11.93616669 -9.44478668 10.88182434 -9.44177246 9.79553223 C-9.4476387 8.86890778 -9.45350494 7.94228333 -9.45954895 6.98757935 C-8.43660374 1.78705585 -4.99883844 0.00867856 0 0 Z " fill="#030302" transform="translate(56.9718017578125,284.4920654296875)"/>
<path d="M0 0 C1.00100235 -0.0112793 2.0020047 -0.02255859 3.03334045 -0.03417969 C4.67144936 -0.0220343 4.67144936 -0.0220343 6.34265137 -0.00964355 C7.4974852 -0.01665283 8.65231903 -0.02366211 9.84214783 -0.03088379 C13.66482488 -0.04850909 17.48676347 -0.03682409 21.30944824 -0.02331543 C23.9621676 -0.02600902 26.61486441 -0.029884 29.26757812 -0.03491211 C34.82930524 -0.04218728 40.39081981 -0.03260447 45.95251465 -0.0135498 C52.3806011 0.00821899 58.80818006 0.0011675 65.23625422 -0.02085543 C70.75741495 -0.03901338 76.27842299 -0.04156592 81.79960394 -0.03110075 C85.09624305 -0.02486784 88.39259159 -0.02559701 91.68922424 -0.0372467 C95.36441564 -0.04738333 99.03862689 -0.03194973 102.71374512 -0.00964355 C103.80581772 -0.01774048 104.89789032 -0.0258374 106.02305603 -0.03417969 C107.52455956 -0.01726074 107.52455956 -0.01726074 109.05639648 0 C110.3593932 0.00226215 110.3593932 0.00226215 111.68871307 0.00457001 C114.82179834 0.67868588 116.03765258 2.0519432 118.02819824 4.50793457 C118.52267456 6.97412109 118.52267456 6.97412109 118.51403809 9.76379395 C118.52326797 11.33562439 118.52326797 11.33562439 118.53268433 12.93920898 C118.51831329 14.06532593 118.50394226 15.19144287 118.48913574 16.35168457 C118.4882193 17.51292847 118.48730286 18.67417236 118.48635864 19.87060547 C118.48031823 22.32511483 118.46455925 24.77961668 118.43981934 27.23400879 C118.40333771 30.99356209 118.39879982 34.75212909 118.39929199 38.51184082 C118.38945994 40.89596393 118.37780256 43.28008036 118.36413574 45.66418457 C118.3619101 46.79030151 118.35968445 47.91641846 118.35739136 49.07666016 C118.34463165 50.12454712 118.33187195 51.17243408 118.31872559 52.2520752 C118.30729019 53.63296326 118.30729019 53.63296326 118.29562378 55.04174805 C118.00505625 57.72134896 117.55116391 59.28685336 116.02819824 61.50793457 C113.00710999 63.37316872 110.6990314 63.76271119 107.17701721 63.78208923 C105.71554512 63.79705193 105.71554512 63.79705193 104.22454834 63.81231689 C103.162099 63.81298157 102.09964966 63.81364624 101.00500488 63.81433105 C99.88103806 63.82265457 98.75707123 63.83097809 97.5990448 63.83955383 C93.87877961 63.86367538 90.15868962 63.87242801 86.43835449 63.87902832 C83.85530036 63.88799185 81.27224677 63.89711364 78.68919373 63.90638733 C73.27296333 63.92288496 67.85680362 63.93061216 62.44055176 63.93347168 C56.1839924 63.93710846 49.92792314 63.9670167 43.67151362 64.00887626 C37.64761282 64.04776446 31.62398374 64.05906443 25.59994316 64.06019783 C23.03903988 64.06440968 20.47813653 64.07688228 17.91731453 64.09771538 C14.33803508 64.12451957 10.76011412 64.11983604 7.18078613 64.1072998 C6.12036102 64.12213409 5.05993591 64.13696838 3.96737671 64.1522522 C-0.72604147 64.10535502 -3.20195712 64.043369 -7.12939453 61.3117981 C-9.16094326 58.22008998 -9.59914373 56.70807713 -9.60290527 53.04675293 C-9.61543839 51.97892075 -9.6279715 50.91108856 -9.6408844 49.81089783 C-9.62762619 48.66806839 -9.61436798 47.52523895 -9.60070801 46.34777832 C-9.60311996 45.16575333 -9.60553192 43.98372833 -9.60801697 42.7658844 C-9.60703855 40.27028036 -9.59364662 37.7746546 -9.56872559 35.2791748 C-9.53439296 31.45559158 -9.54807553 27.63431585 -9.56750488 23.81066895 C-9.56060729 21.38552888 -9.5509357 18.96039479 -9.53820801 16.53527832 C-9.54316788 15.39042465 -9.54812775 14.24557098 -9.55323792 13.06602478 C-9.53740158 12.00134476 -9.52156525 10.93666473 -9.50524902 9.83972168 C-9.49905045 8.90438095 -9.49285187 7.96904022 -9.48646545 7.00535583 C-8.41493528 1.80572303 -5.0258244 0.00872541 0 0 Z " fill="#030302" transform="translate(345.9718017578125,284.4920654296875)"/>
<path d="M0 0 C45.21 0 90.42 0 137 0 C161 53.64705882 161 53.64705882 161 57 C160.35450195 57.0093457 159.70900391 57.01869141 159.04394531 57.02832031 C156.11186056 57.08209101 153.18135992 57.1657234 150.25 57.25 C148.72632813 57.27126953 148.72632813 57.27126953 147.171875 57.29296875 C141.40234574 57.38480921 141.40234574 57.38480921 136.359375 59.859375 C134.85110946 62.04397401 134.85110946 62.04397401 134 65 C131.22754986 65.13487595 128.46162912 65.23400807 125.6875 65.3125 C124.90181641 65.35439453 124.11613281 65.39628906 123.30664062 65.43945312 C121.10061351 65.48638987 119.1558307 65.47696388 117 65 C115.14453125 62.60546875 115.14453125 62.60546875 114 60 C110.57233744 57.71489163 110.21654246 57.8442681 106.39160156 58.55395508 C87.70619332 61.62618892 65.31331077 64.75975058 48.96509171 53.13004589 C39.84588517 46.14174251 31.81763851 37.94997631 24 29.5625 C23.08508537 28.58316687 23.08508537 28.58316687 22.15168762 27.58404922 C0 3.75578185 0 3.75578185 0 0 Z " fill="#FB7E84" transform="translate(331,187)"/>
<path d="M0 0 C45.21 0 90.42 0 137 0 C131.35552384 11.28895233 123.20429423 21.22638067 115 30.75 C114.46402317 31.3739352 113.92804634 31.99787041 113.37582779 32.64071274 C98.87162514 49.22400946 84.34005593 58.34636494 62.0920105 60.14071655 C33.44930707 61.81599893 4.51748227 59.77314436 -24 57 C-23.17574515 52.40686433 -21.56840896 48.43008508 -19.6484375 44.19921875 C-19.31131744 43.44518265 -18.97419739 42.69114655 -18.62686157 41.91426086 C-17.54771139 39.50315258 -16.4615964 37.09526041 -15.375 34.6875 C-14.3113769 32.31834411 -13.24922414 29.94853393 -12.18740845 27.5785675 C-11.52862168 26.10950881 -10.868595 24.64100499 -10.20687866 23.17326355 C-6.74212955 15.47492939 -3.3845453 7.73610354 0 0 Z " fill="#FB7E84" transform="translate(44,187)"/>
<path d="M0 0 C1.00100235 -0.0112793 2.0020047 -0.02255859 3.03334045 -0.03417969 C4.67144936 -0.0220343 4.67144936 -0.0220343 6.34265137 -0.00964355 C7.4974852 -0.01665283 8.65231903 -0.02366211 9.84214783 -0.03088379 C13.66482488 -0.04850909 17.48676347 -0.03682409 21.30944824 -0.02331543 C23.9621676 -0.02600902 26.61486441 -0.029884 29.26757812 -0.03491211 C34.82930524 -0.04218728 40.39081981 -0.03260447 45.95251465 -0.0135498 C52.3806011 0.00821899 58.80818006 0.0011675 65.23625422 -0.02085543 C70.75741495 -0.03901338 76.27842299 -0.04156592 81.79960394 -0.03110075 C85.09624305 -0.02486784 88.39259159 -0.02559701 91.68922424 -0.0372467 C95.36441564 -0.04738333 99.03862689 -0.03194973 102.71374512 -0.00964355 C103.80581772 -0.01774048 104.89789032 -0.0258374 106.02305603 -0.03417969 C107.52455956 -0.01726074 107.52455956 -0.01726074 109.05639648 0 C110.3593932 0.00226215 110.3593932 0.00226215 111.68871307 0.00457001 C114.82352014 0.67905635 116.0380986 2.04880709 118.02819824 4.50793457 C118.54286194 7.05004883 118.54286194 7.05004883 118.56164551 9.9473877 C118.57748184 11.03531616 118.59331818 12.12324463 118.6096344 13.24414062 C118.60467453 14.41400513 118.59971466 15.58386963 118.59460449 16.78918457 C118.60080307 17.99482056 118.60700165 19.20045654 118.61338806 20.44262695 C118.62049092 22.99124341 118.61730422 25.53990622 118.60461426 28.08850098 C118.59074949 31.99350105 118.62481666 35.89610572 118.66296387 39.80090332 C118.66391503 42.27616432 118.66205641 44.75142834 118.65710449 47.22668457 C118.6703627 48.39654907 118.68362091 49.56641357 118.69728088 50.77172852 C118.67848122 52.40362122 118.67848122 52.40362122 118.65930176 54.06848145 C118.65834 55.02460327 118.65737823 55.9807251 118.65638733 56.96582031 C118.02819824 59.50793457 118.02819824 59.50793457 115.91514587 61.81455994 C112.41335941 63.86857585 110.25206264 64.02047454 106.20593262 64.04138184 C105.54023758 64.04999741 104.87454254 64.05861298 104.18867493 64.06748962 C101.99936477 64.09009835 99.81133987 64.08342181 97.62194824 64.07434082 C96.09407167 64.07957842 94.56619834 64.0858554 93.03833008 64.09312439 C89.84062452 64.10351884 86.64336424 64.09898083 83.44567871 64.08435059 C79.35301357 64.0671558 75.26175148 64.09066958 71.16924286 64.12584019 C68.01555119 64.14782643 64.86219471 64.14637006 61.70845032 64.13807487 C60.19979818 64.13725616 58.69112123 64.14410443 57.18254089 64.1588459 C55.07097714 64.17631877 52.96192761 64.16173341 50.85046387 64.13903809 C49.65087036 64.13807632 48.45127686 64.13711456 47.21533203 64.13612366 C43.08871925 63.32276178 41.56937082 61.8009536 39.02819824 58.50793457 C39.02819824 54.88504425 39.29544017 52.58962505 41.34069824 49.57043457 C43.02819824 48.50793457 43.02819824 48.50793457 47.02819824 48.50793457 C47.02819824 37.61793457 47.02819824 26.72793457 47.02819824 15.50793457 C33.49819824 15.50793457 19.96819824 15.50793457 6.02819824 15.50793457 C6.02819824 26.39793457 6.02819824 37.28793457 6.02819824 48.50793457 C9.98819824 48.50793457 13.94819824 48.50793457 18.02819824 48.50793457 C22.02819824 52.50793457 22.02819824 52.50793457 22.59069824 55.44543457 C21.80813437 59.70606009 20.48884453 60.90487022 17.02819824 63.50793457 C13.51270631 64.24389151 10.10813946 64.20679856 6.52819824 64.13293457 C5.5910498 64.15227051 4.65390137 64.17160645 3.68835449 64.19152832 C2.77956543 64.18508301 1.87077637 64.1786377 0.93444824 64.17199707 C0.1126709 64.16635742 -0.70910645 64.16071777 -1.55578613 64.15490723 C-5.40901345 63.12307089 -6.68642286 61.80242883 -8.97180176 58.50793457 C-9.70605066 54.45457741 -9.64838614 50.45753222 -9.60070801 46.34777832 C-9.60311996 45.16575333 -9.60553192 43.98372833 -9.60801697 42.7658844 C-9.60703855 40.27028036 -9.59364662 37.7746546 -9.56872559 35.2791748 C-9.53439296 31.45559158 -9.54807553 27.63431585 -9.56750488 23.81066895 C-9.56060729 21.38552888 -9.5509357 18.96039479 -9.53820801 16.53527832 C-9.54316788 15.39042465 -9.54812775 14.24557098 -9.55323792 13.06602478 C-9.53740158 12.00134476 -9.52156525 10.93666473 -9.50524902 9.83972168 C-9.49905045 8.90438095 -9.49285187 7.96904022 -9.48646545 7.00535583 C-8.41493528 1.80572303 -5.0258244 0.00872541 0 0 Z " fill="#030302" transform="translate(56.9718017578125,364.4920654296875)"/>
<path d="M0 0 C8.3118235 5.95680684 15.54964896 14.28327475 17.65625 24.4921875 C18.95973362 37.55269403 18.25203982 48.31928309 10.46875 59.1796875 C4.03115824 66.93219162 -4.26636247 73.68603635 -14.57958984 74.71533203 C-28.16980511 75.56388922 -38.49700031 74.39143194 -49.2421875 65.46875 C-57.85597057 57.36731091 -62.39695758 48.9904253 -62.81445312 37.16064453 C-62.95715343 24.16302498 -60.41790029 15.1401971 -51.34375 5.4921875 C-37.44322599 -7.58153954 -16.34466186 -10.51506579 0 0 Z " fill="#FCEDAD" transform="translate(278.34375,233.5078125)"/>
<path d="M0 0 C7.23296415 5.45127151 12.02101849 11.88873328 16.39453125 19.8046875 C16.90628906 20.72507813 17.41804688 21.64546875 17.9453125 22.59375 C23.44749172 34.34206507 23.57493272 50.15688613 19.83203125 62.4921875 C18.71484375 65.1796875 18.71484375 65.1796875 17.39453125 67.8046875 C16.89695312 68.8153125 16.399375 69.8259375 15.88671875 70.8671875 C8.54942711 84.51796264 -2.67462148 93.6006485 -17.33203125 98.50390625 C-22.91290851 100.08139762 -28.26925997 100.30310476 -34.04296875 100.2421875 C-35.0585083 100.23388916 -36.07404785 100.22559082 -37.12036133 100.21704102 C-44.3063784 100.05444573 -50.23012236 99.30853641 -56.60546875 95.8046875 C-57.59417969 95.30710937 -58.58289063 94.80953125 -59.6015625 94.296875 C-73.29435629 86.9461867 -82.3955039 75.78468638 -87.30078125 61.0703125 C-88.86377328 55.53493382 -89.14337498 50.22130678 -89.10546875 44.4921875 C-89.09974854 43.4825293 -89.09402832 42.47287109 -89.08813477 41.43261719 C-88.89324584 33.26696824 -87.61837608 27.02185585 -83.60546875 19.8046875 C-82.79142578 18.33128906 -82.79142578 18.33128906 -81.9609375 16.828125 C-75.97925146 6.80913845 -68.79514888 0.43441891 -58.60546875 -5.1953125 C-57.68507812 -5.70707031 -56.7646875 -6.21882812 -55.81640625 -6.74609375 C-37.61725469 -15.26944309 -16.03818863 -10.94260015 0 0 Z M-66.41796875 20.1171875 C-74.20125857 30.97759191 -74.90895237 41.74418097 -73.60546875 54.8046875 C-71.49886771 65.01360025 -64.26104225 73.34006816 -55.94921875 79.296875 C-45.32894418 86.12925164 -32.66253097 86.6736051 -20.40625 84.14453125 C-9.23417052 80.09311781 -0.44156321 70.96561986 4.83203125 60.4921875 C8.14743142 51.34972035 8.14743142 38.25965465 4.83203125 29.1171875 C-0.44156321 18.64375514 -9.23417052 9.51625719 -20.40625 5.46484375 C-38.57583703 1.71556389 -54.37921592 5.61945537 -66.41796875 20.1171875 Z " fill="#040302" transform="translate(289.60546875,223.1953125)"/>
<path d="M0 0 C37.62 0 75.24 0 114 0 C114 5.61 114 11.22 114 17 C76.38 17 38.76 17 0 17 C0 11.39 0 5.78 0 0 Z " fill="#C5C2C6" transform="translate(199,452)"/>
<path d="M0 0 C1.85811 2.787165 3.22897347 5.46303 4.625 8.5 C5.07101562 9.4590625 5.51703125 10.418125 5.9765625 11.40625 C7 14 7 14 7 17 C6.35450195 17.0093457 5.70900391 17.01869141 5.04394531 17.02832031 C2.11186056 17.08209101 -0.81864008 17.1657234 -3.75 17.25 C-5.27367187 17.27126953 -5.27367187 17.27126953 -6.828125 17.29296875 C-12.59765426 17.38480921 -12.59765426 17.38480921 -17.640625 19.859375 C-19.14889054 22.04397401 -19.14889054 22.04397401 -20 25 C-22.77245014 25.13487595 -25.53837088 25.23400807 -28.3125 25.3125 C-29.09818359 25.35439453 -29.88386719 25.39628906 -30.69335938 25.43945312 C-32.89938649 25.48638987 -34.8441693 25.47696388 -37 25 C-38.85546875 22.60546875 -38.85546875 22.60546875 -40 20 C-43.37727537 17.74848309 -44.31832939 17.78632858 -48.24316406 17.91918945 C-49.85194427 17.96200798 -49.85194427 17.96200798 -51.4932251 18.00569153 C-52.65561707 18.04119614 -53.81800903 18.07670074 -55.015625 18.11328125 C-57.48953231 18.14660973 -59.96349863 18.17576802 -62.4375 18.20117188 C-66.33045989 18.24587642 -70.21656497 18.31131708 -74.10742188 18.44897461 C-98.03287312 19.24679592 -98.03287312 19.24679592 -106.32659912 11.59086609 C-114 3.3717507 -114 3.3717507 -114 1 C-99.1709848 0.79949419 -84.34184097 0.61616934 -69.51236153 0.45341206 C-62.62709024 0.3774419 -55.74197241 0.29580695 -48.85693359 0.20092773 C-42.21757916 0.10944996 -35.57816711 0.03363727 -28.93850327 -0.03244972 C-26.40020328 -0.06030861 -23.86195622 -0.09349521 -21.32379532 -0.13199425 C-17.77981872 -0.18485633 -14.23613011 -0.2190937 -10.69189453 -0.2487793 C-9.63310089 -0.26891586 -8.57430725 -0.28905243 -7.48342896 -0.30979919 C-6.04048462 -0.31623444 -6.04048462 -0.31623444 -4.56838989 -0.32279968 C-3.72955828 -0.33293941 -2.89072666 -0.34307913 -2.02647591 -0.35352612 C-1.35773886 -0.2368625 -0.68900181 -0.12019888 0 0 Z " fill="#E3636D" transform="translate(485,227)"/>
<path d="M0 0 C10.56 0 21.12 0 32 0 C32 18.81 32 37.62 32 57 C21.44 57 10.88 57 0 57 C0 38.19 0 19.38 0 0 Z " fill="#C28B65" transform="translate(264,380)"/>
<path d="M0 0 C10.56 0 21.12 0 32 0 C32 18.81 32 37.62 32 57 C21.44 57 10.88 57 0 57 C0 38.19 0 19.38 0 0 Z " fill="#C28B65" transform="translate(216,380)"/>
<path d="M0 0 C37.95 0.33 75.9 0.66 115 1 C113.02 3.31 111.04 5.62 109 8 C108.43616104 8.86507675 107.87232208 9.7301535 107.29139709 10.6214447 C104.67030503 14.18686809 102.15453743 16.54125488 97.71339035 17.486866 C90.47557332 18.29205554 83.20089306 18.03047417 75.93359375 17.87890625 C73.56993539 17.86210566 71.20624555 17.84930135 68.84254456 17.84031677 C62.64228726 17.80606763 56.44394863 17.71775868 50.2444458 17.61798096 C43.90997266 17.52566479 37.57518733 17.4847557 31.24023438 17.43945312 C18.82598314 17.34313244 6.41315155 17.18966734 -6 17 C-5 12 -5 12 0 0 Z " fill="#E3636D" transform="translate(26,227)"/>
<path d="M0 0 C13.53 0 27.06 0 41 0 C41 10.89 41 21.78 41 33 C39.35 33.66 37.7 34.32 36 35 C35.5771875 35.85335937 35.154375 36.70671875 34.71875 37.5859375 C33 40 33 40 29.09375 40.6640625 C27.56250213 40.67733155 26.03082545 40.66333453 24.5 40.625 C23.72785156 40.64433594 22.95570312 40.66367187 22.16015625 40.68359375 C19.90625 40.6640625 19.90625 40.6640625 16 40 C14.03125 37.5234375 14.03125 37.5234375 13 35 C9.89982079 31.89982079 4.36917099 33.36409758 0 33 C0 22.11 0 11.22 0 0 Z " fill="#D9E8FD" transform="translate(63,380)"/>
<path d="M0 0 C13.53 0 27.06 0 41 0 C41 11.22 41 22.44 41 34 C27.47 34 13.94 34 0 34 C0 22.78 0 11.56 0 0 Z " fill="#CEDCEF" transform="translate(119,299)"/>
<path d="M0 0 C13.53 0 27.06 0 41 0 C41 11.22 41 22.44 41 34 C27.47 34 13.94 34 0 34 C0 22.78 0 11.56 0 0 Z " fill="#D2E0F4" transform="translate(352,299)"/>
<path d="M0 0 C13.53 0 27.06 0 41 0 C41 10.89 41 21.78 41 33 C27.47 33 13.94 33 0 33 C0 22.11 0 11.22 0 0 Z " fill="#D8E6FA" transform="translate(408,380)"/>
<path d="M0 0 C13.53 0 27.06 0 41 0 C41 10.89 41 21.78 41 33 C27.47 33 13.94 33 0 33 C0 22.11 0 11.22 0 0 Z " fill="#D6E5F9" transform="translate(119,380)"/>
<path d="M0 0 C13.53 0 27.06 0 41 0 C41 10.89 41 21.78 41 33 C27.47 33 13.94 33 0 33 C0 22.11 0 11.22 0 0 Z " fill="#D8E6FB" transform="translate(352,380)"/>
<path d="M0 0 C13.53 0 27.06 0 41 0 C41 10.89 41 21.78 41 33 C27.47 33 13.94 33 0 33 C0 22.11 0 11.22 0 0 Z " fill="#D6E4F8" transform="translate(408,300)"/>
<path d="M0 0 C13.53 0 27.06 0 41 0 C41 10.89 41 21.78 41 33 C27.47 33 13.94 33 0 33 C0 22.11 0 11.22 0 0 Z " fill="#D7E6FA" transform="translate(63,300)"/>
<path d="M0 0 C13.53 0 27.06 0 41 0 C41 8.25 41 16.5 41 25 C27.47 25 13.94 25 0 25 C0 16.75 0 8.5 0 0 Z " fill="#FA7D83" transform="translate(264,43)"/>
<path d="M0 0 C2.17906119 1.4708663 3.34855119 3.14519787 4.875 5.265625 C4.24932129 5.55808105 3.62364258 5.85053711 2.97900391 6.15185547 C0.15055438 7.47698486 -2.67473733 8.80871545 -5.5 10.140625 C-6.48484375 10.60082031 -7.4696875 11.06101562 -8.484375 11.53515625 C-9.42539062 11.97988281 -10.36640625 12.42460937 -11.3359375 12.8828125 C-12.20524902 13.29128418 -13.07456055 13.69975586 -13.97021484 14.12060547 C-16.25371104 15.19926008 -16.25371104 15.19926008 -18.125 17.265625 C-18.60846287 21.20401913 -18.49539526 25.17594078 -18.5 29.140625 C-18.52449219 30.24277344 -18.54898438 31.34492188 -18.57421875 32.48046875 C-18.57808594 33.54136719 -18.58195312 34.60226562 -18.5859375 35.6953125 C-18.59826416 37.15300049 -18.59826416 37.15300049 -18.61083984 38.64013672 C-17.99784548 41.9527706 -16.66337945 43.1384668 -14.125 45.265625 C-20.96851939 44.71814345 -24.57196721 42.39315233 -29.75 38.078125 C-34.89838427 31.98135415 -36.86268134 25.87449472 -36.49609375 17.8984375 C-35.40789921 10.1779836 -31.16535583 5.92694435 -25.44140625 0.9296875 C-17.57820388 -4.71908857 -8.46162354 -3.91972267 0 0 Z " fill="#FBFBFA" transform="translate(268.125,246.734375)"/>
<path d="M0 0 C2 1 2 1 3 3 C3.39213267 6.0880448 3.61215045 8.04727429 3 11 C0.76635344 13.60592099 -1.27170306 14.76324712 -4.5234375 15.8203125 C-7.56671306 16.92775088 -9.61543764 17.7835515 -12 20 C-12.87254501 24.06740214 -12.94202342 27.44080642 -12.83984375 31.6015625 C-13 35 -13 35 -14.25390625 36.9375 C-16.33156719 38.201759 -17.57727898 38.40253092 -20 38.375 C-21.0209375 38.38660156 -21.0209375 38.38660156 -22.0625 38.3984375 C-24.63254972 37.86991921 -25.39471487 37.0664428 -27 35 C-27.66829763 31.05276998 -27.50935639 27.06001775 -27.5 23.0625 C-27.52835938 21.96486328 -27.55671875 20.86722656 -27.5859375 19.73632812 C-27.6054903 11.72456632 -27.6054903 11.72456632 -24.89453125 8.48046875 C-23.93933594 7.99191406 -22.98414063 7.50335938 -22 7 C-20.92105469 6.36578125 -19.84210938 5.7315625 -18.73046875 5.078125 C-6.50882683 -1.22808053 -6.50882683 -1.22808053 0 0 Z " fill="#030303" transform="translate(276,253)"/>
<path d="M0 0 C13.2 0 26.4 0 40 0 C40 5.28 40 10.56 40 16 C26.8 16 13.6 16 0 16 C0 10.72 0 5.44 0 0 Z " fill="#EDF4FF" transform="translate(408,380)"/>
<path d="M0 0 C13.2 0 26.4 0 40 0 C40 5.28 40 10.56 40 16 C26.8 16 13.6 16 0 16 C0 10.72 0 5.44 0 0 Z " fill="#EDF4FF" transform="translate(120,380)"/>
<path d="M0 0 C13.2 0 26.4 0 40 0 C40 5.28 40 10.56 40 16 C26.8 16 13.6 16 0 16 C0 10.72 0 5.44 0 0 Z " fill="#EDF4FF" transform="translate(408,300)"/>
<path d="M0 0 C13.2 0 26.4 0 40 0 C40 5.28 40 10.56 40 16 C26.8 16 13.6 16 0 16 C0 10.72 0 5.44 0 0 Z " fill="#EDF4FF" transform="translate(120,300)"/>
<path d="M0 0 C5.28 0 10.56 0 16 0 C16 8.25 16 16.5 16 25 C10.72 25 5.44 25 0 25 C0 16.75 0 8.5 0 0 Z " fill="#E4636D" transform="translate(264,43)"/>
<path d="M0 0 C7.92 0 15.84 0 24 0 C24 5.28 24 10.56 24 16 C9.9375 16.66964286 9.9375 16.66964286 5.8125 13.8125 C3.22310785 11.22310785 1.39705635 9.3693712 0 6 C0 4.02 0 2.04 0 0 Z " fill="#ECF3FF" transform="translate(80,380)"/>
<path d="M0 0 C7.92 0 15.84 0 24 0 C24 5.28 24 10.56 24 16 C9.5391589 16.59632334 9.5391589 16.59632334 4 12 C0.85165282 8.02214817 0 5.19679378 0 0 Z " fill="#ECF3FF" transform="translate(80,300)"/>
<path d="M0 0 C7.92 0 15.84 0 24 0 C24 5.28 24 10.56 24 16 C12.03131524 16.48851775 12.03131524 16.48851775 7.4375 14.3125 C2.13914208 9.28585274 1.09997593 7.69983148 0 0 Z " fill="#ECF3FF" transform="translate(368,380)"/>
<path d="M0 0 C7.92 0 15.84 0 24 0 C24 5.28 24 10.56 24 16 C12.06772334 16.4870317 12.06772334 16.4870317 7.4375 14.375 C2.64764238 9.70795924 1.1173583 6.70414983 0 0 Z " fill="#ECF3FF" transform="translate(368,300)"/>
<path d="M0 0 C0.33 0 0.66 0 1 0 C1.54323923 7.22809973 0.82368677 12.75093262 -3 19 C-5.5 21.875 -5.5 21.875 -8 24 C-8.5775 24.556875 -9.155 25.11375 -9.75 25.6875 C-13.2437867 27.72554224 -17.05060573 28.28269549 -21 29 C-20.33742188 28.48953125 -19.67484375 27.9790625 -18.9921875 27.453125 C-16.25304577 24.08022107 -16.85701167 22.02052364 -17.125 17.75 C-17.1542527 14.337322 -17.1030297 11.1627166 -14.62841797 8.55419922 C-10.72924987 5.74040069 -6.38193765 3.92805256 -2 2 C-1.34 1.34 -0.68 0.68 0 0 Z " fill="#F7F7F6" transform="translate(279,263)"/>
</svg>
