<?xml version="1.0" encoding="UTF-8"?>
<svg version="1.1" xmlns="http://www.w3.org/2000/svg" width="512" height="512">
<path d="M0 0 C73.26 0 146.52 0 222 0 C222 17.82 222 35.64 222 54 C215.07 54 208.14 54 201 54 C201 63.9 201 73.8 201 84 C235.32 84 269.64 84 305 84 C305 101.82 305 119.64 305 138 C298.07 138 291.14 138 284 138 C284 200.04 284 262.08 284 326 C169.49 326 54.98 326 -63 326 C-63 263.96 -63 201.92 -63 138 C-69.6 138 -76.2 138 -83 138 C-83 120.18 -83 102.36 -83 84 C-48.68 84 -14.36 84 21 84 C21 74.1 21 64.2 21 54 C14.07 54 7.14 54 0 54 C0 36.18 0 18.36 0 0 Z " fill="#442A4F" transform="translate(145,93)"/>
<path d="M0 0 C51.48 0 102.96 0 156 0 C156 85.8 156 171.6 156 260 C104.52 260 53.04 260 0 260 C0 174.2 0 88.4 0 0 Z " fill="#93D0CA" transform="translate(178,147)"/>
<path d="M0 0 C23.76 0 47.52 0 72 0 C72 58.08 72 116.16 72 176 C67.38 176 62.76 176 58 176 C58 158.51 58 141.02 58 123 C43.81 123 29.62 123 15 123 C15 140.49 15 157.98 15 176 C10.05 176 5.1 176 0 176 C0 117.92 0 59.84 0 0 Z " fill="#93CDC8" transform="translate(345,231)"/>
<path d="M0 0 C23.43 0 46.86 0 71 0 C71 57.75 71 115.5 71 175 C66.71 175 62.42 175 58 175 C58 157.84 58 140.68 58 123 C43.48 123 28.96 123 14 123 C14 140.49 14 157.98 14 176 C9.38 176 4.76 176 0 176 C0 117.92 0 59.84 0 0 Z " fill="#92D0CA" transform="translate(95,231)"/>
<path d="M0 0 C14.52 0 29.04 0 44 0 C44 8.91 44 17.82 44 27 C52.58 27 61.16 27 70 27 C70 41.19 70 55.38 70 70 C61.09 70 52.18 70 43 70 C43 78.58 43 87.16 43 96 C29.14 96 15.28 96 1 96 C1 87.42 1 78.84 1 70 C-7.91 70 -16.82 70 -26 70 C-26 55.81 -26 41.62 -26 27 C-17.42 27 -8.84 27 0 27 C0 18.09 0 9.18 0 0 Z " fill="#472C51" transform="translate(234,155)"/>
<path d="M0 0 C65.34 0 130.68 0 198 0 C198 9.9 198 19.8 198 30 C132.66 30 67.32 30 0 30 C0 20.1 0 10.2 0 0 Z " fill="#8B376C" transform="translate(157,105)"/>
<path d="M0 0 C2.31 0 4.62 0 7 0 C7 83.16 7 166.32 7 252 C55.51 252 104.02 252 154 252 C154 254.31 154 256.62 154 259 C103.18 259 52.36 259 0 259 C0 173.53 0 88.06 0 0 Z " fill="#E7E5F3" transform="translate(179,147)"/>
<path d="M0 0 C30.69 0 61.38 0 93 0 C93 9.9 93 19.8 93 30 C62.31 30 31.62 30 0 30 C0 20.1 0 10.2 0 0 Z " fill="#8E3B6F" transform="translate(345,189)"/>
<path d="M0 0 C30.69 0 61.38 0 93 0 C93 9.9 93 19.8 93 30 C62.31 30 31.62 30 0 30 C0 20.1 0 10.2 0 0 Z " fill="#8E3F71" transform="translate(74,189)"/>
<path d="M0 0 C5.94 0 11.88 0 18 0 C18 8.58 18 17.16 18 26 C26.91 26 35.82 26 45 26 C45 32.27 45 38.54 45 45 C36.09 45 27.18 45 18 45 C18 53.58 18 62.16 18 71 C12.06 71 6.12 71 0 71 C0 62.42 0 53.84 0 45 C-8.91 45 -17.82 45 -27 45 C-27 38.73 -27 32.46 -27 26 C-18.09 26 -9.18 26 0 26 C0 17.42 0 8.84 0 0 Z " fill="#EA6A68" transform="translate(247,168)"/>
<path d="M0 0 C14.52 0 29.04 0 44 0 C44 14.52 44 29.04 44 44 C29.48 44 14.96 44 0 44 C0 29.48 0 14.96 0 0 Z " fill="#473054" transform="translate(276,281)"/>
<path d="M0 0 C14.52 0 29.04 0 44 0 C44 14.52 44 29.04 44 44 C29.48 44 14.96 44 0 44 C0 29.48 0 14.96 0 0 Z " fill="#472F53" transform="translate(192,281)"/>
<path d="M0 0 C14.52 0 29.04 0 44 0 C44.020625 7.074375 44.04125 14.14875 44.0625 21.4375 C44.071604 23.67329834 44.08070801 25.90909668 44.09008789 28.21264648 C44.09300696 29.97379496 44.09555554 31.73494411 44.09765625 33.49609375 C44.10277222 34.41942505 44.10788818 35.34275635 44.11315918 36.29406738 C44.11334045 37.60341248 44.11334045 37.60341248 44.11352539 38.93920898 C44.115746 39.70087875 44.11796661 40.46254852 44.12025452 41.24729919 C44 43 44 43 43 44 C41.64905018 44.09268999 40.29332909 44.11747326 38.93920898 44.11352539 C38.06631226 44.11340454 37.19341553 44.11328369 36.29406738 44.11315918 C34.90907043 44.10548523 34.90907043 44.10548523 33.49609375 44.09765625 C32.6517981 44.09664917 31.80750244 44.09564209 30.93762207 44.09460449 C27.77090098 44.0893557 24.60419919 44.07539456 21.4375 44.0625 C14.363125 44.041875 7.28875 44.02125 0 44 C0 29.48 0 14.96 0 0 Z " fill="#472F53" transform="translate(192,349)"/>
<path d="M0 0 C14.19 0 28.38 0 43 0 C43 14.52 43 29.04 43 44 C28.81 44 14.62 44 0 44 C0 29.48 0 14.96 0 0 Z " fill="#462D52" transform="translate(360,239)"/>
<path d="M0 0 C14.19 0 28.38 0 43 0 C43 14.19 43 28.38 43 43 C28.81 43 14.62 43 0 43 C0 28.81 0 14.62 0 0 Z " fill="#452A50" transform="translate(276,349)"/>
<path d="M0 0 C14.19 0 28.38 0 43 0 C43 14.19 43 28.38 43 43 C28.81 43 14.62 43 0 43 C0 28.81 0 14.62 0 0 Z " fill="#452A50" transform="translate(360,302)"/>
<path d="M0 0 C14.19 0 28.38 0 43 0 C43 14.19 43 28.38 43 43 C28.81 43 14.62 43 0 43 C0 28.81 0 14.62 0 0 Z " fill="#452A50" transform="translate(109,302)"/>
<path d="M0 0 C14.19 0 28.38 0 43 0 C43 14.19 43 28.38 43 43 C28.81 43 14.62 43 0 43 C0 28.81 0 14.62 0 0 Z " fill="#452A50" transform="translate(109,240)"/>
<path d="M0 0 C2.64 0 5.28 0 8 0 C8 7.26 8 14.52 8 22 C70.37 22 132.74 22 197 22 C197 24.64 197 27.28 197 30 C131.99 30 66.98 30 0 30 C0 20.1 0 10.2 0 0 Z " fill="#E5E3F1" transform="translate(157,105)"/>
<path d="M0 0 C2.64 0 5.28 0 8 0 C8 55.44 8 110.88 8 168 C9.98 168 11.96 168 14 168 C14 170.64 14 173.28 14 176 C9.38 176 4.76 176 0 176 C0 117.92 0 59.84 0 0 Z " fill="#E5E4F2" transform="translate(95,231)"/>
<path d="M0 0 C2.31 0 4.62 0 7 0 C7 55.44 7 110.88 7 168 C8.98 168 10.96 168 13 168 C13 170.31 13 172.62 13 175 C8.71 175 4.42 175 0 175 C0 117.25 0 59.5 0 0 Z " fill="#E8E6F4" transform="translate(346,231)"/>
<path d="M0 0 C2.64 0 5.28 0 8 0 C8 7.26 8 14.52 8 22 C36.05 22 64.1 22 93 22 C93 24.64 93 27.28 93 30 C62.31 30 31.62 30 0 30 C0 20.1 0 10.2 0 0 Z " fill="#DEDAEA" transform="translate(345,189)"/>
<path d="M0 0 C2.64 0 5.28 0 8 0 C8 7.26 8 14.52 8 22 C35.72 22 63.44 22 92 22 C92 24.31 92 26.62 92 29 C61.64 29 31.28 29 0 29 C0 19.43 0 9.86 0 0 Z " fill="#E7E5F3" transform="translate(74,189)"/>
<path d="M0 0 C6.6 0 13.2 0 20 0 C20 13.2 20 26.4 20 40 C13.4 40 6.8 40 0 40 C0 26.8 0 13.6 0 0 Z " fill="#8277B7" transform="translate(121,366)"/>
<path d="M0 0 C6.27 0 12.54 0 19 0 C19 13.2 19 26.4 19 40 C12.73 40 6.46 40 0 40 C0 26.8 0 13.6 0 0 Z " fill="#8378B8" transform="translate(372,366)"/>
<path d="M0 0 C6.6 0 13.2 0 20 0 C20 6.6 20 13.2 20 20 C13.4 20 6.8 20 0 20 C0 13.4 0 6.8 0 0 Z " fill="#7F73B1" transform="translate(204,293)"/>
<path d="M0 0 C6.6 0 13.2 0 20 0 C20.020625 3.114375 20.04125 6.22875 20.0625 9.4375 C20.071604 10.42032959 20.08070801 11.40315918 20.09008789 12.41577148 C20.09258545 13.18477783 20.09508301 13.95378418 20.09765625 14.74609375 C20.10551147 15.93223267 20.10551147 15.93223267 20.11352539 17.14233398 C20 19 20 19 19 20 C17.58429877 20.08651611 16.164405 20.10704904 14.74609375 20.09765625 C13.9770874 20.09515869 13.20808105 20.09266113 12.41577148 20.09008789 C11.43294189 20.08098389 10.4501123 20.07187988 9.4375 20.0625 C4.7659375 20.0315625 4.7659375 20.0315625 0 20 C0 13.4 0 6.8 0 0 Z " fill="#7F73B2" transform="translate(204,361)"/>
<path d="M0 0 C6.27 0 12.54 0 19 0 C19 6.27 19 12.54 19 19 C12.73 19 6.46 19 0 19 C0 12.73 0 6.46 0 0 Z " fill="#8378B7" transform="translate(288,361)"/>
<path d="M0 0 C6.27 0 12.54 0 19 0 C19 6.27 19 12.54 19 19 C12.73 19 6.46 19 0 19 C0 12.73 0 6.46 0 0 Z " fill="#8378B8" transform="translate(372,314)"/>
<path d="M0 0 C6.27 0 12.54 0 19 0 C19 6.27 19 12.54 19 19 C12.73 19 6.46 19 0 19 C0 12.73 0 6.46 0 0 Z " fill="#8378B8" transform="translate(121,314)"/>
<path d="M0 0 C6.27 0 12.54 0 19 0 C19 6.27 19 12.54 19 19 C12.73 19 6.46 19 0 19 C0 12.73 0 6.46 0 0 Z " fill="#8277B7" transform="translate(288,293)"/>
<path d="M0 0 C6.27 0 12.54 0 19 0 C19 6.27 19 12.54 19 19 C12.73 19 6.46 19 0 19 C0 12.73 0 6.46 0 0 Z " fill="#8378B7" transform="translate(372,252)"/>
<path d="M0 0 C6.27 0 12.54 0 19 0 C19 6.27 19 12.54 19 19 C12.73 19 6.46 19 0 19 C0 12.73 0 6.46 0 0 Z " fill="#8378B7" transform="translate(121,252)"/>
<path d="M0 0 C4.62 0 9.24 0 14 0 C14 2.64 14 5.28 14 8 C9.38 8 4.76 8 0 8 C0 5.36 0 2.72 0 0 Z " fill="#DEDAEA" transform="translate(403,399)"/>
<path d="M0 0 C4.29 0 8.58 0 13 0 C13 2.31 13 4.62 13 7 C8.71 7 4.42 7 0 7 C0 4.69 0 2.38 0 0 Z " fill="#E8E6F4" transform="translate(153,399)"/>
</svg>
