<?xml version="1.0" encoding="UTF-8"?>
<svg version="1.1" xmlns="http://www.w3.org/2000/svg" width="512" height="512">
<path d="M0 0 C1.24199661 0.41223816 2.48399323 0.82447632 3.7636261 1.24920654 C6.38095069 2.11923233 8.9952612 2.99763929 11.60766602 3.88232422 C14.94473218 5.01176298 18.28813037 6.12089748 21.63399029 7.22397232 C24.84284457 8.28471368 28.04615077 9.36173429 31.25 10.4375 C32.44590256 10.83245667 33.64180511 11.22741333 34.87394714 11.63433838 C35.98893082 12.01443054 37.10391449 12.39452271 38.25268555 12.78613281 C39.23005173 13.11478333 40.20741791 13.44343384 41.21440125 13.78204346 C44.27374131 15.13867405 46.47625529 16.70993972 48.92578125 18.984375 C49.83601844 21.71508657 50.0521046 23.30900735 50.05517578 26.11694336 C50.05832794 26.94467758 50.0614801 27.7724118 50.06472778 28.62522888 C50.06169144 29.96122887 50.06169144 29.96122887 50.05859375 31.32421875 C50.06002884 32.70197227 50.06002884 32.70197227 50.06149292 34.1075592 C50.06217342 36.05014108 50.0603282 37.99272523 50.05615234 39.93530273 C50.05080838 42.90679039 50.0560986 45.87812647 50.0625 48.84960938 C50.06183908 50.7369795 50.06055762 52.62434953 50.05859375 54.51171875 C50.06061798 55.40036118 50.06264221 56.2890036 50.06472778 57.20457458 C50.06157562 58.03546097 50.05842346 58.86634735 50.05517578 59.72241211 C50.05398239 60.81470375 50.05398239 60.81470375 50.05276489 61.92906189 C49.92126739 64.05743481 49.46672452 65.92691998 48.92578125 67.984375 C49.86945903 67.98160962 50.81313681 67.97884424 51.78541088 67.97599506 C74.73644711 67.90942631 97.68747084 67.86011193 120.63858318 67.82893848 C131.73752458 67.81346294 142.83640224 67.79236025 153.93530273 67.75805664 C163.60796059 67.72817538 173.28057229 67.708805 182.95327502 67.70210952 C188.07593518 67.69819511 193.19846329 67.68898136 198.32108116 67.66718483 C203.14156244 67.64683984 207.96185711 67.6405372 212.78237724 67.64505196 C214.55248783 67.64422587 216.32260458 67.6382484 218.09267807 67.62675858 C220.50840093 67.61184543 222.92341811 67.61541687 225.3391571 67.62361145 C226.04052738 67.61487293 226.74189766 67.6061344 227.46452159 67.59713107 C231.77824734 67.63671705 234.49051088 68.34837349 237.92578125 70.984375 C239.62668499 74.38618249 239.13241441 78.2635006 239.1640625 82.0078125 C239.17213425 82.90553375 239.18020599 83.803255 239.18852234 84.72817993 C239.20236416 86.62963935 239.21308588 88.53112364 239.22094727 90.43261719 C239.23817226 93.34097284 239.28205816 96.24819532 239.32617188 99.15625 C239.3362977 101.0025958 239.34481415 102.84895127 239.3515625 104.6953125 C239.36907059 105.5652182 239.38657867 106.4351239 239.40461731 107.33139038 C239.38288398 113.37909094 239.38288398 113.37909094 237.02416992 116.50244141 C227.19394622 123.44478671 224.43707363 118.984375 205.92578125 118.984375 C206.42078125 286.789375 206.42078125 286.789375 206.92578125 457.984375 C210.55578125 459.304375 214.18578125 460.624375 217.92578125 461.984375 C227.69595752 468.70930152 234.76794212 476.39017587 238.5390625 487.84765625 C239.09175026 490.9013957 239.21535983 493.88292041 239.30078125 496.984375 C239.34976563 498.20125 239.39875 499.418125 239.44921875 500.671875 C238.92578125 503.984375 238.92578125 503.984375 236.92179161 506.15994596 C233.07188329 508.50435859 229.83919727 508.53940032 225.46617794 508.48773956 C224.61235514 508.49355333 223.75853234 508.49936709 222.87883613 508.50535703 C220.00413999 508.52001029 217.13029056 508.50604695 214.25559998 508.49230957 C212.17935643 508.49691637 210.10311614 508.50326779 208.02688271 508.51121855 C202.310822 508.52796518 196.59502734 508.51964124 190.8789655 508.50727367 C184.71870983 508.49824738 178.55850087 508.51218083 172.39825439 508.52319336 C161.02456342 508.5399784 149.65098128 508.53848681 138.27729298 508.52754749 C127.77138609 508.51749217 117.2655104 508.51485523 106.75959969 508.51963806 C106.06319145 508.5199436 105.36678322 508.52024914 104.64927171 508.52056394 C101.82245873 508.52180926 98.99564577 508.52308285 96.16883283 508.524403 C69.6428323 508.53664333 43.11688601 508.52553805 16.59089385 508.50401541 C-6.98687781 508.4850304 -30.56456307 508.48673274 -54.14233398 508.50585938 C-80.62078281 508.52726719 -107.09918372 508.5357774 -133.57764 508.52341032 C-136.3990443 508.52212741 -139.22044862 508.52087605 -142.04185295 508.51963806 C-142.73657545 508.51932175 -143.43129795 508.51900544 -144.14707264 508.51867955 C-154.64825344 508.51412543 -165.14939963 508.51945857 -175.65057564 508.52955627 C-187.58748052 508.54097719 -199.52428331 508.53778216 -211.46118421 508.5164333 C-217.5558004 508.50589379 -223.65024085 508.50185042 -229.74485588 508.51502991 C-235.31784618 508.52689948 -240.8904969 508.52048133 -246.46345615 508.4991197 C-248.48556832 508.49463052 -250.50770886 508.49697133 -252.52980299 508.50662285 C-255.26710218 508.51869157 -258.00322031 508.50640945 -260.74045658 508.48773956 C-261.93302928 508.50178656 -261.93302928 508.50178656 -263.14969435 508.51611733 C-266.67231205 508.4677093 -268.69174871 508.26724043 -271.56187576 506.14456511 C-274.81367919 501.49977643 -273.63053104 495.37544254 -273.07421875 489.984375 C-270.7518802 479.2658894 -264.07195799 470.18600404 -255.07421875 463.984375 C-246.52924521 458.984375 -246.52924521 458.984375 -241.07421875 458.984375 C-241.07421875 346.784375 -241.07421875 234.584375 -241.07421875 118.984375 C-249.65421875 118.984375 -258.23421875 118.984375 -267.07421875 118.984375 C-272.07421875 115.984375 -272.07421875 115.984375 -273.07421875 113.984375 C-273.19794275 110.96888369 -273.26267508 107.97743476 -273.27734375 104.9609375 C-273.28304382 104.06321625 -273.2887439 103.165495 -273.2946167 102.24057007 C-273.3040717 100.33910299 -273.31060266 98.4376195 -273.31445312 96.53613281 C-273.32415672 93.62796412 -273.35517431 90.72050268 -273.38671875 87.8125 C-273.39324897 85.96615004 -273.39849937 84.11979501 -273.40234375 82.2734375 C-273.41469055 81.4035318 -273.42703735 80.5336261 -273.4397583 79.63735962 C-273.41762391 73.63307112 -273.41762391 73.63307112 -271.74121094 70.46630859 C-268.23248547 67.34709893 -264.14245815 67.84593837 -259.72810364 67.86412048 C-258.59719827 67.86283885 -258.59719827 67.86283885 -257.44344634 67.86153132 C-254.90994613 67.85988046 -252.37651172 67.86539146 -249.84301758 67.87084961 C-248.02979026 67.87113159 -246.21656282 67.87097353 -244.40333557 67.8704071 C-239.47390841 67.87011956 -234.54450546 67.87600934 -229.61508393 67.88298106 C-224.46610273 67.88922176 -219.317121 67.88981897 -214.1681366 67.89100647 C-204.41467374 67.89411766 -194.66122206 67.90232822 -184.90776414 67.91235596 C-173.80512618 67.92352365 -162.7024877 67.9290292 -151.59984553 67.93405139 C-128.75796373 67.94451099 -105.91609187 67.96210636 -83.07421875 67.984375 C-83.40421875 66.994375 -83.73421875 66.004375 -84.07421875 64.984375 C-84.17457592 63.58410681 -84.22243613 62.17967938 -84.23535156 60.77587891 C-84.24495911 59.93135162 -84.25456665 59.08682434 -84.26446533 58.21670532 C-84.27084015 56.85260025 -84.27084015 56.85260025 -84.27734375 55.4609375 C-84.28304382 54.52261078 -84.2887439 53.58428406 -84.2946167 52.61752319 C-84.30406269 50.63207119 -84.31059909 48.64660354 -84.31445312 46.66113281 C-84.32415923 43.62797636 -84.35518661 40.59549744 -84.38671875 37.5625 C-84.39324898 35.63281652 -84.39849937 33.7031282 -84.40234375 31.7734375 C-84.41469055 30.86808258 -84.42703735 29.96272766 -84.4397583 29.02993774 C-84.40958944 20.47686382 -84.40958944 20.47686382 -81.07421875 16.984375 C-74.6918993 13.27353802 -67.28456462 11.21779141 -60.3203125 8.875 C-59.22002213 8.50332703 -58.11973175 8.13165405 -56.98609924 7.74871826 C-54.67327943 6.96983718 -52.35961925 6.19344746 -50.04516602 5.41943359 C-46.51492964 4.23545188 -42.99094743 3.0339872 -39.46679688 1.83203125 C-37.20999907 1.07443668 -34.95284907 0.31789028 -32.6953125 -0.4375 C-31.64927353 -0.79680603 -30.60323456 -1.15611206 -29.52549744 -1.52630615 C-18.16078471 -5.2798528 -11.16037266 -3.78056425 0 0 Z " fill="#010000" transform="translate(273.07421875,4.015625)"/>
<path d="M0 0 C21.04491713 -0.28080768 42.0895237 -0.49216753 63.13593674 -0.62174606 C72.90913412 -0.68352205 82.68116492 -0.76768116 92.45361328 -0.90527344 C100.97527252 -1.02519749 109.49608669 -1.102372 118.01856637 -1.12906194 C122.52821037 -1.14465563 127.03543774 -1.18107087 131.54430389 -1.26876068 C135.79685106 -1.3507882 140.04600935 -1.37523109 144.29927254 -1.35729218 C145.85215052 -1.36056884 147.40515263 -1.3841143 148.95734215 -1.4304657 C155.41474004 -1.61368677 161.36861033 -1.68976022 166.53662872 2.66008759 C168.68827253 4.70870428 170.64708275 6.86728065 172.56212234 9.13679123 C177.26927982 14.66519604 183.61843299 17.72505498 190 21 C190.62793457 21.32291016 191.25586914 21.64582031 191.90283203 21.97851562 C199.5149262 25.79344842 205.50163443 28.07267703 213.94116211 25.38085938 C215.91327613 24.63187271 217.82908375 23.80925643 219.75 22.9375 C220.44029297 22.62876953 221.13058594 22.32003906 221.84179688 22.00195312 C231.1937943 17.68498114 243.87076403 11.16496731 249.19438648 1.92752457 C251 0 251 0 253.89915752 -0.49219131 C255.09103585 -0.48850414 256.28291418 -0.48481697 257.51091003 -0.48101807 C258.50705817 -0.48614462 258.50705817 -0.48614462 259.52333051 -0.49137473 C261.75321327 -0.49797432 263.98189771 -0.47594546 266.21166992 -0.45410156 C267.80815096 -0.45297352 269.40463407 -0.45360609 271.00111389 -0.45587158 C275.33982186 -0.45702137 279.67808937 -0.43346952 284.01669478 -0.40557575 C288.54905588 -0.38060602 293.08142656 -0.3782236 297.61384583 -0.37347412 C306.198674 -0.36103129 314.78329893 -0.32819205 323.36803752 -0.28807616 C334.9671162 -0.23504861 346.56625029 -0.21342354 358.16541958 -0.19006729 C376.44376535 -0.15243152 394.72168219 -0.07274952 413 0 C413 51.81 413 103.62 413 157 C360.53065631 157.02202501 308.06131696 157.04049701 255.59196997 157.05106533 C249.40449364 157.05231611 243.21701733 157.05361043 237.02954102 157.05493164 C235.18173455 157.05532511 235.18173455 157.05532511 233.29659867 157.05572652 C213.32217249 157.06008375 193.34774918 157.06797158 173.3733247 157.0771528 C152.89410532 157.08648788 132.41488744 157.0920553 111.93566602 157.09408849 C99.2879721 157.09546402 86.64028627 157.09981623 73.99259483 157.10791647 C65.33224478 157.11318214 56.67189894 157.11480471 48.01154739 157.11350138 C43.00698444 157.11285772 38.00243568 157.11387866 32.99787521 157.11920547 C28.42418671 157.12403843 23.85052207 157.12433934 19.27683251 157.12089889 C17.61464488 157.1204731 15.95245582 157.12176971 14.29027105 157.12488318 C12.04595225 157.12884553 9.80172171 157.12676443 7.55740452 157.12304783 C6.30622603 157.12342755 5.05504754 157.12380727 3.76595455 157.1241985 C1 157 1 157 0 156 C-0.09674566 153.98771955 -0.12187008 151.97198631 -0.12025452 149.9573822 C-0.12162918 148.64339951 -0.12300385 147.32941681 -0.12442017 145.97561646 C-0.12088054 144.50579812 -0.11724573 143.03598 -0.11352539 141.56616211 C-0.11324353 140.02908836 -0.11340123 138.49201447 -0.1139679 136.9549408 C-0.11425591 132.7691714 -0.10835852 128.58343041 -0.10139394 124.39766765 C-0.09516109 120.02809844 -0.09455666 115.65852865 -0.09336853 111.28895569 C-0.09025501 103.00872953 -0.08204135 94.7285165 -0.07201904 86.44829613 C-0.06085854 77.02402841 -0.05534761 67.59976008 -0.05032361 58.1754874 C-0.03985875 38.78365081 -0.02225891 19.39182646 0 0 Z " fill="#B26E55" transform="translate(49,122)"/>
<path d="M0 0 C136.29 0 272.58 0 413 0 C413 55.11 413 110.22 413 167 C369.77 167 326.54 167 282 167 C281.97421875 156.94015625 281.9484375 146.8803125 281.921875 136.515625 C281.89671731 130.15362619 281.87055656 123.7916579 281.83984375 117.4296875 C281.79125126 107.32519726 281.7468284 97.22080856 281.72900391 87.11621094 C281.71600465 79.7576893 281.68908442 72.39937345 281.64538693 65.0409677 C281.62273297 61.14403412 281.60709165 57.24735471 281.60811615 53.35034943 C281.60886047 49.68287447 281.59100284 46.01596221 281.55883217 42.34863281 C281.54624169 40.35988264 281.55341501 38.3710382 281.56114197 36.38226318 C281.54027275 34.60704285 281.54027275 34.60704285 281.51898193 32.79595947 C281.51529476 31.7672385 281.51160759 30.73851753 281.50780869 29.6786232 C280.85004175 26.2089902 279.85753317 25.04616248 277 23 C274.25700288 22.40400728 274.25700288 22.40400728 271.18626404 22.49879456 C269.99870514 22.48896042 268.81114624 22.47912628 267.58760071 22.46899414 C265.63856087 22.48349609 265.63856087 22.48349609 263.65014648 22.49829102 C262.26527355 22.49450723 260.8804044 22.4890067 259.49554443 22.48191833 C255.73727435 22.46795518 251.97946161 22.47913858 248.22121692 22.49562955 C244.2894878 22.50947637 240.35778534 22.5030205 236.42604065 22.49949646 C229.82439804 22.49679436 223.22293724 22.51027094 216.62133789 22.53344727 C208.98566655 22.56006811 201.35029902 22.56180067 193.71459717 22.5500589 C186.37187205 22.53928608 179.02925698 22.54546354 171.6865406 22.55961418 C168.5601854 22.56537722 165.43391064 22.56528886 162.30755424 22.56054878 C158.62782156 22.55578221 154.94842229 22.56586693 151.26875305 22.58750343 C149.27147516 22.59573696 147.27415364 22.58921476 145.27687073 22.58230591 C143.49976212 22.59716286 143.49976212 22.59716286 141.68675232 22.61231995 C140.13901957 22.61596479 140.13901957 22.61596479 138.56001949 22.61968327 C136.00581877 22.82126635 136.00581877 22.82126635 134.16949844 24.1671257 C132.5224351 26.74845454 132.61484574 28.65970947 132.60127258 31.71366882 C132.58873444 32.90418854 132.57619629 34.09470825 132.5632782 35.32130432 C132.56471329 36.62897263 132.56614838 37.93664093 132.56762695 39.28393555 C132.5586118 40.67353184 132.54828518 42.06312015 132.53674316 43.45269775 C132.50911775 47.22721399 132.4998812 51.00157958 132.49388909 54.77618384 C132.48451977 58.72005695 132.45831761 62.66381688 132.43388367 66.60762024 C132.39017516 74.07672544 132.36165499 81.54580874 132.33856028 89.01500303 C132.30647953 99.10744011 132.25100011 109.19974661 132.19681454 119.29208469 C132.11205207 135.19468438 132.05860723 151.09723262 132 167 C88.44 167 44.88 167 0 167 C0 111.89 0 56.78 0 0 Z " fill="#B26F55" transform="translate(49,295)"/>
<path d="M0 0 C0.71460892 -0.00554901 1.42921783 -0.01109802 2.16548157 -0.01681519 C4.51197786 -0.02856247 6.85652164 -0.00439215 9.20288086 0.02148438 C10.84142468 0.02319673 12.47997125 0.02312853 14.11851501 0.0213623 C17.54574945 0.02301267 20.97232749 0.0416594 24.39941406 0.07324219 C28.78659171 0.11295068 33.17291172 0.11728211 37.56023502 0.10977936 C40.94123658 0.10670642 44.32204625 0.11884112 47.70300102 0.13591003 C49.32047764 0.1429273 50.93797599 0.14606611 52.55546761 0.1452179 C54.81732449 0.14702072 57.0781635 0.16844118 59.33984375 0.1953125 C60.62524551 0.20373169 61.91064728 0.21215088 63.23500061 0.2208252 C66.86155111 0.64523165 68.72517787 1.41132746 71.60522461 3.61523438 C73.71438057 6.77896832 73.85767482 7.54042489 73.87265015 11.15634155 C73.88118011 12.08721085 73.88971008 13.01808014 73.89849854 13.97715759 C73.89759216 14.99644852 73.89668579 16.01573944 73.89575195 17.06591797 C73.90246918 18.14097092 73.9091864 19.21602386 73.91610718 20.32365417 C73.93514685 23.88704008 73.93901441 27.45023823 73.94116211 31.01367188 C73.9475859 33.48605427 73.95431394 35.95843588 73.96133423 38.43081665 C73.97332196 43.61763268 73.97701351 48.80438203 73.97583008 53.99121094 C73.97562681 60.64176109 74.00293029 67.29173481 74.0373745 73.94220543 C74.0595981 79.0499773 74.06366901 84.15764569 74.06261063 89.26546097 C74.06497337 91.71749976 74.07383451 94.16954112 74.08927536 96.62153244 C74.10884269 100.04991407 74.10313295 103.47736552 74.09106445 106.90576172 C74.10230347 107.92100418 74.11354248 108.93624664 74.12512207 109.98225403 C74.08567132 114.38636474 74.04168528 116.90355217 71.69985962 120.72207642 C68.00186101 124.06437494 65.48167763 123.74623186 60.55688477 123.76049805 C59.83150009 123.76385666 59.10611542 123.76721527 58.35874939 123.77067566 C55.95391134 123.78019669 53.54914285 123.78212942 51.14428711 123.78320312 C49.47520926 123.78641517 47.80613169 123.7897792 46.13705444 123.79328918 C42.6349014 123.79928352 39.13277305 123.8011288 35.63061523 123.80053711 C31.14250584 123.80043553 26.6545548 123.81408204 22.16648293 123.83130932 C18.7178169 123.84242765 15.26918916 123.84445636 11.82050705 123.84392738 C10.16590199 123.84510797 8.51129597 123.84953416 6.85670853 123.85725975 C4.54181079 123.86705527 2.22725677 123.86418332 -0.08764648 123.8581543 C-1.40509857 123.85957932 -2.72255066 123.86100433 -4.07992554 123.86247253 C-7.19545832 123.63010044 -8.86891965 123.39015316 -11.39477539 121.61523438 C-13.51296393 118.43795156 -13.64937252 117.63916668 -13.67565918 113.99819946 C-13.68707947 113.05050186 -13.69849976 112.10280426 -13.71026611 111.12638855 C-13.71250183 110.08839615 -13.71473755 109.05040375 -13.71704102 107.98095703 C-13.72697083 106.88639694 -13.73690063 105.79183685 -13.74713135 104.66410828 C-13.77639065 101.03581243 -13.78998031 97.40769141 -13.80102539 93.77929688 C-13.81252609 91.26207472 -13.82404158 88.74485264 -13.83557129 86.22763062 C-13.85390707 81.62189542 -13.86650641 77.01621049 -13.87256479 72.41044295 C-13.88152695 65.63475151 -13.91662827 58.8598669 -13.97456598 52.0844208 C-14.02303025 46.21270898 -14.03845432 40.34126619 -14.04191589 34.4693718 C-14.04797678 31.97264588 -14.06406035 29.47592369 -14.09028625 26.97932816 C-14.12434279 23.48836123 -14.12066532 19.99936574 -14.10766602 16.50830078 C-14.12609558 15.47435684 -14.14452515 14.4404129 -14.16351318 13.37513733 C-14.0854885 6.69693725 -14.0854885 6.69693725 -12.27124882 3.85571671 C-8.55095942 0.32926055 -4.92646899 -0.00786905 0 0 Z " fill="#030202" transform="translate(367.394775390625,315.384765625)"/>
<path d="M0 0 C0.72436249 -0.0071553 1.44872498 -0.01431061 2.19503784 -0.02168274 C4.5739575 -0.03850279 6.95097477 -0.01921116 9.32983398 0.00219727 C10.99080053 0.00136803 12.65176699 -0.00109343 14.31272888 -0.00511169 C17.78702613 -0.00796496 21.26067702 0.00668629 24.73486328 0.03417969 C29.18270369 0.06828889 33.62939082 0.06223129 38.07728672 0.04351711 C41.50462926 0.03293762 44.93170445 0.041893 48.35902214 0.05690193 C49.99883162 0.06207548 51.6386691 0.06161198 53.27847481 0.05535698 C55.5716753 0.04989193 57.86323648 0.070317 60.15625 0.09765625 C61.45941666 0.10385483 62.76258331 0.11005341 64.10523987 0.11643982 C68.05829207 0.7133824 69.70764819 1.84002468 72.51342773 4.63110352 C73.6938394 6.99192684 73.64670935 8.41864624 73.66059875 11.05195618 C73.66775406 11.98145081 73.67490936 12.91094543 73.68228149 13.86860657 C73.6849704 14.89149277 73.6876593 15.91437897 73.69042969 16.96826172 C73.69700089 18.04316864 73.70357208 19.11807556 73.71034241 20.22555542 C73.73010619 23.79433251 73.74174435 27.36306749 73.75170898 30.93188477 C73.75578451 32.14842428 73.75986004 33.3649638 73.76405907 34.61836815 C73.78493208 41.05612393 73.79922898 47.4938583 73.80859375 53.93164062 C73.81865819 60.59000976 73.854072 67.24799914 73.89376545 73.9062624 C73.91987628 79.0183119 73.92828064 84.13028126 73.93187523 89.24239159 C73.93675481 91.69722943 73.94840751 94.15206338 73.96691322 96.60683632 C73.99118813 100.04008243 73.99036063 103.47245656 73.98339844 106.90576172 C73.9962085 107.92257523 74.00901855 108.93938873 74.0222168 109.98701477 C73.98957592 114.39606578 73.95209214 116.91522696 71.60905457 120.73893738 C67.92656163 124.0639036 65.39971953 123.77583607 60.49682617 123.82397461 C59.41356804 123.83624084 59.41356804 123.83624084 58.3084259 123.84875488 C55.91322662 123.8736108 53.51808669 123.89012673 51.12280273 123.90454102 C50.30468361 123.90986469 49.48656448 123.91518837 48.64365387 123.92067337 C44.31200599 123.94740788 39.98038694 123.96678038 35.64868164 123.98120117 C31.17843124 123.99783542 26.70892005 124.04260132 22.23894882 124.09357262 C18.79877903 124.12726345 15.35878414 124.13878064 11.91846466 124.14442825 C10.271043 124.15113743 8.62363272 124.16635101 6.97637177 124.19031906 C4.66617543 124.22201061 2.35796488 124.2220024 0.04760742 124.21459961 C-1.26540344 124.22268646 -2.57841431 124.23077332 -3.93121338 124.23910522 C-7.43747437 123.63949974 -9.75154105 122.87406312 -12.36403275 120.38978004 C-14.78847938 116.59141276 -14.31433437 112.13175897 -14.26293945 107.76977539 C-14.27345337 106.67492325 -14.28396729 105.58007111 -14.2947998 104.45204163 C-14.32120135 100.83406455 -14.303726 97.21784838 -14.28344727 93.59985352 C-14.28748877 91.08548647 -14.29331166 88.57112171 -14.30084229 86.0567627 C-14.30968901 80.78757773 -14.29739966 75.51885048 -14.26879883 70.24975586 C-14.23614568 64.16395639 -14.24672349 58.07936299 -14.27975726 51.99359274 C-14.31029993 46.13137653 -14.30702458 40.26961759 -14.28946686 34.40736389 C-14.28546275 31.91626313 -14.29038185 29.42513162 -14.30434418 26.93406677 C-14.3195746 23.45269099 -14.29636961 19.97363452 -14.26293945 16.49243164 C-14.27508484 15.46162979 -14.28723022 14.43082794 -14.29974365 13.36878967 C-14.18133358 6.71692742 -14.18133358 6.71692742 -12.36235905 3.87410069 C-8.62095461 0.32283072 -4.95556735 0.00365507 0 0 Z " fill="#020101" transform="translate(84.486572265625,315.368896484375)"/>
<path d="M0 0 C2.31573874 0.78752768 4.64412093 1.52889699 6.97465515 2.2714386 C10.47327666 3.39034181 13.95453014 4.55904714 17.4375 5.72558594 C20.1521574 6.63408865 22.86892842 7.53605785 25.5859375 8.4375 C27.31002445 9.01263543 29.03398752 9.58814236 30.7578125 10.1640625 C31.57122101 10.43384918 32.38462952 10.70363586 33.22268677 10.9815979 C38.88500386 12.88500386 38.88500386 12.88500386 40 14 C40.12621953 16.40677697 40.18871411 18.78309739 40.203125 21.19140625 C40.20882507 21.9289061 40.21452515 22.66640594 40.22039795 23.42625427 C40.22987704 25.00087036 40.2363934 26.57550655 40.24023438 28.15014648 C40.24975053 30.50087544 40.28065895 32.8506558 40.3125 35.20117188 C40.47567352 58.36079073 34.39196584 79.39468523 18.125 96.4375 C13.18744787 101.09268825 7.92214435 104.71176041 2 108 C1.06800781 108.54269531 0.13601563 109.08539063 -0.82421875 109.64453125 C-5.233464 111.97522016 -8.56369629 113.6719045 -13.5 112.1875 C-15.02073559 111.50262972 -16.52051324 110.76993699 -18 110 C-19.26070312 109.43925781 -19.26070312 109.43925781 -20.546875 108.8671875 C-37.35193449 100.75607497 -49.45550904 85.15883725 -56 68 C-58.78183467 58.96990386 -60.16439841 50.09294009 -60.09765625 40.66015625 C-60.0962413 39.89319931 -60.09482635 39.12624237 -60.09336853 38.33604431 C-60.08781766 35.9114881 -60.07527463 33.48702781 -60.0625 31.0625 C-60.05747864 29.40820447 -60.05291685 27.75390747 -60.04882812 26.09960938 C-60.03786438 22.06636988 -60.02063424 18.03320114 -60 14 C-51.19469406 10.30551601 -42.2090278 7.09856307 -33.18725586 3.97924805 C-31.43507376 3.36726369 -29.68696013 2.74350612 -27.94311523 2.1081543 C-10.16589649 -4.35704726 -10.16589649 -4.35704726 0 0 Z " fill="#FDC638" transform="translate(266,20)"/>
<path d="M0 0 C1.11514732 -0.01007584 1.11514732 -0.01007584 2.25282288 -0.02035522 C4.71239899 -0.03936509 7.17170264 -0.04326096 9.63134766 -0.04541016 C11.34144198 -0.05183628 13.0515352 -0.0585645 14.7616272 -0.06558228 C18.3477839 -0.07756269 21.93384422 -0.08126234 25.52001953 -0.08007812 C30.11244482 -0.07987495 34.70425115 -0.10717163 39.29652977 -0.14162254 C42.82932364 -0.16387525 46.3619682 -0.16791616 49.89482498 -0.16685867 C51.58769488 -0.1692173 53.28056873 -0.17805561 54.9733696 -0.19352341 C57.3433624 -0.21315009 59.71201626 -0.20735933 62.08203125 -0.1953125 C63.12800728 -0.21217102 63.12800728 -0.21217102 64.19511414 -0.22937012 C68.94310472 -0.16813228 71.33243932 0.94231239 74.67041016 4.29052734 C76.15931239 7.26833181 75.83508907 10.31608223 75.84741211 13.58251953 C75.85398331 14.33395233 75.8605545 15.08538513 75.86732483 15.85958862 C75.88707239 18.35219417 75.89872458 20.84473939 75.90869141 23.33740234 C75.91276693 24.18861916 75.91684246 25.03983597 75.92104149 25.91684723 C75.94191001 30.42356627 75.95620744 34.9302548 75.96557617 39.43701172 C75.97663288 44.08874137 76.01102177 48.73999163 76.05074787 53.39155197 C76.07691606 56.97069172 76.08526825 60.5497174 76.08885765 64.1289444 C76.09372433 65.84332766 76.10534071 67.55770579 76.12389565 69.27199554 C76.14828863 71.6753666 76.1473221 74.07749964 76.14038086 76.48095703 C76.15319092 77.18560089 76.16600098 77.89024475 76.17919922 78.61624146 C76.12686995 83.60258685 74.85864973 86.48731719 71.67041016 90.29052734 C68.12298255 91.47300321 65.26984156 91.43939708 61.52441406 91.4675293 C60.43852745 91.47738609 60.43852745 91.47738609 59.33070374 91.48744202 C56.93612563 91.50714566 54.5416101 91.51882991 52.14697266 91.52880859 C50.91929735 91.53492188 50.91929735 91.53492188 49.66682053 91.54115868 C45.33631392 91.5620051 41.00583888 91.57631399 36.67529297 91.58569336 C32.20396713 91.59676577 27.73313784 91.63117897 23.26198769 91.67086506 C19.8218595 91.69701091 16.38185013 91.70538327 12.94163132 91.70897484 C11.29340631 91.71384466 9.64518676 91.72547 7.99705887 91.74401283 C5.68937012 91.76836623 3.38297327 91.76744712 1.07519531 91.76049805 C-0.23701996 91.76636429 -1.54923523 91.77223053 -2.9012146 91.77827454 C-6.8827273 91.21183373 -8.5126787 90.10197277 -11.32958984 87.29052734 C-12.83471276 84.28028151 -12.47691667 81.17666721 -12.47485352 77.875 C-12.47821213 77.11060104 -12.48157074 76.34620209 -12.48503113 75.55863953 C-12.49455381 73.0239399 -12.49648496 70.48930626 -12.49755859 67.95458984 C-12.5007705 66.19583102 -12.50413452 64.43707246 -12.50764465 62.67831421 C-12.51363939 58.9878477 -12.51548422 55.29740463 -12.51489258 51.60693359 C-12.51479099 46.87669091 -12.52843818 42.14659845 -12.54566479 37.41639137 C-12.55678113 33.78243316 -12.55881189 30.14851129 -12.55828285 26.51453781 C-12.55946371 24.77061826 -12.56389143 23.0266978 -12.57161522 21.28279495 C-12.58140678 18.84337082 -12.57854032 16.40427308 -12.57250977 13.96484375 C-12.57812927 13.2436586 -12.58374878 12.52247345 -12.58953857 11.7794342 C-12.56665263 8.138371 -12.47944864 5.30786811 -10.32958984 2.29052734 C-6.73870041 -0.10339894 -4.14763809 -0.00535998 0 0 Z " fill="#020101" transform="translate(224.32958984375,165.70947265625)"/>
<path d="M0 0 C1.1155854 -0.01292336 1.1155854 -0.01292336 2.25370789 -0.02610779 C4.7026996 -0.04873965 7.15054451 -0.04203513 9.59960938 -0.03295898 C11.30684753 -0.03819554 13.01408278 -0.04447214 14.72131348 -0.05174255 C18.29563024 -0.06214135 21.86954876 -0.05759253 25.44384766 -0.04296875 C30.02073108 -0.02577428 34.59635988 -0.04928616 39.17310333 -0.08445835 C42.69737033 -0.10643412 46.22133713 -0.10499065 49.74565125 -0.09669304 C51.43293128 -0.09587375 53.12023341 -0.10273299 54.80744934 -0.11746407 C57.16798732 -0.13491622 59.52627087 -0.12036593 61.88671875 -0.09765625 C62.92798164 -0.11519455 62.92798164 -0.11519455 63.99028015 -0.13308716 C67.58955159 -0.06275139 69.40544079 0.50694369 72.37620544 2.58338928 C74.93568464 6.23605004 75.14419325 9.05823271 75.07446289 13.36547852 C75.08161819 14.13846283 75.0887735 14.91144714 75.09614563 15.70785522 C75.11300848 18.25449326 75.0936459 20.79936478 75.07226562 23.34594727 C75.07309455 25.12044419 75.07555484 26.89494103 75.07957458 28.66943359 C75.08243092 32.38508263 75.06774783 36.10012833 75.0402832 39.81567383 C75.00620042 44.57403722 75.01222003 49.33132191 75.03094578 54.08973694 C75.04152372 57.75298015 75.03257078 61.41597316 75.01756096 65.07919312 C75.0123845 66.83343767 75.01285444 68.58770841 75.01910591 70.34194946 C75.02456787 72.79567476 75.00415355 75.24786566 74.97680664 77.70141602 C74.98333252 78.42364349 74.9898584 79.14587097 74.99658203 79.88998413 C74.90565585 84.69752158 73.8516201 87.15559457 70.44335938 90.53344727 C67.45899128 92.02563131 64.7401127 91.67726504 61.41088867 91.69458008 C60.3252211 91.70202744 60.3252211 91.70202744 59.21762085 91.70962524 C56.81759701 91.7242577 54.41763929 91.73105114 52.01757812 91.73657227 C50.35089618 91.74232346 48.68421425 91.7480812 47.01753235 91.75384521 C43.51957897 91.76435872 40.0216486 91.77019888 36.52368164 91.77368164 C32.04457079 91.77916279 27.56576448 91.80318107 23.08674908 91.83165359 C19.64233009 91.85029246 16.19798421 91.85548627 12.75351906 91.85701752 C11.10252024 91.86004248 9.45152267 91.86806578 7.80057335 91.8812027 C5.4881525 91.89828734 3.1764723 91.89637721 0.86401367 91.88989258 C-0.4512178 91.89353821 -1.76644928 91.89718384 -3.12153625 91.90093994 C-6.77380553 91.51021463 -8.659182 90.74615085 -11.55664062 88.53344727 C-13.09459951 85.4575295 -12.73041449 82.21948807 -12.74951172 78.8425293 C-12.75768921 78.04886963 -12.7658667 77.25520996 -12.77429199 76.4375 C-12.79914892 73.80542764 -12.81566131 71.17340917 -12.83007812 68.54125977 C-12.8354018 67.6434164 -12.84072548 66.74557304 -12.84621048 65.82052231 C-12.87294136 61.06972863 -12.89231781 56.31896125 -12.90673828 51.56811523 C-12.92340046 46.65602456 -12.9681912 41.74460295 -13.01910973 36.83276558 C-13.05272666 33.05983692 -13.06430949 29.2870683 -13.06996536 25.51400375 C-13.07669157 23.70305127 -13.0919491 21.89210981 -13.11585617 20.08130264 C-13.14739742 17.54802747 -13.14756197 15.01657341 -13.14013672 12.4831543 C-13.15654205 11.73391693 -13.17294739 10.98467957 -13.18984985 10.21273804 C-13.14681089 6.62945788 -12.81915744 4.84675081 -10.49246216 2.06993103 C-6.91695944 0.19866542 -3.94286018 -0.03706647 0 0 Z " fill="#010101" transform="translate(366.556640625,165.466552734375)"/>
<path d="M0 0 C0.7437236 -0.0087616 1.4874472 -0.01752319 2.25370789 -0.02655029 C4.7029418 -0.0484899 7.15035833 -0.03401275 9.59960938 -0.01708984 C11.30684759 -0.02045959 13.01408346 -0.02531353 14.72131348 -0.03158569 C18.29572436 -0.03894959 21.86950962 -0.02826763 25.44384766 -0.00488281 C30.02077278 0.02360533 34.59623197 0.00719867 39.17310333 -0.02274513 C42.6973979 -0.04083156 46.22134612 -0.03505406 49.74565125 -0.02210617 C51.43291905 -0.01877584 53.12021852 -0.02284615 54.80744934 -0.03450394 C57.16805029 -0.04723572 59.52629306 -0.02780751 61.88671875 0 C62.58089401 -0.01012115 63.27506927 -0.02024231 63.99028015 -0.03067017 C67.58300573 0.04755585 69.40759366 0.62201485 72.3742218 2.69216919 C74.94703599 6.36624113 75.15684676 9.23738182 75.10620117 13.57080078 C75.11656906 14.35353867 75.12693695 15.13627655 75.13761902 15.94273376 C75.16465223 18.52176834 75.15503685 21.09909808 75.14257812 23.67822266 C75.14848814 25.47514316 75.15573532 27.27205973 75.16426086 29.06896973 C75.17613475 32.83167056 75.16944385 36.59377963 75.15014648 40.35644531 C75.12725363 45.17564591 75.15404555 49.99308411 75.19520855 54.8121109 C75.22079668 58.52170774 75.21820415 62.23088339 75.20731544 65.9405365 C75.20582964 67.71713359 75.21350869 69.4937631 75.23056602 71.27027893 C75.25055719 73.75565166 75.23213955 76.23791466 75.20385742 78.72314453 C75.22443207 79.82051186 75.22443207 79.82051186 75.24542236 80.94004822 C75.15420021 84.95587107 74.53075551 86.54672617 71.86473083 89.60475159 C67.85517666 91.99805968 65.58470266 92.26435425 60.94091797 92.24633789 C59.8519648 92.25225197 59.8519648 92.25225197 58.74101257 92.25828552 C56.35722348 92.26496258 53.97537888 92.23591111 51.59179688 92.20556641 C49.92844005 92.20131294 48.26507728 92.19898735 46.60171509 92.19850159 C43.12319866 92.1923479 39.64532913 92.16970241 36.16699219 92.1340332 C31.71032627 92.08869114 27.25424429 92.07400276 22.797369 92.07029629 C19.3658168 92.06586663 15.93438684 92.05056205 12.50288773 92.03141975 C10.85946277 92.02254795 9.21602484 92.01581291 7.57258224 92.01125908 C5.27716929 92.00220846 2.98228195 91.97981297 0.68701172 91.95336914 C-0.61837555 91.94272934 -1.92376282 91.93208954 -3.26870728 91.92112732 C-6.35613281 91.66369141 -8.04582348 91.40118145 -10.55664062 89.64697266 C-13.00387201 85.97612558 -12.85921575 83.19755037 -12.86303711 78.95019531 C-12.87136063 78.16774948 -12.87968414 77.38530365 -12.88825989 76.57914734 C-12.91237671 73.98972615 -12.92113397 71.40055678 -12.92773438 68.81103516 C-12.93669943 67.01126021 -12.94582125 65.21148604 -12.95509338 63.41171265 C-12.9715905 59.63724963 -12.9792848 55.8628754 -12.98217773 52.08837891 C-12.98756234 47.25371515 -13.0252421 42.41988662 -13.0709219 37.58545876 C-13.10067666 33.86737019 -13.10790094 30.14948314 -13.10890388 26.43128586 C-13.11310935 24.64908396 -13.12555678 22.86688163 -13.14642143 21.08479691 C-13.17330413 18.59008781 -13.16852092 16.09731944 -13.15600586 13.60253906 C-13.17084015 12.86781876 -13.18567444 12.13309845 -13.20095825 11.37611389 C-13.14802331 7.66725566 -12.6307213 5.75303693 -10.49147034 2.69018555 C-6.9192449 0.20322113 -4.20689164 -0.06133696 0 0 Z " fill="#000000" transform="translate(83.556640625,165.35302734375)"/>
<path d="M0 0 C1.82706978 -0.00532714 3.65413518 -0.01239379 5.48119223 -0.02104706 C10.49480279 -0.03967917 15.50811807 -0.03336736 20.52174091 -0.02289402 C25.93154794 -0.01590363 31.34129421 -0.03189879 36.75108337 -0.04489136 C47.34664671 -0.06653962 57.94210267 -0.06640226 68.53768085 -0.05826581 C77.14963902 -0.05196707 85.76156587 -0.05310171 94.37352371 -0.05953789 C95.59903759 -0.06043954 96.82455147 -0.0613412 98.08720214 -0.06227018 C100.57680356 -0.06412137 103.06640498 -0.06598393 105.55600639 -0.06785773 C128.90552445 -0.08443925 152.25498211 -0.07571417 175.60449655 -0.05887216 C196.96592575 -0.04417671 218.32720104 -0.05880085 239.68861382 -0.08764232 C261.62247143 -0.11703614 283.55626411 -0.12800851 305.49014056 -0.11846012 C307.97121659 -0.11743757 310.45229263 -0.11644296 312.93336868 -0.11547661 C314.15410251 -0.11500022 315.37483633 -0.11452383 316.63256209 -0.114033 C325.23262965 -0.11186876 333.83263574 -0.12167359 342.43268967 -0.13624763 C352.91571234 -0.15376476 363.39855568 -0.15366245 373.88157128 -0.13089598 C379.2296793 -0.11974799 384.5774713 -0.11660416 389.92556572 -0.13519669 C394.82343238 -0.15200482 399.72070747 -0.14564557 404.61853583 -0.1209799 C406.38831228 -0.11609733 408.15813646 -0.11961034 409.92787294 -0.13246734 C420.17365314 -0.20151788 429.35486385 -0.08922992 437.2385639 7.35791296 C440.14715909 10.46156889 441.227552 12.27582384 442.28726196 16.5146637 C285.20726196 16.5146637 128.12726196 16.5146637 -33.71273804 16.5146637 C-31.40239321 10.73880163 -31.40239321 10.73880163 -29.08773804 7.9521637 C-28.4187146 7.1149176 -28.4187146 7.1149176 -27.73617554 6.26075745 C-19.44152134 -0.89698469 -10.32119713 -0.0523583 0 0 Z " fill="#FE405B" transform="translate(51.712738037109375,478.48533630371094)"/>
<path d="M0 0 C16.83 0 33.66 0 51 0 C51 42.57 51 85.14 51 129 C34.17 129 17.34 129 0 129 C0 86.43 0 43.86 0 0 Z " fill="#FBC438" transform="translate(264,333)"/>
<path d="M0 0 C16.83 0 33.66 0 51 0 C51 42.57 51 85.14 51 129 C34.17 129 17.34 129 0 129 C0 86.43 0 43.86 0 0 Z " fill="#FDC538" transform="translate(197,333)"/>
<path d="M0 0 C1.58669495 -0.00472824 1.58669495 -0.00472824 3.20544434 -0.009552 C4.93196228 -0.00651566 4.93196228 -0.00651566 6.69335938 -0.00341797 C8.45226501 -0.00485306 8.45226501 -0.00485306 10.2467041 -0.00631714 C12.73169 -0.00699917 15.21667766 -0.00514331 17.70166016 -0.00097656 C21.52054825 0.00437134 25.33931872 -0.00092083 29.15820312 -0.00732422 C31.56575547 -0.00666344 33.97330774 -0.00538229 36.38085938 -0.00341797 C38.10737732 -0.00645432 38.10737732 -0.00645432 39.86877441 -0.009552 C40.92657104 -0.00639984 41.98436768 -0.00324768 43.07421875 0 C44.47867249 0.00119339 44.47867249 0.00119339 45.91149902 0.00241089 C48.03710938 0.12939453 48.03710938 0.12939453 49.03710938 1.12939453 C49.13081562 2.90931377 49.15455208 4.69296192 49.15063477 6.4753418 C49.15055923 7.61644913 49.1504837 8.75755646 49.15040588 9.9332428 C49.1452446 11.17488693 49.14008331 12.41653107 49.13476562 13.69580078 C49.13335068 14.95956039 49.13193573 16.22332001 49.13047791 17.52537537 C49.1258152 20.89064342 49.11682418 24.25584443 49.10577393 27.62109375 C49.09555783 31.05289112 49.09092516 34.48469561 49.0859375 37.91650391 C49.075732 44.65417207 49.05616029 51.39172224 49.03710938 58.12939453 C30.88710937 58.12939453 12.73710937 58.12939453 -5.96289062 58.12939453 C-5.98383647 50.72154626 -6.00387452 43.31380465 -6.01464081 35.90595245 C-6.01993039 32.45657591 -6.02700363 29.00722378 -6.03833008 25.55786133 C-6.05123297 21.6038441 -6.0561198 17.64983698 -6.06054688 13.69580078 C-6.06570816 12.45415665 -6.07086945 11.21251251 -6.07618713 9.9332428 C-6.07626266 8.79213547 -6.0763382 7.65102814 -6.07641602 6.4753418 C-6.07863663 5.46496353 -6.08085724 4.45458527 -6.08314514 3.41358948 C-5.86075822 -0.81057685 -3.70900505 0.00315161 0 0 Z " fill="#DDDAF0" transform="translate(92.962890625,181.87060546875)"/>
<path d="M0 0 C17.82 0 35.64 0 54 0 C54 19.14 54 38.28 54 58 C36.18 58 18.36 58 0 58 C0 38.86 0 19.72 0 0 Z " fill="#DFDCF2" transform="translate(370,182)"/>
<path d="M0 0 C17.82 0 35.64 0 54 0 C54 19.14 54 38.28 54 58 C36.18 58 18.36 58 0 58 C0 38.86 0 19.72 0 0 Z " fill="#E0DDF3" transform="translate(229,182)"/>
<path d="M0 0 C58.74 0 117.48 0 178 0 C183 13 183 13 184 17 C123.28 17 62.56 17 0 17 C0 11.39 0 5.78 0 0 Z " fill="#FC405B" transform="translate(16,89)"/>
<path d="M0 0 C58.74 0 117.48 0 178 0 C178 5.61 178 11.22 178 17 C117.28 17 56.56 17 -6 17 C-4.09970762 11.29912287 -2.05362023 5.64745563 0 0 Z " fill="#FC405B" transform="translate(318,89)"/>
<path d="M0 0 C18.15 0 36.3 0 55 0 C55 15.51 55 31.02 55 47 C36.85 47 18.7 47 0 47 C0 31.49 0 15.98 0 0 Z " fill="#DFDCF1" transform="translate(87,375)"/>
<path d="M0 0 C17.82 0 35.64 0 54 0 C54 15.51 54 31.02 54 47 C36.18 47 18.36 47 0 47 C0 31.49 0 15.98 0 0 Z " fill="#E1DEF4" transform="translate(370,375)"/>
<path d="M0 0 C18.15 0 36.3 0 55 0 C55 8.25 55 16.5 55 25 C36.85 25 18.7 25 0 25 C0 16.75 0 8.5 0 0 Z " fill="#FBFBFB" transform="translate(87,333)"/>
<path d="M0 0 C17.82 0 35.64 0 54 0 C54 8.25 54 16.5 54 25 C36.18 25 18.36 25 0 25 C0 16.75 0 8.5 0 0 Z " fill="#FEFEFE" transform="translate(370,333)"/>
<path d="M0 0 C1.9375 1.0625 1.9375 1.0625 3 3 C3.5 6.4375 3.5 6.4375 3 10 C0.8125 12.5 0.8125 12.5 -2 14 C-5.31195977 14 -6.67765762 13.24393477 -9.3125 11.25 C-11 9 -11 9 -11.5 6.5 C-10.21591544 0.07957718 -5.93091193 -0.75484334 0 0 Z " fill="#080601" transform="translate(240,390)"/>
<path d="M0 0 C1.9375 1.0625 1.9375 1.0625 3 3 C3.5 6.4375 3.5 6.4375 3 10 C0.8125 12.5 0.8125 12.5 -2 14 C-4.86321294 13.93182826 -6.39807715 13.37360729 -8.8125 11.875 C-10.70271646 8.89044769 -10.36799239 6.43459566 -10 3 C-7.77766882 -1.05248626 -4.20052866 -0.45005664 0 0 Z " fill="#030200" transform="translate(279,390)"/>
</svg>
