<?xml version="1.0" encoding="UTF-8"?>
<svg version="1.1" xmlns="http://www.w3.org/2000/svg" width="512" height="512">
<path d="M0 0 C3.20107207 0.69194891 4.80809257 1.97042194 6.93359375 4.41796875 C9.1681793 10.14409423 6.69615311 15.82159385 4.93359375 21.41796875 C5.47709473 21.39839111 6.0205957 21.37881348 6.58056641 21.35864258 C14.569999 21.20452921 22.39720515 22.11596174 30.30859375 23.10546875 C31.03045868 23.19477661 31.75232361 23.28408447 32.49606323 23.37609863 C66.79531209 27.65074058 100.26837484 35.06306293 132.93359375 46.41796875 C134.02478516 46.79679199 135.11597656 47.17561523 136.24023438 47.56591797 C158.21410873 55.27699147 179.24685461 64.75470115 199.93359375 75.41796875 C201.45146484 76.16433594 201.45146484 76.16433594 203 76.92578125 C216.88617655 83.9944052 226.82519271 94.74578219 232 109.421875 C233.06100537 112.82685877 233.73896767 115.84982397 233.93359375 119.41796875 C233.99546875 120.26230469 234.05734375 121.10664063 234.12109375 121.9765625 C234.55882165 132.27684714 231.92134798 141.95154317 227.93359375 151.41796875 C229.19171875 151.6809375 230.44984375 151.94390625 231.74609375 152.21484375 C237.2263504 153.43315354 242.56184088 155.04598855 247.93359375 156.66796875 C271.56752411 163.65342091 295.56963952 168.86037143 319.94921875 172.4765625 C321.08037109 172.64655762 322.21152344 172.81655273 323.37695312 172.99169922 C325.51687137 173.30801023 327.65877258 173.61129659 329.80273438 173.89892578 C336.55702044 174.8890888 341.66891675 176.26091847 346.7109375 181.13671875 C350.527614 186.99666651 351.1408305 192.55907548 349.93359375 199.41796875 C346.9389321 207.32437671 340.4289913 213.94530114 335.13671875 220.4375 C332.0075175 224.29413648 329.01866373 228.24323425 326.05859375 232.23046875 C321.81782927 237.93440472 317.50080236 243.57004279 313.12109375 249.16796875 C308.01155399 255.71586037 302.94394213 262.29380262 297.93359375 268.91796875 C297.32281982 269.7181543 296.7120459 270.51833984 296.08276367 271.34277344 C290.25528994 279.08280047 285.02284649 287.00532827 281.74609375 296.16796875 C281.49907715 296.85568359 281.25206055 297.54339844 280.99755859 298.25195312 C272.02109089 323.96671869 276.45078125 351.24600769 278.99609375 377.79296875 C279.51254794 383.19547502 280.02143555 388.59854881 280.51537895 394.00316238 C280.71302211 396.12977497 280.92215443 398.25503455 281.13209534 400.38046265 C282.74945756 417.9159457 282.74945756 417.9159457 279.18359375 424.79296875 C275.22418101 429.41228362 271.81247704 431.81913888 265.93359375 433.41796875 C195.53615727 436.10831664 114.17422973 402.79175932 55.12109375 367.73046875 C54.38568359 367.30306396 53.65027344 366.87565918 52.89257812 366.43530273 C46.16838928 362.34662755 40.83041756 357.18677972 38.40283203 349.53979492 C36.20634321 339.60759704 39.73548741 330.6967699 42.93359375 321.41796875 C43.6504792 319.29569914 44.36316423 317.17208218 45.07348633 315.04760742 C45.71355513 313.13994682 46.36430803 311.23588084 47.015625 309.33203125 C48.03374648 306.60924199 48.03374648 306.60924199 47.93359375 304.41796875 C17.04918766 294.01587261 -14.27706858 286.59247301 -46.56640625 282.16796875 C-47.7457373 282.00466064 -48.92506836 281.84135254 -50.14013672 281.6730957 C-59.76365785 280.4202625 -69.37879049 279.86232947 -79.06640625 279.41796875 C-87.00223479 303.58711557 -94.92595463 327.75914259 -102.63821411 352.0007019 C-109.99527699 375.1236252 -117.5407744 398.18255998 -125.12890625 421.23046875 C-125.4010495 422.057211 -125.67319275 422.88395325 -125.95358276 423.73574829 C-126.76057338 426.18716236 -127.5677367 428.63851947 -128.375 431.08984375 C-128.63554609 431.88107321 -128.89609219 432.67230267 -129.16453362 433.48750877 C-130.43195119 437.3348528 -131.70156922 441.18144657 -132.9758606 445.02651978 C-133.45678302 446.4781102 -133.93764975 447.92971909 -134.41845703 449.38134766 C-134.64843447 450.07565699 -134.8784119 450.76996632 -135.11535835 451.48531532 C-136.51319359 455.71525793 -137.88012986 459.95386633 -139.22607422 464.20068359 C-139.54265488 465.18735519 -139.85923553 466.17402679 -140.18540955 467.19059753 C-140.74509997 468.9384702 -141.2956758 470.68930572 -141.83424377 472.44380188 C-143.20378784 476.68773092 -144.41318341 479.59681295 -148.06640625 482.41796875 C-151.15460891 483.21902311 -153.94802752 483.03942501 -157.06640625 482.41796875 C-160.12890625 480.48046875 -160.12890625 480.48046875 -162.06640625 477.41796875 C-162.7325031 469.80066207 -160.93007238 463.77321714 -158.47265625 456.609375 C-158.09490555 455.47212982 -157.71715485 454.33488464 -157.32795715 453.16317749 C-156.30052243 450.07618994 -155.26170231 446.99331946 -154.21823502 443.91172409 C-153.1131102 440.63743135 -152.02390623 437.357861 -150.93432617 434.07836914 C-150.49060102 432.74326566 -150.04686014 431.4081674 -149.60310364 430.07307434 C-149.38281809 429.41023752 -149.16253254 428.7474007 -148.93557167 428.06447792 C-148.26340279 426.04410181 -147.58947919 424.02431869 -146.91508484 422.00468445 C-143.28428033 411.12488562 -139.77085553 400.21002446 -136.30517578 389.27658081 C-129.12622048 366.63680675 -121.7128262 344.07635649 -114.27591324 321.5204277 C-107.78929524 301.84562348 -101.33968469 282.16211158 -95.06640625 262.41796875 C-88.28316444 241.06879758 -81.28925865 219.79142709 -74.27490234 198.51739502 C-67.78858554 178.8436029 -61.34012882 159.16085833 -55.06640625 139.41796875 C-48.44365463 118.58420921 -41.64751721 97.80911979 -34.81640625 77.04296875 C-34.31477326 75.51741714 -33.81314556 73.99186378 -33.31152344 72.46630859 C-32.82100026 70.97492282 -32.33044063 69.48354903 -31.83984375 67.9921875 C-31.59820244 67.25758175 -31.35656113 66.522976 -31.10759735 65.76610947 C-29.90241724 62.10437404 -28.69430453 58.44364536 -27.48059082 54.784729 C-26.99675857 53.32558394 -26.51299412 51.86641639 -26.02929688 50.40722656 C-25.78933235 49.68336887 -25.54936783 48.95951118 -25.30213165 48.21371841 C-23.72733715 43.45091708 -22.18248566 38.67919807 -20.65339279 33.90153694 C-19.58481467 30.56918262 -18.50449903 27.24069452 -17.42261505 23.91263962 C-16.90933444 22.32366406 -16.40141351 20.73294586 -15.89922333 19.14043045 C-15.20218188 16.93181859 -14.48651417 14.73005328 -13.76660156 12.52880859 C-13.36483704 11.27353363 -12.96307251 10.01825867 -12.5491333 8.72494507 C-9.8230711 2.6449163 -6.61080219 -0.46238125 0 0 Z " fill="#CFE2ED" transform="translate(162.06640625,14.58203125)"/>
<path d="M0 0 C3.20107207 0.69194891 4.80809257 1.97042194 6.93359375 4.41796875 C9.1681793 10.14409423 6.69615311 15.82159385 4.93359375 21.41796875 C5.47709473 21.39839111 6.0205957 21.37881348 6.58056641 21.35864258 C14.57055509 21.20451849 22.3964915 22.11908237 30.30859375 23.10546875 C31.02281494 23.19278259 31.73703613 23.28009644 32.47290039 23.37005615 C50.10091566 25.53707381 67.61578167 28.45233531 84.93359375 32.41796875 C83.47582577 39.61218489 81.40341405 46.46388646 79.08984375 53.42578125 C78.72008423 54.55063934 78.35032471 55.67549744 77.96936035 56.83444214 C76.79482412 60.40530122 75.61449984 63.97421172 74.43359375 67.54296875 C73.25372232 71.11919807 72.07508701 74.69582884 70.89782715 78.2729187 C70.16723545 80.49169599 69.43497477 82.70992462 68.70080566 84.92752075 C67.00531816 90.06611669 65.36685219 95.19983952 63.93359375 100.41796875 C65.69703125 100.78921875 65.69703125 100.78921875 67.49609375 101.16796875 C80.29477313 104.03238192 92.75679413 107.82066368 105.18359375 111.98046875 C105.95530914 112.23820068 106.72702454 112.49593262 107.52212524 112.76147461 C118.32593074 116.38373487 129.03414044 120.20209786 139.62109375 124.41796875 C140.76030273 124.86213135 141.89951172 125.30629395 143.07324219 125.76391602 C144.10352539 126.18600342 145.13380859 126.60809082 146.1953125 127.04296875 C147.09209717 127.40648437 147.98888184 127.77 148.9128418 128.14453125 C150.93359375 129.41796875 150.93359375 129.41796875 151.69325256 131.0430603 C152.04579664 134.52669092 150.91141255 137.43819429 149.79980469 140.68994141 C149.56093033 141.41573395 149.32205597 142.14152649 149.07594299 142.88931274 C148.28306902 145.2902542 147.47554834 147.6860003 146.66796875 150.08203125 C146.11226867 151.75598121 145.55753427 153.43025203 145.00372314 155.10482788 C143.5409492 159.51977609 142.06592463 163.93053345 140.58807373 168.3404541 C138.80474863 173.66888847 137.03513125 179.00188605 135.26410294 184.33441734 C133.8834441 188.49095473 132.5006206 192.64672454 131.11077881 196.80020142 C128.6022301 204.30682031 126.12113127 211.80968787 123.93359375 219.41796875 C120.22327154 218.71817037 116.97691825 217.73989437 113.48046875 216.30078125 C112.4028125 215.8639502 111.32515625 215.42711914 110.21484375 214.97705078 C108.466875 214.26718018 108.466875 214.26718018 106.68359375 213.54296875 C86.18803997 205.3679885 65.19114679 197.64260634 43.62890625 192.81103516 C40.20844305 192.04372143 37.88973947 191.38873256 34.93359375 189.41796875 C36.24315111 181.78909265 38.34243149 174.59045662 40.78515625 167.25390625 C41.16288177 166.10419342 41.5406073 164.95448059 41.92977905 163.76992798 C43.13397152 160.10913212 44.34617192 156.45104626 45.55859375 152.79296875 C46.34947998 150.39209886 47.13984865 147.99105841 47.9296875 145.58984375 C52.89201313 130.51961885 57.90604841 115.46654459 62.93359375 100.41796875 C36.12165154 94.80433051 9.13011388 91.51369406 -18.06640625 88.41796875 C-18.23715164 89.06977615 -18.40789703 89.72158356 -18.58381653 90.3931427 C-20.49831739 97.57084341 -22.68968181 104.62577799 -25.015625 111.6796875 C-25.39193558 112.82798538 -25.76824615 113.97628326 -26.15596008 115.15937805 C-27.35272751 118.8089169 -28.5533132 122.45718689 -29.75390625 126.10546875 C-30.53995094 128.50187527 -31.32575997 130.8983591 -32.11132812 133.29492188 C-37.05071075 148.35119586 -42.04023843 163.39045519 -47.06640625 178.41796875 C-46.06013184 178.37663818 -45.05385742 178.33530762 -44.01708984 178.29272461 C-18.89057973 177.43111901 9.96259389 181.88817341 33.93359375 189.41796875 C32.70209127 195.49862397 31.09136606 201.3094147 29.05859375 207.16796875 C27.32683064 212.20749103 25.66421714 217.25708171 24.11352539 222.35571289 C21.96311592 229.36554112 19.70574725 236.33736998 17.421875 243.3046875 C17.00394693 244.58167216 16.58607598 245.85867551 16.16825867 247.13569641 C15.30264635 249.78041665 14.43617381 252.42485305 13.5690918 255.0690918 C12.45762279 258.45893857 11.3486641 261.84960083 10.24035358 265.24048138 C9.1773112 268.49152562 8.11197668 271.74181733 7.046875 274.9921875 C6.6489827 276.20976242 6.25109039 277.42733734 5.84114075 278.68180847 C5.47373276 279.80090103 5.10632477 280.91999359 4.7277832 282.07299805 C4.40453568 283.05970993 4.08128815 284.04642181 3.74824524 285.06303406 C2.93359375 287.41796875 2.93359375 287.41796875 1.93359375 289.41796875 C-4.49869872 289.74365444 -10.35073494 288.48098823 -16.62890625 287.16796875 C-26.57075986 285.17788981 -36.51788196 283.52115894 -46.56640625 282.16796875 C-47.74404541 282.00522461 -48.92168457 281.84248047 -50.13500977 281.67480469 C-59.75991796 280.41894715 -69.37709642 279.86240718 -79.06640625 279.41796875 C-87.00223479 303.58711557 -94.92595463 327.75914259 -102.63821411 352.0007019 C-109.99527699 375.1236252 -117.5407744 398.18255998 -125.12890625 421.23046875 C-125.4010495 422.057211 -125.67319275 422.88395325 -125.95358276 423.73574829 C-126.76057338 426.18716236 -127.5677367 428.63851947 -128.375 431.08984375 C-128.63554609 431.88107321 -128.89609219 432.67230267 -129.16453362 433.48750877 C-130.43195119 437.3348528 -131.70156922 441.18144657 -132.9758606 445.02651978 C-133.45678302 446.4781102 -133.93764975 447.92971909 -134.41845703 449.38134766 C-134.64843447 450.07565699 -134.8784119 450.76996632 -135.11535835 451.48531532 C-136.51319359 455.71525793 -137.88012986 459.95386633 -139.22607422 464.20068359 C-139.54265488 465.18735519 -139.85923553 466.17402679 -140.18540955 467.19059753 C-140.74509997 468.9384702 -141.2956758 470.68930572 -141.83424377 472.44380188 C-143.20378784 476.68773092 -144.41318341 479.59681295 -148.06640625 482.41796875 C-151.15460891 483.21902311 -153.94802752 483.03942501 -157.06640625 482.41796875 C-160.12890625 480.48046875 -160.12890625 480.48046875 -162.06640625 477.41796875 C-162.7325031 469.80066207 -160.93007238 463.77321714 -158.47265625 456.609375 C-158.09490555 455.47212982 -157.71715485 454.33488464 -157.32795715 453.16317749 C-156.30052243 450.07618994 -155.26170231 446.99331946 -154.21823502 443.91172409 C-153.1131102 440.63743135 -152.02390623 437.357861 -150.93432617 434.07836914 C-150.49060102 432.74326566 -150.04686014 431.4081674 -149.60310364 430.07307434 C-149.38281809 429.41023752 -149.16253254 428.7474007 -148.93557167 428.06447792 C-148.26340279 426.04410181 -147.58947919 424.02431869 -146.91508484 422.00468445 C-143.28428033 411.12488562 -139.77085553 400.21002446 -136.30517578 389.27658081 C-129.12622048 366.63680675 -121.7128262 344.07635649 -114.27591324 321.5204277 C-107.78929524 301.84562348 -101.33968469 282.16211158 -95.06640625 262.41796875 C-88.28316444 241.06879758 -81.28925865 219.79142709 -74.27490234 198.51739502 C-67.78858554 178.8436029 -61.34012882 159.16085833 -55.06640625 139.41796875 C-48.44365463 118.58420921 -41.64751721 97.80911979 -34.81640625 77.04296875 C-34.31477326 75.51741714 -33.81314556 73.99186378 -33.31152344 72.46630859 C-32.82100026 70.97492282 -32.33044063 69.48354903 -31.83984375 67.9921875 C-31.59820244 67.25758175 -31.35656113 66.522976 -31.10759735 65.76610947 C-29.90241724 62.10437404 -28.69430453 58.44364536 -27.48059082 54.784729 C-26.99675857 53.32558394 -26.51299412 51.86641639 -26.02929688 50.40722656 C-25.78933235 49.68336887 -25.54936783 48.95951118 -25.30213165 48.21371841 C-23.72733715 43.45091708 -22.18248566 38.67919807 -20.65339279 33.90153694 C-19.58481467 30.56918262 -18.50449903 27.24069452 -17.42261505 23.91263962 C-16.90933444 22.32366406 -16.40141351 20.73294586 -15.89922333 19.14043045 C-15.20218188 16.93181859 -14.48651417 14.73005328 -13.76660156 12.52880859 C-13.36483704 11.27353363 -12.96307251 10.01825867 -12.5491333 8.72494507 C-9.8230711 2.6449163 -6.61080219 -0.46238125 0 0 Z " fill="#FED788" transform="translate(162.06640625,14.58203125)"/>
<path d="M0 0 C8.80602282 0.0992013 17.52134733 2.12282013 26.125 3.8125 C37.41949926 6.00616502 48.70900098 8.01693724 60.11962891 9.53051758 C66.77864858 10.49865676 71.80661455 11.911891 76.77734375 16.71875 C80.59402025 22.57869776 81.20723675 28.14110673 80 35 C77.00533835 42.90640796 70.49539755 49.52733239 65.203125 56.01953125 C62.07392375 59.87616773 59.08506998 63.8252655 56.125 67.8125 C51.88423552 73.51643597 47.56720861 79.15207404 43.1875 84.75 C38.07796024 91.29789162 33.01034838 97.87583387 28 104.5 C27.38922607 105.30018555 26.77845215 106.10037109 26.14916992 106.92480469 C20.32169619 114.66483172 15.08925274 122.58735952 11.8125 131.75 C11.4419751 132.78157227 11.4419751 132.78157227 11.06396484 133.83398438 C2.08749714 159.54874994 6.5171875 186.82803894 9.0625 213.375 C9.57895419 218.77750627 10.0878418 224.18058006 10.5817852 229.58519363 C10.77942836 231.71180622 10.98856068 233.8370658 11.19850159 235.9624939 C12.81586381 253.49797695 12.81586381 253.49797695 9.25 260.375 C5.29058726 264.99431487 1.87888329 267.40117013 -4 269 C-30.12501325 269.99840815 -57.60742216 262.52630467 -83 257 C-82.369591 250.1463068 -80.16353192 243.90571026 -77.9921875 237.40234375 C-77.37469084 235.52818817 -76.75719501 233.65403233 -76.1397419 231.7798624 C-75.27397939 229.15707895 -74.40277065 226.5361169 -73.53167725 223.9151001 C-71.61487544 218.14260308 -69.71161345 212.36560851 -67.8046875 206.58984375 C-67.39490662 205.35076263 -66.98512573 204.11168152 -66.56292725 202.83505249 C-62.95737232 191.91657511 -59.45377166 180.96732729 -56 170 C-62.95888535 167.65491486 -69.94958764 165.4916615 -77 163.4375 C-78.02867187 163.13392578 -79.05734375 162.83035156 -80.1171875 162.51757812 C-86.04461419 160.78686003 -91.95586531 159.2654907 -98 158 C-98.23581787 158.77964111 -98.47163574 159.55928223 -98.71459961 160.36254883 C-101.19985307 168.51711614 -103.83926999 176.60965584 -106.5625 184.6875 C-109.17020701 192.42355235 -111.71927323 200.16048869 -114 208 C-114.33 208 -114.66 208 -115 208 C-115.07476562 207.154375 -115.14953125 206.30875 -115.2265625 205.4375 C-116.27114339 196.42542959 -118.28690081 190.96383204 -125.2590332 185.10009766 C-129.96665042 181.49317476 -135.1938222 178.80207612 -140.375 175.9375 C-140.96504822 175.60873871 -141.55509644 175.27997742 -142.1630249 174.94125366 C-151.60974423 169.68342659 -161.20159289 164.85986619 -171.10302734 160.50170898 C-172.4480835 159.89178101 -172.4480835 159.89178101 -173.8203125 159.26953125 C-175.00004639 158.75289917 -175.00004639 158.75289917 -176.20361328 158.22583008 C-178 157 -178 157 -178.83984375 155.11865234 C-179.02692887 152.64376719 -178.61476472 151.15108316 -177.7421875 148.83203125 C-177.44900635 148.03047607 -177.1558252 147.2289209 -176.85375977 146.40307617 C-176.53076904 145.54818604 -176.20777832 144.6932959 -175.875 143.8125 C-173.56585046 137.48272703 -171.38019835 131.17600285 -169.5625 124.6875 C-167.34560806 116.84578444 -164.66143912 109.195505 -161.94384766 101.51513672 C-159.71169991 95.16453404 -157.70370605 88.79499016 -155.87426758 82.31860352 C-153.32115482 73.41347576 -150.13377344 64.71398207 -147 56 C-126.53551616 62.09868724 -103.68966881 74.02703708 -92.8203125 93.06640625 C-91.80091198 95.02707806 -90.85274775 96.96115764 -90 99 C-89.65485352 99.80808105 -89.30970703 100.61616211 -88.95410156 101.44873047 C-87.65026498 106.30175167 -87.78694968 110.87645115 -87.875 115.875 C-87.88402344 116.84953125 -87.89304687 117.8240625 -87.90234375 118.828125 C-87.92578377 121.21900728 -87.95859558 123.60937261 -88 126 C-85.792987 119.2602102 -83.58778953 112.51982827 -81.38378906 105.77905273 C-80.63549846 103.49115906 -79.88680885 101.20339584 -79.13769531 98.91577148 C-73.42009022 81.5049757 -73.42009022 81.5049757 -68 64 C-59.31724242 66.55668429 -50.7087981 69.32806088 -42.1015625 72.12695312 C-36.43471274 73.95485771 -30.79883225 75.64506704 -25 77 C-24.84869629 76.33097656 -24.69739258 75.66195312 -24.54150391 74.97265625 C-22.3628976 65.78334727 -19.40988787 56.93122793 -16.375 48 C-15.30076728 44.81728516 -14.23009074 41.63338079 -13.16015625 38.44921875 C-12.89335556 37.656259 -12.62655487 36.86329926 -12.35166931 36.04631042 C-9.36071585 27.13514505 -6.50475712 18.18164322 -3.67919922 9.21679688 C-3.33775879 8.14107422 -2.99631836 7.06535156 -2.64453125 5.95703125 C-2.34909424 5.01835205 -2.05365723 4.07967285 -1.74926758 3.11254883 C-1 1 -1 1 0 0 Z " fill="#523B39" transform="translate(432,179)"/>
<path d="M0 0 C6.74186243 0.63405611 12.99687599 2.20562421 19.5 4.0625 C20.59586426 4.37413086 21.69172852 4.68576172 22.82080078 5.00683594 C123.55399964 34.03532765 123.55399964 34.03532765 143 66 C145.99400022 72.39238488 148.61256432 78.89701245 149 86 C149.061875 86.84433594 149.12375 87.68867188 149.1875 88.55859375 C149.6252279 98.85887839 146.98775423 108.53357442 143 118 C144.24007812 118.25910156 145.48015625 118.51820313 146.7578125 118.78515625 C152.54289093 120.07135769 158.19727411 121.74710247 163.875 123.4375 C171.56097917 125.71392058 179.25735404 127.92351973 187 130 C186.55197021 130.68835938 186.10394043 131.37671875 185.64233398 132.0859375 C183.8760809 135.21987489 182.80986329 138.19686542 181.72265625 141.625 C181.411325 142.59681213 181.411325 142.59681213 181.09370422 143.58825684 C180.41090652 145.72372466 179.73682446 147.86184311 179.0625 150 C178.58550426 151.49566808 178.10778949 152.99110701 177.62939453 154.48632812 C176.61550788 157.65676349 175.60446071 160.82808443 174.59521484 164 C172.14788118 171.68194523 169.66379991 179.35201303 167.17770386 187.02148438 C166.38235785 189.47728111 165.58957941 191.93389577 164.79711914 194.390625 C164.31015289 195.89586384 163.82309705 197.4010737 163.3359375 198.90625 C163.11351883 199.59738892 162.89110016 200.28852783 162.66194153 201.00061035 C161.11389021 205.77221958 161.11389021 205.77221958 160 208 C154.37245718 207.44485157 149.40632812 206.36972189 144.0703125 204.53125 C143.35390594 204.29088013 142.63749939 204.05051025 141.89938354 203.80285645 C139.63880461 203.04228322 137.3819859 202.27116099 135.125 201.5 C133.58876428 200.98241172 132.05230762 200.46547872 130.515625 199.94921875 C119.39522057 196.19761028 119.39522057 196.19761028 117 195 C116.74476563 196.24563721 116.48953125 197.49127441 116.2265625 198.7746582 C114.95179472 204.49862507 113.18217285 210.03074121 111.375 215.60546875 C110.85365479 217.22972527 110.85365479 217.22972527 110.32177734 218.88679504 C109.21827869 222.32158636 108.10919411 225.75454423 107 229.1875 C106.25484663 231.504441 105.51005149 233.82149723 104.765625 236.13867188 C99.1118716 253.72104841 99.1118716 253.72104841 97 260 C96.15236786 257.09804859 95.92732804 254.66956672 96.078125 251.65625 C96.44441912 241.36498647 96.34757535 233.14716836 91 224 C90.53078125 223.18273437 90.0615625 222.36546875 89.578125 221.5234375 C81.91768276 209.20907068 71.03387998 203.56307339 58.5625 196.9375 C57.7880957 196.52588623 57.01369141 196.11427246 56.21582031 195.69018555 C51.93015578 193.44303236 47.60577478 191.33769867 43.19506836 189.34594727 C42.21815536 188.90412613 41.24124237 188.46230499 40.23472595 188.00709534 C39.12853661 187.50858315 39.12853661 187.50858315 38 187 C42.22245984 173.01883265 46.57809937 159.09095225 51.15625 145.22265625 C51.37441376 144.56130047 51.59257751 143.89994469 51.81735229 143.21854782 C53.83736961 137.09717509 55.86418932 130.9780627 57.89453125 124.86010742 C59.02270942 121.45974151 60.14659851 118.05798245 61.26786804 114.65533257 C61.89383584 112.76023962 62.52480996 110.86680266 63.15588379 108.97340393 C63.53047729 107.83628464 63.9050708 106.69916534 64.29101562 105.52758789 C64.62218384 104.5290126 64.95335205 103.53043732 65.29455566 102.50160217 C66.13570589 99.95196271 66.13570589 99.95196271 66 97 C50.65386651 90.42565409 35.15836191 84.49492838 19.375 79.0625 C18.58655701 78.78814117 17.79811401 78.51378235 16.98577881 78.23110962 C7.93205404 75.08971614 -1.07754341 72.31422395 -10.45132446 70.28907776 C-14.13682283 69.48824535 -17.54591158 68.52258621 -21 67 C-19.66250921 59.10260756 -17.42357953 51.65515251 -14.90234375 44.0625 C-14.50801651 42.86061035 -14.11368927 41.6587207 -13.70741272 40.42041016 C-12.87882195 37.89832232 -12.04818941 35.37703721 -11.21362305 32.85693359 C-10.14372364 29.62611016 -9.08030824 26.39320048 -8.01923275 23.1594696 C-7.00323767 20.06394307 -5.98412615 16.9694454 -4.96484375 13.875 C-4.58255112 12.71363525 -4.20025848 11.55227051 -3.80638123 10.35571289 C-3.4525386 9.28699951 -3.09869598 8.21828613 -2.73413086 7.1171875 C-2.42261581 6.17472168 -2.11110077 5.23225586 -1.79014587 4.26123047 C-1 2 -1 2 0 0 Z " fill="#ADCEE4" transform="translate(247,48)"/>
<path d="M0 0 C9.28582064 -0.26484207 18.29519341 0.52573613 27.5 1.6875 C28.20922607 1.77481384 28.91845215 1.86212769 29.64916992 1.9520874 C47.23801078 4.12637003 64.71965908 7.04294714 82 11 C80.54223202 18.19421614 78.4698203 25.04591771 76.15625 32.0078125 C75.78649048 33.13267059 75.41673096 34.25752869 75.0357666 35.41647339 C73.86123037 38.98733247 72.68090609 42.55624297 71.5 46.125 C70.32012857 49.70122932 69.14149326 53.27786009 67.9642334 56.85494995 C67.2336417 59.07372724 66.50138102 61.29195587 65.76721191 63.509552 C64.07172441 68.64814794 62.43325844 73.78187077 61 79 C62.7634375 79.37125 62.7634375 79.37125 64.5625 79.75 C77.36117938 82.61441317 89.82320038 86.40269493 102.25 90.5625 C103.02171539 90.82023193 103.79343079 91.07796387 104.58853149 91.34350586 C115.39233699 94.96576612 126.10054669 98.78412911 136.6875 103 C137.82670898 103.4441626 138.96591797 103.8883252 140.13964844 104.34594727 C141.16993164 104.76803467 142.20021484 105.19012207 143.26171875 105.625 C144.15850342 105.98851562 145.05528809 106.35203125 145.97924805 106.7265625 C148 108 148 108 148.75965881 109.62509155 C149.11220289 113.10872217 147.9778188 116.02022554 146.86621094 119.27197266 C146.62733658 119.9977652 146.38846222 120.72355774 146.14234924 121.47134399 C145.34947527 123.87228545 144.54195459 126.26803155 143.734375 128.6640625 C143.17867492 130.33801246 142.62394052 132.01228328 142.07012939 133.68685913 C140.60735545 138.10180734 139.13233088 142.5125647 137.65447998 146.92248535 C135.87115488 152.25091972 134.1015375 157.5839173 132.33050919 162.91644859 C130.94985035 167.07298598 129.56702685 171.22875579 128.17718506 175.38223267 C125.66863635 182.88885156 123.18753752 190.39171912 121 198 C117.28967779 197.30020162 114.0433245 196.32192562 110.546875 194.8828125 C109.46921875 194.44598145 108.3915625 194.00915039 107.28125 193.55908203 C106.1159375 193.08583496 104.950625 192.61258789 103.75 192.125 C83.25444622 183.95001975 62.25755304 176.22463759 40.6953125 171.39306641 C37.2748493 170.62575268 34.95614572 169.97076381 32 168 C33.30955736 160.3711239 35.40883774 153.17248787 37.8515625 145.8359375 C38.41815079 144.11136826 38.41815079 144.11136826 38.9961853 142.35195923 C40.20037777 138.69116337 41.41257817 135.03307751 42.625 131.375 C43.41588623 128.97413011 44.2062549 126.57308966 44.99609375 124.171875 C49.95841938 109.1016501 54.97245466 94.04857584 60 79 C33.18805779 73.38636176 6.19652013 70.09572531 -21 67 C-20.8138916 66.38253906 -20.6277832 65.76507813 -20.43603516 65.12890625 C-19.17747364 60.94484595 -17.92557109 56.75954378 -16.7109375 52.5625 C-13.52863029 41.6505392 -9.96992876 30.90666443 -6.15966797 20.19726562 C-3.80427912 13.53040542 -1.75556233 6.84983561 0 0 Z " fill="#5D4642" transform="translate(165,36)"/>
<path d="M0 0 C1.77490234 0.20605469 1.77490234 0.20605469 4.0859375 0.671875 C4.92817871 0.84009766 5.77041992 1.00832031 6.63818359 1.18164062 C7.99290771 1.46297852 7.99290771 1.46297852 9.375 1.75 C10.29748535 1.93755859 11.2199707 2.12511719 12.17041016 2.31835938 C16.62030093 3.23864736 21.01540742 4.20933114 25.375 5.5 C30.86441034 7.08835085 36.44701237 8.0960666 42.0625 9.125 C43.44671143 9.38120117 43.44671143 9.38120117 44.85888672 9.64257812 C50.88876696 10.72191486 56.89651714 11.48262962 63 12 C61.56246444 15.11407244 59.8242439 17.69862696 57.734375 20.4140625 C57.09113281 21.25839844 56.44789063 22.10273438 55.78515625 22.97265625 C54.44549456 24.71858771 53.10438611 26.46341017 51.76171875 28.20703125 C45.68793286 36.18868627 40.20679232 44.25868871 36.8125 53.75 C36.5654834 54.43771484 36.3184668 55.12542969 36.06396484 55.83398438 C27.08749714 81.54874994 31.5171875 108.82803894 34.0625 135.375 C34.57895419 140.77750627 35.0878418 146.18058006 35.5817852 151.58519363 C35.77942836 153.71180622 35.98856068 155.8370658 36.19850159 157.9624939 C37.81586381 175.49797695 37.81586381 175.49797695 34.25 182.375 C30.29058726 186.99431487 26.87888329 189.40117013 21 191 C-5.12501325 191.99840815 -32.60742216 184.52630467 -58 179 C-57.36887908 172.18193517 -55.18774498 165.9783168 -53.02734375 159.5078125 C-52.41334747 157.64415357 -51.79935196 155.78049439 -51.18539524 153.91682243 C-50.32384523 151.30667397 -49.4568469 148.69834763 -48.58996582 146.08996582 C-46.68628363 140.35683725 -44.7962059 134.61918953 -42.90234375 128.8828125 C-42.47890783 127.60222016 -42.05546118 126.32163138 -41.63200378 125.04104614 C-39.09199759 117.35327208 -36.59511798 109.65298823 -34.140625 101.9375 C-29.07681449 86.02804009 -23.83845159 70.17580622 -18.61663818 54.31768799 C-17.5383573 51.04225123 -16.46106003 47.76649134 -15.38379383 44.49072075 C-14.07526985 40.5119124 -12.76616894 36.53329395 -11.45703125 32.5546875 C-11.0965718 31.45897242 -11.0965718 31.45897242 -10.72883034 30.34112167 C-9.37715001 26.23300547 -8.02259112 22.12585532 -6.66559219 18.0194931 C-5.96854009 15.90454656 -5.27631606 13.78805351 -4.58432007 11.67144775 C-4.13012733 10.29020894 -3.67583623 8.90900246 -3.22143555 7.52783203 C-2.81821579 6.29662628 -2.41499603 5.06542053 -1.9995575 3.79690552 C-1 1 -1 1 0 0 Z " fill="#644E4A" transform="translate(407,257)"/>
<path d="M0 0 C26.64123894 -1.01665964 56.5423676 3.0032221 82 11 C80.76849752 17.08065522 79.15777231 22.89144595 77.125 28.75 C75.39323689 33.78952228 73.73062339 38.83911296 72.17993164 43.93774414 C70.02952217 50.94757237 67.7721535 57.91940123 65.48828125 64.88671875 C65.07035318 66.16370341 64.65248223 67.44070676 64.23466492 68.71772766 C63.3690526 71.3624479 62.50258006 74.0068843 61.63549805 76.65112305 C60.52402904 80.04096982 59.41507035 83.43163208 58.30675983 86.82251263 C57.24371745 90.07355687 56.17838293 93.32384858 55.11328125 96.57421875 C54.71538895 97.79179367 54.31749664 99.00936859 53.907547 100.26383972 C53.54013901 101.38293228 53.17273102 102.50202484 52.79418945 103.6550293 C52.47094193 104.64174118 52.1476944 105.62845306 51.81465149 106.64506531 C51 109 51 109 50 111 C43.56781131 111.32568044 37.71552817 110.0633652 31.4375 108.75 C10.48985583 104.54608343 -10.74101245 102.03486531 -32 100 C-29.94318179 91.96661577 -27.40201598 84.18528478 -24.625 76.375 C-21.90144818 68.6211815 -19.30518925 60.8965189 -17.09643555 52.98071289 C-14.45849366 43.78040867 -11.18062543 34.77059908 -8.00830078 25.74365234 C-5.03138588 17.23495126 -2.37301714 8.69823885 0 0 Z " fill="#533B39" transform="translate(114,193)"/>
<path d="M0 0 C15.80478106 0.46348332 31.36581936 2.76498964 47 5 C48.46977295 5.20544434 48.46977295 5.20544434 49.96923828 5.41503906 C60.56072046 6.90449663 70.73158101 8.97626526 81 12 C79.45501519 19.76652582 77.10182777 27.15134417 74.60546875 34.66015625 C74.17148645 35.97646169 73.73792665 37.29290649 73.30476379 38.60948181 C72.16787046 42.06177928 71.02603198 45.51241927 69.88287354 48.96264648 C68.7365763 52.42417638 67.59375906 55.8868534 66.45117188 59.34960938 C66.2289049 60.02317663 66.00663792 60.69674389 65.77763557 61.39072227 C63.51208118 68.25840217 61.25416306 75.12857214 59 82 C58.69306213 82.93156921 58.38612427 83.86313843 58.06988525 84.82293701 C57.32643953 87.0865323 56.59243069 89.35286145 55.86328125 91.62109375 C55.49114502 92.76892334 55.11900879 93.91675293 54.7355957 95.09936523 C54.03275105 97.87085454 53.84243422 100.15687914 54 103 C53.01 103.495 53.01 103.495 52 104 C52 103.01 52 102.02 52 101 C51.12730469 100.88527344 50.25460938 100.77054687 49.35546875 100.65234375 C43.31387436 99.78882524 37.31718789 98.64821847 31.3125 97.5625 C11.20585141 93.93317993 -8.58249469 90.97104531 -29 90 C-26.56213627 80.51046365 -23.55849337 71.22565645 -20.52734375 61.9140625 C-19.99816162 60.28272079 -19.46915785 58.65132122 -18.94032288 57.01986694 C-17.83837782 53.62225504 -16.73468416 50.22521803 -15.62963867 46.82861328 C-14.2156178 42.48200897 -12.80542978 38.13417281 -11.39646053 33.78592873 C-10.30739728 30.42603329 -9.21662588 27.0666944 -8.12530708 23.70753098 C-7.60456476 22.10414756 -7.08427934 20.50061568 -6.56446648 18.89693069 C-5.83885525 16.65941251 -5.11101891 14.42263032 -4.38256836 12.18603516 C-4.17005432 11.52933838 -3.95754028 10.8726416 -3.73858643 10.19604492 C-2.61097898 6.74251509 -1.39256611 3.35567062 0 0 Z " fill="#C0D9E9" transform="translate(144,103)"/>
<path d="M0 0 C6.74186243 0.63405611 12.99687599 2.20562421 19.5 4.0625 C20.59586426 4.37413086 21.69172852 4.68576172 22.82080078 5.00683594 C42.84163467 10.77628054 62.13291958 17.83509732 81.3347168 25.89013672 C83.88085912 26.95038798 86.43666917 27.98210856 89 29 C85.94600908 44.26995461 80.73802539 58.92880043 75.56640625 73.58300781 C73.08382498 80.65990165 70.84591301 87.72974242 69 95 C64.82594718 96.19211552 62.58632851 95.78710296 58.6171875 94.11328125 C57.54960205 93.67508057 56.4820166 93.23687988 55.38208008 92.78540039 C53.64607544 92.0563147 53.64607544 92.0563147 51.875 91.3125 C49.35776409 90.29054596 46.83930848 89.27334637 44.31640625 88.265625 C43.65321884 88.00040543 42.99003143 87.73518585 42.30674744 87.46192932 C34.96420053 84.55011602 27.53051653 81.9111418 20.06329346 79.33847046 C18.58927101 78.83029506 17.11636065 78.31887965 15.64471436 77.80386353 C7.06392631 74.80545825 -1.48292815 72.24267619 -10.37162781 70.31459045 C-14.08213071 69.50361691 -17.52198571 68.53440568 -21 67 C-19.66250921 59.10260756 -17.42357953 51.65515251 -14.90234375 44.0625 C-14.50801651 42.86061035 -14.11368927 41.6587207 -13.70741272 40.42041016 C-12.87882195 37.89832232 -12.04818941 35.37703721 -11.21362305 32.85693359 C-10.14372364 29.62611016 -9.08030824 26.39320048 -8.01923275 23.1594696 C-7.00323767 20.06394307 -5.98412615 16.9694454 -4.96484375 13.875 C-4.58255112 12.71363525 -4.20025848 11.55227051 -3.80638123 10.35571289 C-3.4525386 9.28699951 -3.09869598 8.21828613 -2.73413086 7.1171875 C-2.42261581 6.17472168 -2.11110077 5.23225586 -1.79014587 4.26123047 C-1 2 -1 2 0 0 Z " fill="#D9E7EF" transform="translate(247,48)"/>
<path d="M0 0 C8.80602282 0.0992013 17.52134733 2.12282013 26.125 3.8125 C37.41949926 6.00616502 48.70900098 8.01693724 60.11962891 9.53051758 C66.77864858 10.49865676 71.80661455 11.911891 76.77734375 16.71875 C80.59402025 22.57869776 81.20723675 28.14110673 80 35 C77.00740064 42.90096318 70.50438632 49.51686889 65.21484375 56.00390625 C62.01573392 59.94640983 58.96742034 63.98936283 55.9375 68.0625 C55.44113037 68.71943848 54.94476074 69.37637695 54.43334961 70.05322266 C51.9372759 73.36040829 49.51413262 76.69224336 47.1875 80.12109375 C46.27101655 81.41419237 45.35435731 82.70716643 44.4375 84 C43.85826782 84.90890991 43.85826782 84.90890991 43.26733398 85.83618164 C41.41869344 88.38081611 39.75257636 89.85922249 36.63769531 90.44189453 C29.60342475 90.61238403 22.73921101 89.28051637 15.875 87.875 C14.76568115 87.65561768 13.6563623 87.43623535 12.51342773 87.21020508 C3.23015288 85.33757944 -5.97953992 83.17676478 -15.16650391 80.88037109 C-16.15183105 80.63496582 -17.1371582 80.38956055 -18.15234375 80.13671875 C-19.01851318 79.91717529 -19.88468262 79.69763184 -20.77709961 79.47143555 C-23.11039738 78.89626659 -23.11039738 78.89626659 -26 79 C-23.81437422 70.37795532 -21.06067031 61.97105849 -18.21499634 53.5506897 C-16.87894996 49.59719436 -15.55220183 45.64058893 -14.2265625 41.68359375 C-13.82299278 40.47941048 -13.82299278 40.47941048 -13.41127014 39.25090027 C-11.58029634 33.77338107 -9.78750319 28.28457148 -8.0234375 22.78515625 C-7.79159256 22.06248566 -7.55974762 21.33981506 -7.32087708 20.59524536 C-6.22042153 17.15983804 -5.12530125 13.72279426 -4.03491211 10.28417969 C-3.64827393 9.0727832 -3.26163574 7.86138672 -2.86328125 6.61328125 C-2.52594971 5.54891846 -2.18861816 4.48455566 -1.84106445 3.38793945 C-1 1 -1 1 0 0 Z " fill="#624C47" transform="translate(432,179)"/>
<path d="M0 0 C4.72147785 1.44045087 9.05217176 3.38698159 13.4375 5.625 C14.13053223 5.97763916 14.82356445 6.33027832 15.53759766 6.69360352 C16.97942122 7.42955132 18.42017063 8.16760714 19.85986328 8.90771484 C21.90722649 9.95265016 23.96548923 10.97231702 26.02734375 11.98828125 C41.18655373 19.5840718 52.34983993 29.79134932 58.06640625 46.00390625 C59.12741162 49.40889002 59.80537392 52.43185522 60 56 C60.061875 56.84433594 60.12375 57.68867188 60.1875 58.55859375 C60.70756826 70.79644994 56.55013607 81.93195832 52.21020508 93.17016602 C50.29094094 98.14601366 48.6655469 103.16023594 47.14453125 108.2734375 C44.59692954 116.5683591 41.7666085 124.77598796 39 133 C38.67 133 38.34 133 38 133 C37.89042969 131.865625 37.78085937 130.73125 37.66796875 129.5625 C37.50836899 128.04160817 37.3481812 126.52077796 37.1875 125 C37.11724609 124.25621094 37.04699219 123.51242188 36.97460938 122.74609375 C35.62921966 110.36850835 29.74418711 98.64010126 20.66015625 90.1171875 C12.01489453 83.23652398 1.53585009 78.69229466 -8.33203125 73.83203125 C-12.63832064 71.70050113 -16.83135483 69.38782753 -21 67 C-18.62928428 56.80871547 -15.78871196 46.94099498 -12.28143311 37.08404541 C-11.05049971 33.62282246 -9.84278396 30.15354707 -8.63671875 26.68359375 C-8.40329773 26.01271729 -8.16987671 25.34184082 -7.92938232 24.65063477 C-5.66026218 18.08966612 -3.66994923 11.47405161 -1.8046875 4.7890625 C-1 2 -1 2 0 0 Z " fill="#543D3B" transform="translate(336,78)"/>
<path d="M0 0 C1.77490234 0.20605469 1.77490234 0.20605469 4.0859375 0.671875 C4.92817871 0.84009766 5.77041992 1.00832031 6.63818359 1.18164062 C7.54133301 1.36919922 8.44448242 1.55675781 9.375 1.75 C10.29748535 1.93755859 11.2199707 2.12511719 12.17041016 2.31835938 C16.62030093 3.23864736 21.01540742 4.20933114 25.375 5.5 C30.86441034 7.08835085 36.44701237 8.0960666 42.0625 9.125 C43.44671143 9.38120117 43.44671143 9.38120117 44.85888672 9.64257812 C50.88876696 10.72191486 56.89651714 11.48262962 63 12 C61.56246444 15.11407244 59.8242439 17.69862696 57.734375 20.4140625 C57.09113281 21.25839844 56.44789063 22.10273438 55.78515625 22.97265625 C54.44549456 24.71858771 53.10438611 26.46341017 51.76171875 28.20703125 C45.68814843 36.18840299 40.20594552 44.2586135 36.8125 53.75 C36.5654834 54.43916504 36.3184668 55.12833008 36.06396484 55.83837891 C30.66020561 71.34342274 30.64139314 85.69534157 31 102 C22.99354965 101.43032217 15.10927283 100.53990232 7.1875 99.25 C5.59518555 98.99101929 5.59518555 98.99101929 3.97070312 98.72680664 C-3.71638731 97.44429902 -11.36930704 96.02137656 -19 94.4375 C-19.99104736 94.23995117 -20.98209473 94.04240234 -22.00317383 93.83886719 C-22.90962646 93.64325195 -23.8160791 93.44763672 -24.75 93.24609375 C-25.54921875 93.07779053 -26.3484375 92.9094873 -27.171875 92.73608398 C-28.07679688 92.37172241 -28.07679688 92.37172241 -29 92 C-30.33599603 87.99201192 -29.31695471 86.19216998 -27.98974609 82.19628906 C-27.76383789 81.50793472 -27.53792969 80.81958038 -27.30517578 80.11036682 C-26.55307623 77.82588627 -25.78831685 75.54585532 -25.0234375 73.265625 C-24.49512459 71.6694257 -23.96759955 70.07296544 -23.44082642 68.47625732 C-22.04666824 64.25761719 -20.64175385 60.0426347 -19.23461914 55.82830811 C-17.82312002 51.59471273 -16.42175162 47.35776939 -15.01953125 43.12109375 C-12.71320445 36.15760783 -10.40313361 29.19538359 -8.0788784 22.23785782 C-6.89800934 18.70237891 -5.72439089 15.16478372 -4.56427002 11.62243652 C-4.33485025 10.92507763 -4.10543049 10.22771873 -3.86905861 9.50922775 C-3.24020168 7.59670719 -2.61422349 5.68324075 -1.98843384 3.76971436 C-1 1 -1 1 0 0 Z " fill="#CFE1EC" transform="translate(407,257)"/>
<path d="M0 0 C8.03596237 1.60719247 15.82932831 3.95561384 23.67138672 6.3046875 C27.63122862 7.48707686 31.59717181 8.64867114 35.5625 9.8125 C37.00132936 10.23558435 38.44013403 10.65875265 39.87890625 11.08203125 C40.90886719 11.38496094 41.93882812 11.68789063 43 12 C39.40360676 25.58111658 35.0776512 38.8477908 30.47338867 52.11236572 C26.60293333 63.26430446 22.85321069 74.44623676 19.25 85.6875 C19.03154419 86.36882996 18.81308838 87.05015991 18.5880127 87.75213623 C17.38741839 91.49996824 16.19147304 95.24925887 15 99 C9.6667785 98.43899524 4.82074903 97.52048828 -0.33203125 95.9609375 C-1.00272644 95.75907837 -1.67342163 95.55721924 -2.36444092 95.34924316 C-4.51612584 94.69855882 -6.66442131 94.03748343 -8.8125 93.375 C-9.54322723 93.15201233 -10.27395447 92.92902466 -11.02682495 92.69927979 C-22.50470909 89.19506546 -33.82964926 85.39823458 -45 81 C-45 80.01 -45 79.02 -45 78 C-42.2756595 76.29728719 -39.95476399 75.81027741 -36.8125 75.5 C-35.554375 75.335 -34.29625 75.17 -33 75 C-32.505 74.01 -32.505 74.01 -32 73 C-30.9171875 72.443125 -30.9171875 72.443125 -29.8125 71.875 C-20.42194727 65.61463151 -17.05085461 53.94086395 -14.3125 43.5625 C-11.07825395 31.76137784 -7.05337713 20.2601298 -2.95800781 8.73461914 C-1.94143398 5.83282417 -0.96560706 2.91910855 0 0 Z " fill="#CFE2ED" transform="translate(334,336)"/>
<path d="M0 0 C0.99 0 1.98 0 3 0 C10.05316956 13.35655349 16.93086183 26.78843946 23.65118408 40.31463623 C27.82607297 48.71528506 32.05752356 57.0764668 36.56323242 65.30615234 C39 69.79716818 39 69.79716818 39 72 C29.68702176 71.39667077 20.4916308 70.34761046 11.25 69.0625 C8.61732399 68.70342494 5.98451183 68.34534665 3.3515625 67.98828125 C2.09375977 67.8176416 0.83595703 67.64700195 -0.45996094 67.47119141 C-7.29668741 66.56119954 -14.14552644 65.76384163 -21 65 C-20.8138916 64.38253906 -20.6277832 63.76507813 -20.43603516 63.12890625 C-19.17747364 58.94484595 -17.92557109 54.75954378 -16.7109375 50.5625 C-12.90414633 37.50636244 -8.50285428 24.68644792 -3.99462891 11.85791016 C-2.62343099 7.91798801 -1.30674657 3.96172373 0 0 Z " fill="#513B38" transform="translate(165,38)"/>
<path d="M0 0 C7.92733807 2.14987036 15.841478 4.3444887 23.75 6.5625 C25.37615234 7.01786133 25.37615234 7.01786133 27.03515625 7.48242188 C32.36071337 8.97474832 37.68411041 10.47358027 43 12 C42.56518311 12.65250732 42.13036621 13.30501465 41.68237305 13.97729492 C39.63373803 17.65805971 38.37783994 21.36754753 37.08203125 25.36328125 C36.81992355 26.15526413 36.55781586 26.94724701 36.2877655 27.76322937 C35.45699443 30.27782185 34.63463946 32.79507386 33.8125 35.3125 C33.24860143 37.02427133 32.68415417 38.735862 32.11914062 40.44726562 C30.73973252 44.62944567 29.3678625 48.81403024 28 53 C27.34 53 26.68 53 26 53 C25.07291667 51.14583333 24.14583333 49.29166667 23.21875 47.4375 C22.92942596 46.85889725 22.64010193 46.28029449 22.3420105 45.68415833 C20.74796623 42.49625591 19.15422263 39.30820375 17.56103516 36.11987305 C13.50463459 28.00255318 13.50463459 28.00255318 9.4296875 19.89453125 C6.12300441 13.32926227 2.89701584 6.75970363 0 0 Z " fill="#DFEBF0" transform="translate(391,166)"/>
<path d="M0 0 C6.34613058 0.77081539 12.67273805 1.65050155 19 2.5625 C19.96550781 2.70107422 20.93101562 2.83964844 21.92578125 2.98242188 C24.28394751 3.3209705 26.64201713 3.66017682 29 4 C26.79334755 8.72287124 23.65288207 12.62594818 20.5 16.75 C19.60861328 17.93916016 19.60861328 17.93916016 18.69921875 19.15234375 C18.12816406 19.90128906 17.55710937 20.65023438 16.96875 21.421875 C16.44732422 22.10862305 15.92589844 22.79537109 15.38867188 23.50292969 C14.7012793 24.24397949 14.7012793 24.24397949 14 25 C13.34 25 12.68 25 12 25 C9.99679122 21.02244073 7.99797111 17.04269245 6 13.0625 C5.42765625 11.92619141 4.8553125 10.78988281 4.265625 9.61914062 C3.72421875 8.53955078 3.1828125 7.45996094 2.625 6.34765625 C2.12226563 5.34742432 1.61953125 4.34719238 1.1015625 3.31665039 C0 1 0 1 0 0 Z " fill="#DFEAF0" transform="translate(441,265)"/>
<path d="M0 0 C7.03128878 0.43384548 13.329015 1.74321997 20 4 C18.55613874 11.21930632 16.42211826 18.05110733 14 25 C13.34 25 12.68 25 12 25 C9.99679122 21.02244073 7.99797111 17.04269245 6 13.0625 C5.42765625 11.92619141 4.8553125 10.78988281 4.265625 9.61914062 C3.72421875 8.53955078 3.1828125 7.45996094 2.625 6.34765625 C2.12226563 5.34742432 1.61953125 4.34719238 1.1015625 3.31665039 C0 1 0 1 0 0 Z " fill="#DFEAEF" transform="translate(205,111)"/>
<path d="M0 0 C0.33 0 0.66 0 1 0 C1 1.65 1 3.3 1 5 C1.66 5 2.32 5 3 5 C1.515 10.445 1.515 10.445 0 16 C-0.97504245 12.09983019 -0.94810969 9.69178796 -0.5625 5.75 C-0.46066406 4.67234375 -0.35882813 3.5946875 -0.25390625 2.484375 C-0.17011719 1.66453125 -0.08632813 0.8446875 0 0 Z " fill="#90ABC0" transform="translate(344,292)"/>
<path d="M0 0 C3.3 0 6.6 0 10 0 C9.01 0.495 9.01 0.495 8 1 C8 1.66 8 2.32 8 3 C4.62537285 2.45276317 2.91765 1.9451 0 0 Z " fill="#ADCFE5" transform="translate(281,413)"/>
</svg>
