<?xml version="1.0" encoding="UTF-8"?>
<svg version="1.1" xmlns="http://www.w3.org/2000/svg" width="512" height="512">
<path d="M0 0 C1.12046589 -0.00644889 2.24093177 -0.01289778 3.39535117 -0.0195421 C4.61615638 -0.01644489 5.83696159 -0.01334769 7.09476089 -0.01015663 C8.39956854 -0.01468774 9.70437619 -0.01921886 11.04872346 -0.02388728 C14.66439037 -0.03610842 18.27996468 -0.03585786 21.89564753 -0.03349853 C25.79762475 -0.03309013 29.69957239 -0.0441317 33.6015358 -0.05361366 C41.24422494 -0.07022006 48.88688323 -0.07572306 56.52958891 -0.07683842 C62.74313306 -0.07778912 68.95666704 -0.08190051 75.17020798 -0.08823967 C92.79211671 -0.10585155 110.41400109 -0.11507869 128.03591868 -0.11357872 C129.46064708 -0.11345885 129.46064708 -0.11345885 130.91415787 -0.11333656 C132.34062879 -0.11321392 132.34062879 -0.11321392 133.7959173 -0.1130888 C149.20502129 -0.11227605 164.6140275 -0.13141123 180.02310321 -0.1596133 C195.8503021 -0.1883517 211.67745332 -0.20215305 227.50467896 -0.20042574 C236.3883224 -0.19976215 245.27186333 -0.20524117 254.15548325 -0.22678185 C261.71986304 -0.24500628 269.28409389 -0.24933068 276.84848616 -0.235763 C280.70597858 -0.22923952 284.56318535 -0.22909341 288.42065048 -0.2464695 C292.60780896 -0.26513623 296.79430805 -0.25262954 300.98147964 -0.23720741 C302.19336197 -0.24749454 303.40524429 -0.25778167 304.65385032 -0.26838052 C314.33028432 -0.18968202 322.54325191 1.81319128 329.76083755 8.55414391 C335.64712989 15.10114252 338.53861448 22.12923986 338.54935646 30.96469307 C338.55286254 31.61695567 338.55636861 32.26921826 338.55998093 32.94124639 C338.56927545 35.1241265 338.56437675 37.30673868 338.55951309 39.48962975 C338.56325034 41.0716067 338.56785216 42.6535818 338.57324374 44.23555398 C338.58547999 48.58091728 338.58521253 52.92620362 338.58285499 57.27158022 C338.58244698 61.95883846 338.59348448 66.64607198 338.60297012 71.33331871 C338.61958471 80.516069 338.62507988 89.69879361 338.62619488 98.88155767 C338.62714517 106.34605475 338.63125452 113.81054336 338.63759613 121.27503777 C338.65521007 142.43854745 338.6644348 163.60203685 338.66293518 184.76555392 C338.66285527 185.90654057 338.66277536 187.04752722 338.66269302 188.22308922 C338.66261126 189.36546918 338.6625295 190.50784914 338.66244526 191.68484667 C338.6616324 210.1978763 338.68076979 228.71082457 338.70896976 247.22383067 C338.73769721 266.23314332 338.75151012 285.24241628 338.7497822 304.25175118 C338.74911824 314.92391091 338.75461341 325.59598535 338.77613831 336.26812553 C338.79434829 345.35496627 338.79869894 354.44168306 338.78511946 363.52853414 C338.77858881 368.16371139 338.77847611 372.79865083 338.79582596 377.43380547 C338.81155749 381.6803387 338.8086923 385.92644558 338.79125769 390.17296842 C338.78818796 391.70593318 338.79181921 393.23892977 338.80297785 394.77185699 C338.87804635 405.81965279 337.82350565 415.34421013 329.99521255 423.72601891 C322.4400116 430.51876839 314.75685889 432.56605308 304.79843521 432.48431969 C303.39260681 432.48475777 303.39260681 432.48475777 301.95837784 432.4852047 C298.87420629 432.48381628 295.79027918 432.46827799 292.70615005 432.45258141 C290.56238309 432.44884954 288.41861441 432.44600339 286.27484512 432.44400597 C280.64256425 432.43638318 275.01038712 432.41674626 269.37814713 432.39459801 C263.62681863 432.37411043 257.87547331 432.36499802 252.1241188 432.35492516 C240.84672957 432.33349914 229.5694172 432.29937949 218.29208755 432.25726891 C218.31303482 433.08452477 218.33398209 433.91178062 218.35556412 434.76410484 C218.43870375 438.51170261 218.49074286 442.2591064 218.54208755 446.00726891 C218.57560318 447.30922203 218.6091188 448.61117516 218.64365005 449.95258141 C218.65654068 451.20297203 218.6694313 452.45336266 218.68271255 453.74164391 C218.70365982 454.89374352 218.72460709 456.04584312 218.74618912 457.23285484 C218.29208755 460.25726891 218.29208755 460.25726891 214.29208755 464.25726891 C210.33208755 464.25726891 206.37208755 464.25726891 202.29208755 464.25726891 C202.29208755 474.81726891 202.29208755 485.37726891 202.29208755 496.25726891 C170.61208755 496.25726891 138.93208755 496.25726891 106.29208755 496.25726891 C106.29208755 485.69726891 106.29208755 475.13726891 106.29208755 464.25726891 C102.33208755 464.25726891 98.37208755 464.25726891 94.29208755 464.25726891 C90.29208755 460.25726891 90.29208755 460.25726891 89.83798599 457.23285484 C89.85893326 456.08075523 89.87988052 454.92865562 89.90146255 453.74164391 C89.91435318 452.49125328 89.9272438 451.24086266 89.94052505 449.95258141 C89.97404068 448.65062828 90.0075563 447.34867516 90.04208755 446.00726891 C90.06013443 444.68984703 90.0781813 443.37242516 90.09677505 442.01508141 C90.14392485 438.76174583 90.20972712 435.50987266 90.29208755 432.25726891 C89.11159836 432.26615135 87.93110916 432.2750338 86.71484756 432.28418541 C75.56317875 432.36544495 64.41157041 432.42531764 53.25967216 432.46451759 C47.52702446 432.48534854 41.79461672 432.51358422 36.06210709 432.55902672 C30.5248251 432.60264447 24.98777323 432.62643977 19.45033264 432.63677788 C17.34291718 432.64414068 15.23551361 432.65851829 13.12819672 432.68018913 C10.16513967 432.70943469 7.20302073 432.71321607 4.23984146 432.71137047 C3.37812332 432.72575157 2.51640518 432.74013268 1.62857437 432.75494957 C-7.01794336 432.69707504 -14.80774847 429.90871922 -21.17666245 423.96039391 C-27.06295478 417.41339529 -29.95443937 410.38529795 -29.96518135 401.54984474 C-29.96868743 400.89758215 -29.9721935 400.24531955 -29.97580582 399.57329142 C-29.98510034 397.39041131 -29.98020164 395.20779913 -29.97533798 393.02490807 C-29.97907523 391.44293111 -29.98367705 389.86095601 -29.98906863 388.27898383 C-30.00130488 383.93362053 -30.00103742 379.58833419 -29.99867988 375.24295759 C-29.99827187 370.55569935 -30.00930937 365.86846583 -30.01879501 361.1812191 C-30.0354096 351.99846881 -30.04090477 342.8157442 -30.04201977 333.63298014 C-30.04297006 326.16848306 -30.04707941 318.70399445 -30.05342102 311.23950005 C-30.07103496 290.07599036 -30.08025969 268.91250096 -30.07876007 247.74898389 C-30.07868016 246.60799724 -30.07860025 245.46701059 -30.07851791 244.29144859 C-30.07843615 243.14906863 -30.07835439 242.00668868 -30.07827015 240.82969114 C-30.07745729 222.31666151 -30.09659468 203.80371324 -30.12479465 185.29070714 C-30.1535221 166.2813945 -30.16733501 147.27212153 -30.16560709 128.26278663 C-30.16494313 117.5906269 -30.1704383 106.91855246 -30.1919632 96.24641228 C-30.21017318 87.15957154 -30.21452383 78.07285475 -30.20094435 68.98600367 C-30.1944137 64.35082642 -30.194301 59.71588698 -30.21165085 55.08073235 C-30.22738238 50.83419911 -30.22451719 46.58809223 -30.20708258 42.34156939 C-30.20401285 40.80860463 -30.2076441 39.27560804 -30.21880274 37.74268082 C-30.29387124 26.69488502 -29.23933054 17.17032768 -21.41103745 8.78851891 C-15.26052839 3.25870342 -8.34954985 0.01219768 0 0 Z " fill="#000000" transform="translate(101.70791244506836,7.742731094360352)"/>
<path d="M0 0 C89.76 0 179.52 0 272 0 C272 68.64 272 137.28 272 208 C182.24 208 92.48 208 0 208 C0 139.36 0 70.72 0 0 Z " fill="#EAF6FD" transform="translate(120,56)"/>
<path d="M0 0 C89.76 0 179.52 0 272 0 C272 36.96 272 73.92 272 112 C182.24 112 92.48 112 0 112 C0 75.04 0 38.08 0 0 Z " fill="#C6E1FA" transform="translate(120,280)"/>
<path d="M0 0 C1.32299355 -0.01248528 1.32299355 -0.01248528 2.67271423 -0.02522278 C5.58434488 -0.04928767 8.49575119 -0.05809179 11.4074707 -0.06469727 C13.43903163 -0.07366813 15.47059189 -0.08279006 17.50215149 -0.09205627 C21.76154178 -0.10854061 26.02085353 -0.11624506 30.28027344 -0.11914062 C35.7196901 -0.12451564 41.15836104 -0.16216201 46.59756756 -0.20788479 C50.79538111 -0.23773505 54.99301708 -0.24486596 59.19092751 -0.24586678 C61.19507058 -0.2500553 63.19921485 -0.26243423 65.20325279 -0.28338432 C85.98495536 -0.48329467 85.98495536 -0.48329467 93.14575195 5.30639648 C96.0881085 8.37516262 98.36806913 11.34163654 99.94482422 15.32519531 C102.38310665 21.44267757 105.49048789 25.10636794 110.33325195 29.49389648 C122.81875872 41.39657515 132.85410511 56.69447443 133.4362793 74.47802734 C133.46273394 76.40897642 133.4773056 78.34011492 133.48168945 80.27124023 C133.49167465 81.82035851 133.49167465 81.82035851 133.50186157 83.40077209 C133.51194206 85.57494334 133.51668003 87.74914525 133.51635742 89.92333984 C133.52073434 93.2305842 133.55711451 96.5364967 133.5949707 99.84350586 C133.60083925 101.96524613 133.60480839 104.08699268 133.60668945 106.20874023 C133.62106049 107.18713364 133.63543152 108.16552704 133.65023804 109.17356873 C133.59830209 117.06107459 131.72795368 124.45443329 125.95825195 130.18139648 C118.51673718 136.9765085 111.27650889 136.30639648 101.14575195 136.30639648 C101.14575195 144.22639648 101.14575195 152.14639648 101.14575195 160.30639648 C114.34575195 160.30639648 127.54575195 160.30639648 141.14575195 160.30639648 C141.14575195 165.58639648 141.14575195 170.86639648 141.14575195 176.30639648 C72.50575195 176.30639648 3.86575195 176.30639648 -66.85424805 176.30639648 C-66.85424805 171.02639648 -66.85424805 165.74639648 -66.85424805 160.30639648 C-53.65424805 160.30639648 -40.45424805 160.30639648 -26.85424805 160.30639648 C-26.88566895 153.91683594 -26.88566895 153.91683594 -26.91772461 147.39819336 C-26.98400164 133.32463306 -27.02839023 119.25106662 -27.06149673 105.17739105 C-27.08210375 96.64446547 -27.11018863 88.11168796 -27.15600586 79.57885742 C-27.19593076 72.13983194 -27.22169439 64.70091372 -27.23060203 57.26178408 C-27.23580725 53.32440694 -27.24800221 49.3873366 -27.27716827 45.45005798 C-27.30442701 41.74001263 -27.31267215 38.0303989 -27.30667877 34.32026291 C-27.30829464 32.31787343 -27.32976253 30.31553038 -27.35192871 28.31326294 C-27.31350408 19.88707979 -26.41479489 14.31917736 -20.6706543 7.84545898 C-19.92686523 7.21381836 -19.18307617 6.58217773 -18.41674805 5.93139648 C-17.67553711 5.28428711 -16.93432617 4.63717773 -16.1706543 3.97045898 C-10.91449289 0.19453191 -6.25687246 0.00503129 0 0 Z " fill="#000000" transform="translate(218.854248046875,71.693603515625)"/>
<path d="M0 0 C1.02750665 -0.01180534 2.0550133 -0.02361068 3.11365652 -0.03577375 C4.79676609 -0.01699698 4.79676609 -0.01699698 6.51387787 0.00215912 C7.71110301 -0.0042297 8.90832814 -0.01061852 10.14183283 -0.01720095 C13.46206426 -0.02982426 16.78085811 -0.02001018 20.10096669 -0.00068617 C23.68249633 0.01473538 27.26393325 0.00134041 30.84546661 -0.00843048 C37.86039715 -0.02296262 44.87503843 -0.01071756 51.88994157 0.01068276 C60.05745082 0.03468539 68.22489368 0.03297884 76.39243037 0.03037685 C90.96450781 0.02668594 105.5364489 0.04751845 120.10848236 0.08162689 C134.25142106 0.11471872 148.39421666 0.12888527 162.5371933 0.12264252 C177.93451553 0.11587953 193.33177779 0.11833613 208.72909117 0.13800192 C209.9502404 0.13956115 209.9502404 0.13956115 211.19605932 0.14115188 C212.8311761 0.14324279 214.46629285 0.14535376 216.10140958 0.14748505 C221.79581426 0.15438267 227.49020048 0.15504962 233.18460846 0.1536026 C240.12333939 0.15216335 247.06195357 0.16184529 254.00064576 0.18554896 C257.54151379 0.19741462 261.08221902 0.2045304 264.623106 0.1987114 C268.45945219 0.19259309 272.29549165 0.20969199 276.13179779 0.2292099 C277.25387084 0.22388197 278.37594388 0.21855405 279.53201914 0.21306467 C280.55952579 0.22212131 281.58703244 0.23117795 282.64567566 0.24050903 C283.53113115 0.24208024 284.41658664 0.24365144 285.32887411 0.24527025 C288.40628566 0.71213152 290.30498835 1.82310642 292.82283783 3.62361908 C294.17181756 6.32157854 293.95078041 8.40865744 293.95426559 11.43114948 C293.95810674 12.67562031 293.96194788 13.92009113 293.96590543 15.20227319 C293.96512509 16.59604321 293.96424629 17.98981317 293.96327972 19.38358307 C293.96586187 20.85430024 293.96887461 22.32501671 293.97228312 23.7957322 C293.98037408 27.85192579 293.98214386 31.90810171 293.98288059 35.96430242 C293.98472752 40.33318839 293.99227301 44.7020651 293.99901581 49.07094574 C294.01261452 58.63077424 294.01862624 68.19059855 294.02302647 77.75043511 C294.02578629 83.71617678 294.03002316 89.68191682 294.03453064 95.64765739 C294.0467253 112.15506418 294.05702423 128.66246967 294.06040573 145.16988087 C294.0606253 146.22699003 294.06084486 147.2840992 294.06107108 148.37324197 C294.06128936 149.43292491 294.06150764 150.49260784 294.06173253 151.58440238 C294.062176 153.73183334 294.06262257 155.8792643 294.0630722 158.02669525 C294.06329363 159.09190217 294.06351506 160.15710909 294.0637432 161.254595 C294.06769234 178.51996842 294.08514901 195.78529966 294.10843173 213.05065677 C294.13212595 230.7636903 294.1446067 248.47670264 294.14577365 266.18975228 C294.1466915 276.14024316 294.15247133 286.09067909 294.17059326 296.04115486 C294.18596824 304.5133748 294.19113014 312.98552282 294.18285516 321.45775405 C294.1789394 325.78238563 294.17992319 330.10687225 294.19391251 334.43148613 C294.20659616 338.38857404 294.20550299 342.34540727 294.19332179 346.30249455 C294.19135514 347.73589485 294.19448765 349.16931285 294.20316616 350.60268823 C294.21420053 352.54795129 294.20501105 354.49329783 294.19477463 356.43856525 C294.19537172 357.52006377 294.1959688 358.60156229 294.19658399 359.71583349 C293.76556935 363.06917404 292.86926076 364.94801689 290.82283783 367.62361908 C287.87150769 368.60739579 285.96527089 368.75072256 282.888978 368.75504684 C281.86483675 368.75888799 280.8406955 368.76272913 279.78551966 368.76668668 C278.09264839 368.76538695 278.09264839 368.76538695 276.3655777 368.76406097 C275.16935584 368.7670321 273.97313399 368.77000322 272.74066299 368.77306437 C269.41448653 368.7802523 266.0883617 368.78292428 262.76218116 368.78366184 C259.17725092 368.78551129 255.5923319 368.79305798 252.00740814 368.79979706 C244.16665973 368.81338429 236.32591643 368.81940544 228.48515821 368.82380772 C223.59164843 368.82656896 218.69814063 368.83080604 213.80463219 368.83531189 C200.26186402 368.84750407 186.71909743 368.85780413 173.17632389 368.86118698 C172.3094254 368.86140655 171.44252692 368.86162611 170.54935878 368.86185233 C169.68036516 368.86207061 168.81137153 368.86228889 167.91604477 368.86251378 C166.1550767 368.86295725 164.39410863 368.86340381 162.63314056 368.86385345 C161.75963618 368.86407488 160.8861318 368.86429631 159.98615759 368.86452445 C145.82410062 368.86847465 131.66209505 368.88593565 117.50005794 368.90921298 C102.96798213 368.93290624 88.43593212 368.94538787 73.90383667 368.9465549 C65.74135187 368.9474727 57.57893405 368.95325144 49.41646767 368.97137451 C42.46780544 368.98674806 35.51923091 368.9919122 28.57055492 368.98363641 C25.02373074 368.97972037 21.4770833 368.98070566 17.93028069 368.99469376 C14.08913725 369.00970457 10.24824476 369.00159459 6.4070816 368.99111176 C5.28073148 368.99916816 4.15438135 369.00722456 2.99389941 369.0155251 C1.9671504 369.00893526 0.9404014 369.00234541 -0.1174612 368.99555588 C-1.00438056 368.99615297 -1.89129991 368.99675005 -2.80509561 368.99736524 C-5.70686443 368.54015844 -7.06297675 367.6385103 -9.17716217 365.62361908 C-10.25125177 362.40135028 -10.30686714 360.08214252 -10.31417656 356.69304085 C-10.3192511 355.44657898 -10.32432564 354.2001171 -10.32955396 352.91588366 C-10.33015565 351.525056 -10.33065473 350.1342283 -10.33106232 348.74340057 C-10.33507659 347.27181996 -10.33951476 345.80024045 -10.34434187 344.32866228 C-10.35631663 340.27473233 -10.36195788 336.22081429 -10.36652303 332.16687012 C-10.37247551 327.79868029 -10.38408604 323.43050473 -10.39481354 319.06232452 C-10.41934265 308.5095179 -10.43396388 297.95670654 -10.44687361 287.40388018 C-10.45058467 284.42472733 -10.45455795 281.44557494 -10.45862627 278.46642256 C-10.48385798 259.97602839 -10.50591636 241.48563349 -10.51835442 222.99522591 C-10.52128422 218.71185173 -10.52424587 214.42847757 -10.52725983 210.14510345 C-10.52800588 209.08046204 -10.52875193 208.01582062 -10.52952059 206.91891734 C-10.54218291 189.66004321 -10.57541781 172.4012719 -10.61706166 155.14244588 C-10.65944145 137.43390173 -10.68304472 119.72541029 -10.68827498 102.01681554 C-10.69169321 92.06964617 -10.70349703 82.12263759 -10.73637772 72.17551804 C-10.76432484 63.70695193 -10.77540102 55.23857956 -10.76418225 46.76997091 C-10.75898221 42.44725699 -10.76196919 38.12494916 -10.7866478 33.80229378 C-10.80904151 29.84695175 -10.80847836 25.89230981 -10.78944393 21.93695633 C-10.78662997 20.50425173 -10.7923196 19.07150064 -10.80725686 17.63887115 C-10.82629295 15.69462966 -10.81161632 13.75014492 -10.79519463 11.80587959 C-10.79655115 10.72492315 -10.79790768 9.64396671 -10.79930532 8.53025401 C-9.55716991 2.72703306 -5.77814002 -0.00177747 0 0 Z M5.82283783 16.62361908 C5.82283783 85.26361908 5.82283783 153.90361908 5.82283783 224.62361908 C95.58283783 224.62361908 185.34283783 224.62361908 277.82283783 224.62361908 C277.82283783 155.98361908 277.82283783 87.34361908 277.82283783 16.62361908 C188.06283783 16.62361908 98.30283783 16.62361908 5.82283783 16.62361908 Z M5.82283783 240.62361908 C5.82283783 277.58361908 5.82283783 314.54361908 5.82283783 352.62361908 C95.58283783 352.62361908 185.34283783 352.62361908 277.82283783 352.62361908 C277.82283783 315.66361908 277.82283783 278.70361908 277.82283783 240.62361908 C188.06283783 240.62361908 98.30283783 240.62361908 5.82283783 240.62361908 Z " fill="#000000" transform="translate(114.17716217041016,39.376380920410156)"/>
<path d="M0 0 C1.09058472 -0.00384115 2.18116944 -0.00768229 3.30480218 -0.01163983 C4.51275059 -0.01077335 5.72069901 -0.00990687 6.96525192 -0.00901413 C8.87869294 -0.01347081 8.87869294 -0.01347081 10.83078933 -0.01801753 C14.38338356 -0.02610603 17.93595761 -0.02787813 21.48855996 -0.028615 C25.31553839 -0.03046237 29.14250626 -0.03800814 32.96947861 -0.04475021 C41.34346147 -0.05834763 49.71743955 -0.06436057 58.09143162 -0.06876087 C63.31812835 -0.07152116 68.54482323 -0.07575815 73.77151871 -0.08026505 C88.23641595 -0.09246002 102.70131171 -0.10275858 117.16621399 -0.10614014 C118.55563805 -0.10646949 118.55563805 -0.10646949 119.97313128 -0.10680549 C120.90166105 -0.10702377 121.83019081 -0.10724204 122.78685784 -0.10746694 C124.66848644 -0.10791041 126.55011503 -0.10835697 128.43174362 -0.10880661 C129.36510118 -0.10902804 130.29845874 -0.10924947 131.26009986 -0.10947761 C146.38438022 -0.11342574 161.50861241 -0.13087919 176.63287416 -0.15416613 C192.15255869 -0.17786943 207.67221903 -0.19034154 223.19192195 -0.19150805 C231.90892582 -0.19242544 240.62586694 -0.19819364 249.34285355 -0.21632767 C256.76578877 -0.23171494 264.18864186 -0.2368573 271.61159 -0.22858956 C275.39965755 -0.22467804 279.18755964 -0.22563696 282.97560692 -0.23964691 C287.08108063 -0.25469209 291.18618014 -0.24653416 295.29166794 -0.23606491 C297.09020623 -0.24814952 297.09020623 -0.24814952 298.92507863 -0.26047826 C305.46068358 -0.22136109 310.51365704 -0.01329119 315.52695847 4.66658401 C319.10370814 9.34387206 320.00745253 11.38678083 320.01385498 17.24851227 C320.01769613 18.5620343 320.02153727 19.87555634 320.02549481 21.22888207 C320.02471447 22.70056809 320.02383567 24.17225406 320.02286911 25.64393997 C320.02545118 27.19644042 320.0284639 28.7489402 320.03187251 30.30143905 C320.03996445 34.58373332 320.0417333 38.86601084 320.04246998 43.14831185 C320.04431675 47.76057275 320.05186219 52.37282487 320.05860519 56.98508072 C320.07220488 67.07801728 320.07821585 77.17094988 320.08261585 87.26389408 C320.08537567 93.56265281 320.08961255 99.86141 320.09412003 106.16016769 C320.10631511 123.58974613 320.11661377 141.01932333 320.11999512 158.44890594 C320.12021468 159.56511577 320.12043425 160.6813256 320.12066047 161.83135997 C320.12087875 162.9502864 320.12109702 164.06921284 320.12132192 165.22204614 C320.12176539 167.48952882 320.12221195 169.75701149 320.12266159 172.02449417 C320.12288302 173.14925107 320.12310445 174.27400798 320.12333259 175.43284842 C320.12728123 193.66105769 320.14473619 211.889227 320.16802111 230.11742082 C320.19171873 248.81921994 320.20419625 267.52099899 320.20536304 286.22281337 C320.20628072 296.72833604 320.2120565 307.23380667 320.23018265 317.73931503 C320.24556224 326.68471489 320.25071681 335.63004662 320.24244455 344.57545719 C320.23853035 349.14121651 320.239505 353.70683855 320.25350189 358.2725811 C320.26619491 362.45115073 320.26508398 366.62947926 320.25291118 370.80804834 C320.25094617 372.32087359 320.25406958 373.83371565 320.26275554 375.34651724 C320.27380952 377.40163129 320.26638792 379.45588865 320.25436401 381.5109787 C320.2549611 382.65285275 320.25555819 383.7947268 320.25617337 384.97120309 C319.75244298 389.23051436 318.28331238 392.59556148 315.38242722 395.77595901 C310.9834108 399.20123482 308.14338555 400.2552519 302.6418066 400.26564884 C301.54923083 400.27010669 300.45665507 400.27456453 299.33097094 400.27915746 C298.12593537 400.2789731 296.9208998 400.27878873 295.67934799 400.27859879 C294.40286622 400.28227547 293.12638445 400.28595216 291.81122142 400.28974026 C288.26088898 400.29976401 284.71057344 400.30347765 281.16022885 400.30612957 C277.33394789 400.31003144 273.50768034 400.31960977 269.68140793 400.32834244 C260.43820818 400.34810874 251.19500733 400.35817264 241.95179173 400.36707023 C237.60067992 400.3714523 233.24956933 400.37681926 228.89845848 400.3820591 C214.43781124 400.39907049 199.97716477 400.41356566 185.51650906 400.42080784 C181.76356315 400.42271778 178.01061724 400.4246381 174.25767136 400.42659378 C173.3248793 400.42707752 172.39208724 400.42756126 171.43102876 400.42805966 C156.31326291 400.43636374 141.19557609 400.46170741 126.07784476 400.49417446 C110.56264895 400.52722397 95.04749335 400.54525463 79.53226215 400.54845208 C70.81860345 400.55061898 62.10506005 400.5593941 53.39143562 400.58491325 C45.97216909 400.60659137 38.55304585 400.61468491 31.13375124 400.60494647 C27.34765185 400.60039352 23.56184831 400.60234538 19.77578926 400.62170792 C15.67246917 400.64251201 11.56980871 400.6323811 7.46645737 400.61917496 C5.66894225 400.63562883 5.66894225 400.63562883 3.8351137 400.6524151 C-2.45570612 400.60335939 -6.36892074 400.42020877 -11.11757278 396.13142776 C-15.3951928 391.39136234 -16.24192138 388.18848712 -16.25179386 381.89129543 C-16.25625171 380.57578235 -16.26070955 379.26026926 -16.26530248 377.90489215 C-16.26521318 376.43614844 -16.26502332 374.96740473 -16.2647438 373.49866104 C-16.26804224 371.94529736 -16.27176777 370.39193453 -16.27588528 368.8385728 C-16.28591545 364.55853991 -16.2896237 360.27852104 -16.29227459 355.99847806 C-16.29617456 351.38691493 -16.30575302 346.77536294 -16.31448746 342.16380692 C-16.33425918 331.02218397 -16.34431836 319.8805601 -16.35321525 308.738924 C-16.35759644 303.49521892 -16.36296363 298.25151486 -16.36820412 293.00781059 C-16.38521607 275.58248193 -16.39971147 258.1571539 -16.40695286 240.7318182 C-16.40886282 236.20885276 -16.41078314 231.68588733 -16.4127388 227.16292191 C-16.41322254 226.0387305 -16.41370628 224.9145391 -16.41420468 223.75628129 C-16.42250959 205.5345892 -16.44785442 187.31296265 -16.48031948 169.0912992 C-16.51336113 150.39398874 -16.53139894 131.69671164 -16.5345971 112.99937183 C-16.53676473 102.49719829 -16.54555054 91.99512037 -16.57105827 81.49297523 C-16.59272565 72.55124668 -16.60083522 63.60963698 -16.59109149 54.66788515 C-16.58653545 50.10410255 -16.58850853 45.54056538 -16.60785294 40.97681618 C-16.6254044 36.80007679 -16.62455257 32.62376332 -16.60895564 28.44701991 C-16.60656734 26.93489464 -16.61096616 25.42274049 -16.62278429 23.91065951 C-16.63784821 21.85628154 -16.62827162 19.80342359 -16.61255741 17.74908352 C-16.61353422 16.60775154 -16.61451103 15.46641957 -16.61551744 14.29050177 C-15.81865307 9.2350132 -13.26562803 6.14280977 -9.49257278 2.81892776 C-6.00768448 0.34282292 -4.23618972 0.00557706 0 0 Z M1.68973732 17.7868824 C-1.3043472 23.32763132 -0.79730637 29.08200089 -0.73903275 35.2521553 C-0.74336149 36.72546862 -0.74987726 38.19877687 -0.75839281 39.67207193 C-0.77540898 43.72170037 -0.76118632 47.77071188 -0.74187803 51.82030797 C-0.72647059 56.18711587 -0.73984783 60.5538472 -0.74962234 64.92065811 C-0.76416164 73.47563153 -0.75190209 82.03036794 -0.7305091 90.58531892 C-0.70651846 100.54396484 -0.70821228 110.50255622 -0.71081501 120.46122462 C-0.71450671 138.22780646 -0.69366652 155.99427651 -0.65956497 173.7608223 C-0.62647266 191.00792135 -0.61230651 208.25490307 -0.61854935 225.50203323 C-0.62531089 244.27456496 -0.62285984 263.04704751 -0.60318995 281.81957197 C-0.60215046 282.81194037 -0.60111097 283.80430877 -0.60003999 284.82674894 C-0.59794906 286.81997296 -0.59583809 288.81319697 -0.59370682 290.80642095 C-0.58680645 297.75117122 -0.5861427 304.69590635 -0.58758926 311.64065933 C-0.58902786 320.10184953 -0.57935846 328.56294393 -0.5556429 337.02410233 C-0.54376957 341.3426641 -0.53666661 345.66109223 -0.54248047 349.97966957 C-0.54764296 353.93111174 -0.53899733 357.8822713 -0.51920587 361.83366507 C-0.51445655 363.26494667 -0.51477825 364.69625569 -0.52061623 366.12753326 C-0.52777489 368.0699383 -0.51475089 370.01238658 -0.50068283 371.95475388 C-0.49911163 373.03462617 -0.49754043 374.11449847 -0.49592161 375.22709417 C-0.0625532 378.55377671 0.90534553 380.44380408 2.88242722 383.13142776 C5.34084866 384.36063848 6.94053898 384.25898933 9.6904459 384.26285553 C10.71197941 384.26669667 11.73351291 384.27053782 12.78600198 384.27449536 C13.91681355 384.27362888 15.04762512 384.2727624 16.2127037 384.27186966 C17.40736557 384.27484078 18.60202743 384.2778119 19.83289117 384.28087306 C23.15939636 384.28806885 26.48584992 384.29073358 29.81235921 384.29147053 C33.39596283 384.29331813 36.97955518 384.30086399 40.56315231 384.30760574 C48.40402708 384.32120182 56.24489674 384.3272158 64.08578134 384.3316164 C68.97946103 384.33437674 73.87313874 384.33861371 78.76681709 384.34312057 C92.30954267 384.35531502 105.85226665 384.36561391 119.3949976 384.36899567 C120.26217964 384.36921523 121.12936169 384.3694348 122.02282197 384.36966102 C122.89210824 384.3698793 123.7613945 384.37009757 124.65702277 384.37032247 C126.41859965 384.37076594 128.18017652 384.3712125 129.94175339 384.37166214 C130.81556096 384.37188357 131.68936853 384.372105 132.58965512 384.37233314 C146.75110012 384.37628184 160.91249368 384.39373726 175.0739188 384.41702166 C189.60483777 384.4407212 204.13573093 384.45319688 218.66666955 384.45436358 C226.8286422 384.45528115 234.99054784 384.46105379 243.15250206 384.4791832 C250.10225787 384.49456537 257.05192596 384.49971584 264.00169555 384.49144509 C267.54863669 384.48753183 271.09540111 384.48850085 274.64232063 384.50250244 C278.48535718 384.51753443 282.32814349 384.5093948 286.1711998 384.49892044 C287.2953192 384.50697685 288.41943861 384.51503325 289.57762223 384.52333379 C291.12165736 384.51344902 291.12165736 384.51344902 292.69688511 384.50336456 C293.58396682 384.50396165 294.47104852 384.50455874 295.38501149 384.50517392 C298.49303748 384.04004801 300.37053937 382.99901734 302.88242722 381.13142776 C303.95733502 377.90670434 304.00994466 375.58974998 304.01385498 372.19805622 C304.01769613 370.95097765 304.02153727 369.70389908 304.02549481 368.41903025 C304.02471453 367.02751349 304.02383573 365.63599678 304.02286911 364.24448013 C304.025452 362.77218721 304.02846495 361.299895 304.03187251 359.82760376 C304.03995446 355.77173889 304.04173274 351.71589172 304.04246998 347.66001976 C304.04431842 343.28980716 304.0518646 338.91960379 304.05860519 334.54939651 C304.07219665 324.98969437 304.07821426 315.42999642 304.08261585 305.87028623 C304.08537642 299.90471447 304.08961338 293.93914434 304.09412003 287.97357368 C304.10631283 271.4661243 304.11661272 254.95867621 304.11999512 238.45122242 C304.12021468 237.39439681 304.12043425 236.33757121 304.12066047 235.24872058 C304.12087875 234.18933029 304.12109702 233.12993999 304.12132192 232.03844696 C304.12176539 229.89162481 304.12221195 227.74480265 304.12266159 225.5979805 C304.12288302 224.53307677 304.12310445 223.46817304 304.12333259 222.37099951 C304.12728296 205.10501412 304.14474419 187.83907087 304.16802111 170.57310177 C304.19171019 152.8589114 304.20419582 135.1447422 304.20536304 117.43053573 C304.20628108 107.4795327 304.21206591 97.5285846 304.23018265 87.57759666 C304.24555056 79.10647031 304.25072367 70.63541586 304.24244455 62.16427822 C304.2385265 57.8397636 304.23952363 53.51539395 304.25350189 49.19089699 C304.26617178 45.23513483 304.26510471 41.27962758 304.25291118 37.32386612 C304.25094213 35.88984056 304.25408788 34.45579737 304.26275554 33.02179665 C304.27376383 31.07810708 304.2646135 29.13433417 304.25436401 27.19064045 C304.2549611 26.10930429 304.25555819 25.02796812 304.25617337 23.9138642 C303.83058549 20.7454805 303.11483739 19.39005572 300.88242722 17.13142776 C297.93411797 16.14865802 296.02458036 16.00249559 292.9513607 15.99441338 C291.92783615 15.98933883 290.90431159 15.98426429 289.84977114 15.97903597 C288.15792305 15.97828934 288.15792305 15.97828934 286.43189621 15.97752762 C284.63862178 15.97095424 284.63862178 15.97095424 282.80911958 15.96424806 C279.48487777 15.95317833 276.16068305 15.94663408 272.8364296 15.94206691 C269.25352145 15.93611116 265.67063066 15.92450145 262.08773422 15.9137764 C253.43335161 15.88925502 244.77896326 15.87462732 236.1245566 15.86171633 C233.68102278 15.85800475 231.23748953 15.8540315 228.79395628 15.84996367 C213.62521842 15.82473174 198.45647966 15.80267519 183.28772545 15.79023552 C179.7743708 15.78730576 176.26101617 15.7843441 172.74766159 15.78133011 C171.87441952 15.78058406 171.00117745 15.77983801 170.1014735 15.77906935 C155.94652102 15.766408 141.79169394 15.73317392 127.63680013 15.69152828 C113.11037074 15.64913906 98.58400563 15.62554414 84.05751455 15.62031496 C75.8988531 15.61689783 67.74038776 15.60510697 59.58178711 15.57221222 C52.6356785 15.54425211 45.6898062 15.53319458 38.74364568 15.54440768 C35.19860007 15.54960446 31.65404964 15.54664261 28.10907555 15.52194214 C24.26815604 15.49540244 20.42791646 15.50747521 16.58692551 15.52342606 C15.46348822 15.50954397 14.34005094 15.49566188 13.1825701 15.48135912 C8.72719941 15.52714515 5.67768935 15.71907316 1.68973732 17.7868824 Z " fill="#4371AF" transform="translate(104.11757278442383,23.868572235107422)"/>
<path d="M0 0 C0.82175217 -0.00554901 1.64350433 -0.01109802 2.49015808 -0.01681519 C5.19911515 -0.02859978 7.90639499 -0.00434938 10.61523438 0.02148438 C12.50183028 0.02319588 14.38842856 0.02312939 16.27502441 0.0213623 C20.22606199 0.02301487 24.17653173 0.04170121 28.12744141 0.07324219 C33.1883391 0.11291954 38.24849319 0.11728702 43.30951691 0.10977936 C47.20435379 0.10670774 51.09902394 0.11883701 54.99382019 0.13591003 C56.85970514 0.14293428 58.72560898 0.14606527 60.59150696 0.1452179 C63.20067401 0.14701848 65.80895517 0.16842221 68.41796875 0.1953125 C69.18694992 0.1923819 69.95593109 0.18945129 70.74821472 0.18643188 C75.22812538 0.25756011 78.15074365 0.83251037 81.70898438 3.61523438 C82.87861966 5.95450495 82.83229027 7.31200085 82.82923889 9.9178772 C82.83130089 11.27247292 82.83130089 11.27247292 82.83340454 12.6544342 C82.82801163 14.14444191 82.82801163 14.14444191 82.82250977 15.66455078 C82.82265579 16.70847488 82.82280182 17.75239899 82.82295227 18.82795715 C82.8222536 22.2909246 82.81446328 25.75383878 82.80664062 29.21679688 C82.80477629 31.61290457 82.80335246 34.00901264 82.80235291 36.40512085 C82.79852898 42.72132412 82.78869975 49.03750452 82.77764893 55.35369873 C82.7656368 62.92692594 82.76103197 70.50016078 82.75519562 78.07339478 C82.74548795 89.58735724 82.72633049 101.10126946 82.70898438 112.61523438 C51.02898437 112.61523438 19.34898437 112.61523438 -13.29101562 112.61523438 C-13.49155967 86.11222447 -13.49155967 86.11222447 -13.53515625 74.82421875 C-13.56505795 67.11855886 -13.60045002 59.41319573 -13.66821289 51.70776367 C-13.72249746 45.49617446 -13.75242912 39.28490342 -13.76540184 33.07309532 C-13.77464796 30.70196205 -13.79270334 28.3308464 -13.81966591 25.9598484 C-13.85590742 22.64122365 -13.86096281 19.32391742 -13.85864258 16.00512695 C-13.87661896 15.02257431 -13.89459534 14.04002167 -13.91311646 13.0276947 C-13.8797405 8.62250871 -13.71311683 6.26616836 -11.27372742 2.50431824 C-7.47292206 0.09709938 -4.36319951 -0.07525566 0 0 Z " fill="#E37B6E" transform="translate(221.291015625,87.384765625)"/>
<path d="M0 0 C7.26 0 14.52 0 22 0 C22 68.64 22 137.28 22 208 C-3.41 208 -28.82 208 -55 208 C-53.02 205.36 -51.04 202.72 -49 200 C-48.49202881 199.17048828 -47.98405762 198.34097656 -47.46069336 197.48632812 C-45.82890068 195.04792622 -44.48017495 193.60083557 -42 192 C-36.48276083 191.02373897 -31.13817685 191.2420527 -25.5625 191.5 C-24.05282873 191.54017582 -22.54305471 191.57666945 -21.03320312 191.609375 C-17.35084977 191.6902614 -13.68286778 191.84663593 -10 192 C-10 186.72 -10 181.44 -10 176 C-16.6 176 -23.2 176 -30 176 C-29.175 174.515 -28.35 173.03 -27.5 171.5 C0.18874573 120.54230832 13.23240998 63.50404544 0.5859375 5.90625 C0 3 0 3 0 0 Z " fill="#C7E2FB" transform="translate(370,56)"/>
<path d="M0 0 C58.41 0 116.82 0 177 0 C171.67160721 5.32839279 166.08896343 9.60197426 160 14 C159.24847656 14.56976563 158.49695313 15.13953125 157.72265625 15.7265625 C154.26993672 18.17423298 152.03493175 19.34760277 147.75 18.875 C145.84785776 18.43116681 143.94523774 17.98487413 142.0625 17.46484375 C135.72238419 16.03591613 129.5561582 16.34019719 123.8828125 19.61328125 C118.70694167 23.42538528 115.15616477 27.37302143 113.9375 33.75 C113.34375 36.01171875 113.34375 36.01171875 112 38 C107.04485923 40.24304309 101.49029946 42 96 42 C95.79246094 41.2265625 95.58492188 40.453125 95.37109375 39.65625 C92.99153756 31.61155796 90.1674626 25.25816116 82.875 20.66015625 C75.42826514 16.81358916 67.70608684 15.46610569 59.45703125 17.68359375 C52.15046086 20.71437424 46.09739194 25.25660058 42.77734375 32.56640625 C41.17772188 37.57426769 40.60323732 42.79310941 40 48 C5.14893617 47.14893617 5.14893617 47.14893617 0 42 C0 28.14 0 14.28 0 0 Z " fill="#EAF6FD" transform="translate(120,280)"/>
<path d="M0 0 C0.66569504 -0.00554901 1.33139008 -0.01109802 2.01725769 -0.01681519 C4.20691044 -0.02857861 6.39447797 -0.00437471 8.58398438 0.02148438 C10.11185614 0.02319649 11.63973084 0.02312877 13.16760254 0.0213623 C16.36543997 0.02301365 19.56257476 0.04167599 22.76025391 0.07324219 C26.85265379 0.1129199 30.94413402 0.11728643 35.03668976 0.10977936 C38.19037249 0.1067051 41.3438497 0.11884625 44.4974823 0.13591003 C46.00610565 0.14292529 47.5147523 0.14606636 49.02339172 0.1452179 C51.13450962 0.14702221 53.24453978 0.16845545 55.35546875 0.1953125 C57.15485901 0.20794128 57.15485901 0.20794128 58.99060059 0.2208252 C62.47938538 0.65256382 64.38053785 1.52169287 67.17773438 3.61523438 C68.33817111 5.93610784 68.31624054 7.30937144 68.33886719 9.89379883 C68.34847473 10.77844315 68.35808228 11.66308746 68.36798096 12.57453918 C68.37223083 13.53285141 68.37648071 14.49116364 68.38085938 15.47851562 C68.38655945 16.46264938 68.39225952 17.44678314 68.39813232 18.46073914 C68.40758987 20.54632489 68.41411929 22.63192565 68.41796875 24.7175293 C68.42766339 27.90440064 68.45867537 31.09062417 68.49023438 34.27734375 C68.49676546 36.30273054 68.50201552 38.32812195 68.50585938 40.35351562 C68.51820618 41.30575516 68.53055298 42.25799469 68.54327393 43.23908997 C68.51464086 51.7695816 68.51464086 51.7695816 65.17773438 55.61523438 C61.7763977 56.74901327 59.15369216 56.75607614 55.56665039 56.77636719 C54.89964111 56.78133209 54.23263184 56.786297 53.54541016 56.79141235 C51.34080979 56.80600722 49.13628134 56.81283076 46.93164062 56.81835938 C45.39851378 56.82411214 43.86538694 56.82986986 42.33226013 56.83563232 C39.11855738 56.84613407 35.9048796 56.85198243 32.69116211 56.85546875 C28.57405421 56.86095796 24.45727627 56.88499827 20.34027195 56.9134407 C17.17383356 56.93206534 14.00747479 56.93727254 10.84098625 56.93880463 C9.32313161 56.94183107 7.80527836 56.94985938 6.28747749 56.96298981 C4.16413352 56.98005061 2.04159765 56.97817077 -0.08178711 56.97167969 C-1.28963364 56.97532532 -2.49748016 56.97897095 -3.7419281 56.98272705 C-7.10057853 56.58203089 -8.46788703 56.00404465 -10.82226562 53.61523438 C-11.74608552 50.84377468 -11.96770812 49.09118194 -12.01513672 46.22314453 C-12.03119965 45.33857574 -12.04726257 44.45400696 -12.06381226 43.54263306 C-12.10836413 39.50759765 -12.14930842 35.4727238 -12.17236328 31.4375 C-12.18893782 29.30945918 -12.21624738 27.18147437 -12.25439453 25.05371094 C-12.30914757 21.98277971 -12.3310329 18.91315037 -12.34570312 15.84179688 C-12.3683725 14.8926944 -12.39104187 13.94359192 -12.41439819 12.96572876 C-12.41154816 12.07485565 -12.40869812 11.18398254 -12.40576172 10.26611328 C-12.41384857 9.48684479 -12.42193542 8.70757629 -12.43026733 7.9046936 C-10.71897416 1.46073813 -6.06982215 -0.01039528 0 0 Z " fill="#000000" transform="translate(227.822265625,95.384765625)"/>
<path d="M0 0 C6.65624668 3.76919993 11.52181386 8.73455212 13.9453125 16.1015625 C14.48393666 20.88871497 14.4114932 25.63318817 14.3359375 30.4453125 C14.32846405 31.82392552 14.32277634 33.20254926 14.31878662 34.58117676 C14.30361669 38.18499815 14.26441218 41.78816022 14.2199707 45.39172363 C14.17882931 49.07876673 14.16073564 52.76591783 14.140625 56.453125 C14.09790701 63.66960421 14.02763088 70.88540645 13.9453125 78.1015625 C8.6653125 78.1015625 3.3853125 78.1015625 -2.0546875 78.1015625 C-2.0546875 72.8215625 -2.0546875 67.5415625 -2.0546875 62.1015625 C-7.3346875 62.1015625 -12.6146875 62.1015625 -18.0546875 62.1015625 C-18.0546875 67.3815625 -18.0546875 72.6615625 -18.0546875 78.1015625 C-23.3346875 78.1015625 -28.6146875 78.1015625 -34.0546875 78.1015625 C-34.14532747 70.15592293 -34.21859729 62.21069036 -34.26193619 54.26467133 C-34.2827446 50.57436295 -34.31093669 46.88442892 -34.35644531 43.19433594 C-34.40014693 39.62814189 -34.42387526 36.06230619 -34.43419647 32.49586487 C-34.44510244 30.48406138 -34.47628941 28.47240054 -34.50787354 26.46081543 C-34.50996547 17.87022014 -33.72644923 12.23968395 -27.87109375 5.640625 C-26.75541016 4.69316406 -26.75541016 4.69316406 -25.6171875 3.7265625 C-24.87597656 3.07945312 -24.13476562 2.43234375 -23.37109375 1.765625 C-16.42365906 -3.22528087 -7.75505918 -3.35947908 0 0 Z " fill="#000001" transform="translate(266.0546875,297.8984375)"/>
<path d="M0 0 C9.05460147 4.68341456 14.06827195 10.89231584 17.25 20.4375 C17.38143471 23.77594165 17.29340976 27.09494868 17.25 30.4375 C11.97 30.4375 6.69 30.4375 1.25 30.4375 C1.0025 28.87 0.755 27.3025 0.5 25.6875 C-0.34066965 21.47222734 -1.08768195 18.9900247 -4.75 16.4375 C-8.40288193 15.21987269 -10.90754136 15.04674149 -14.75 15.4375 C-17.72551795 17.21353298 -20.17755188 19.29260377 -21.75 22.4375 C-22.03239004 26.9314336 -22.06371507 31.42905612 -22.10009766 35.93066406 C-22.11662195 37.42821837 -22.14386606 38.92569495 -22.18212891 40.42285156 C-22.23718342 42.58960586 -22.2588139 44.75451344 -22.2734375 46.921875 C-22.29325684 48.21834961 -22.31307617 49.51482422 -22.33349609 50.85058594 C-21.56979072 55.54529697 -20.07850276 57.10837028 -16.75 60.4375 C-13.64046621 61.9922669 -11.18733239 61.72394437 -7.75 61.4375 C-4.04609979 59.41083762 -2.09636989 57.95705484 0.25 54.4375 C-2.06 54.4375 -4.37 54.4375 -6.75 54.4375 C-6.75 49.1575 -6.75 43.8775 -6.75 38.4375 C-3.85359882 38.35629249 -0.95949088 38.29690579 1.9375 38.25 C3.16243164 38.21229492 3.16243164 38.21229492 4.41210938 38.17382812 C9.19015822 38.11579514 12.38423093 38.28846129 16.25 41.4375 C18.94274756 46.82299511 17.97652658 54.23456761 16.15625 59.75390625 C11.80709101 68.99586911 6.54684487 74.26750898 -3.07421875 77.7421875 C-10.29566049 79.61870813 -16.95698286 79.16343617 -23.6171875 75.76171875 C-31.58968044 70.81176434 -35.80998131 65.25755607 -38.75 56.4375 C-38.88270336 53.81162084 -38.96218758 51.21312754 -38.98828125 48.5859375 C-38.996353 47.81246979 -39.00442474 47.03900208 -39.01274109 46.24209595 C-39.02656786 44.60298899 -39.03729631 42.96385341 -39.04516602 41.32470703 C-39.05664848 39.66055778 -39.07704086 37.99644427 -39.10668945 36.33251953 C-39.42453871 18.48679307 -39.42453871 18.48679307 -34.75 11.4375 C-34.20859375 10.61636719 -33.6671875 9.79523438 -33.109375 8.94921875 C-24.73491812 -0.54318747 -12.28061653 -5.00638374 0 0 Z " fill="#020303" transform="translate(198.75,297.5625)"/>
<path d="M0 0 C6.4488341 3.65174943 11.87665564 8.82043473 13.9453125 16.1015625 C13.9453125 18.0815625 13.9453125 20.0615625 13.9453125 22.1015625 C8.6653125 22.1015625 3.3853125 22.1015625 -2.0546875 22.1015625 C-3.0446875 20.1215625 -4.0346875 18.1415625 -5.0546875 16.1015625 C-7.89552391 14.68114429 -9.90946028 14.78703978 -13.0546875 15.1015625 C-15.78921337 17.04451509 -16.81987745 18.33842985 -17.8046875 21.5390625 C-16.79421768 24.99150106 -14.83927676 25.93066093 -11.80859375 27.66015625 C-9.67853953 28.77503569 -7.54127029 29.86732388 -5.39453125 30.94921875 C2.78769919 35.10841761 9.21130604 38.38500355 13.3203125 46.9765625 C14.90281646 54.88908232 14.23349348 61.14912707 9.9453125 68.1015625 C5.66321485 73.82581739 0.97510811 76.81506396 -6.0546875 78.1015625 C-12.88755419 78.95036581 -18.46400001 78.29457812 -24.0546875 74.1015625 C-28.66355084 69.79505367 -32.89273323 65.49231101 -34.0546875 59.1015625 C-34.0546875 57.4515625 -34.0546875 55.8015625 -34.0546875 54.1015625 C-28.7746875 54.1015625 -23.4946875 54.1015625 -18.0546875 54.1015625 C-17.0646875 56.0815625 -16.0746875 58.0615625 -15.0546875 60.1015625 C-12.28368356 61.48706447 -10.1212169 61.2893092 -7.0546875 61.1015625 C-6.0646875 60.4415625 -5.0746875 59.7815625 -4.0546875 59.1015625 C-3.31862251 55.53386698 -3.31862251 55.53386698 -3.0546875 52.1015625 C-6.85901915 49.61710101 -10.65448758 47.27547641 -14.71484375 45.234375 C-22.89911501 41.1097137 -29.26066073 37.81661725 -33.4296875 29.2890625 C-34.76253006 22.49156543 -35.03096372 16.21791214 -31.5234375 10.0546875 C-23.63064737 -0.44104405 -12.57552494 -5.44769704 0 0 Z " fill="#020303" transform="translate(330.0546875,297.8984375)"/>
<path d="M0 0 C21.12 0 42.24 0 64 0 C64 10.56 64 21.12 64 32 C42.88 32 21.76 32 0 32 C0 21.44 0 10.88 0 0 Z " fill="#A0A8B2" transform="translate(224,472)"/>
<path d="M0 0 C31.68 0 63.36 0 96 0 C96 5.28 96 10.56 96 16 C64.32 16 32.64 16 0 16 C0 10.72 0 5.44 0 0 Z " fill="#C1C8D1" transform="translate(208,440)"/>
<path d="M0 0 C31.68 0 63.36 0 96 0 C96 5.28 96 10.56 96 16 C64.32 16 32.64 16 0 16 C0 10.72 0 5.44 0 0 Z " fill="#E47C6F" transform="translate(208,216)"/>
<path d="M0 0 C15.84 0 31.68 0 48 0 C48 7.92 48 15.84 48 24 C32.16 24 16.32 24 0 24 C0 16.08 0 8.16 0 0 Z " fill="#FFFFFF" transform="translate(232,112)"/>
<path d="M0 0 C10.56 0 21.12 0 32 0 C32 5.28 32 10.56 32 16 C21.44 16 10.88 16 0 16 C0 10.72 0 5.44 0 0 Z " fill="#000000" transform="translate(264,168)"/>
<path d="M0 0 C10.56 0 21.12 0 32 0 C32 5.28 32 10.56 32 16 C21.44 16 10.88 16 0 16 C0 10.72 0 5.44 0 0 Z " fill="#000000" transform="translate(216,168)"/>
<path d="M0 0 C5.28 0 10.56 0 16 0 C16.08093399 4.22955053 16.1404757 8.45755211 16.1875 12.6875 C16.21263672 13.88568359 16.23777344 15.08386719 16.26367188 16.31835938 C16.27333984 17.47529297 16.28300781 18.63222656 16.29296875 19.82421875 C16.3086792 20.88729248 16.32438965 21.95036621 16.34057617 23.0456543 C15.94857676 26.44607354 15.07436927 28.2951584 13 31 C10 32 10 32 0 32 C0 21.44 0 10.88 0 0 Z " fill="#EAF6FD" transform="translate(320,160)"/>
<path d="M0 0 C2.62868183 1.65110469 3.59350965 2.32706812 5 5 C5.62909235 9.61589808 5.46877863 14.16501384 5.3125 18.8125 C5.28994141 20.07771484 5.26738281 21.34292969 5.24414062 22.64648438 C5.18530392 25.76482979 5.09562681 28.88256589 5 32 C-0.28 32 -5.56 32 -11 32 C-11.13487291 27.60314317 -11.23408579 23.2104172 -11.3125 18.8125 C-11.35439453 17.56662109 -11.39628906 16.32074219 -11.43945312 15.03710938 C-11.57761111 4.73052388 -11.57761111 4.73052388 -8.66796875 1.67578125 C-5.36082098 -0.40147555 -3.83173951 -0.79827906 0 0 Z " fill="#C5DFF8" transform="translate(259,312)"/>
<path d="M0 0 C4.08989028 1.80716082 6.62509936 4.21775083 9 8 C9 9.98 9 11.96 9 14 C-2.88 14.99 -2.88 14.99 -15 16 C-15 6.98564593 -15 6.98564593 -12.125 4.0625 C-11.59132812 3.49660156 -11.05765625 2.93070312 -10.5078125 2.34765625 C-7.2155664 -0.59489532 -4.29047459 -0.29087963 0 0 Z " fill="#E6F2F9" transform="translate(191,312)"/>
<path d="M0 0 C7.73761833 6.44801527 12.07148884 13.40099118 15 23 C15 24.65 15 26.3 15 28 C10.05 28 5.1 28 0 28 C0 18.76 0 9.52 0 0 Z " fill="#9DA5AF" transform="translate(320,116)"/>
</svg>
